<svg width="81" height="81" viewBox="0 0 81 81" fill="none" xmlns="http://www.w3.org/2000/svg">
<path fill-rule="evenodd" clip-rule="evenodd" d="M34.4435 0.905737C33.8491 1.10832 33.4085 1.89671 33.594 2.42579C33.6624 2.62073 33.9945 3.07457 34.3323 3.43407L34.946 4.08787L34.3252 4.74168C33.4692 5.64333 33.3622 6.12333 33.8724 6.77211C34.4727 7.53516 35.3586 7.49432 36.2154 6.66368L36.8789 6.02073L37.5424 6.66368C39.2411 8.31027 41.1013 6.45003 39.4547 4.75134L38.8118 4.08787L39.4547 3.42441C41.1039 1.7229 39.269 -0.161681 37.5683 1.48692L36.8789 2.15501L36.2251 1.54124C35.4212 0.786442 35.1146 0.677206 34.4435 0.905737ZM54.5346 3.47309C53.5412 3.79094 52.6773 4.44857 52.167 5.27539C51.6749 6.07264 51.6421 6.08893 50.5019 6.09416C48.3246 6.10422 46.7538 7.19658 46.2058 9.08156C45.6794 10.8923 46.3974 12.7264 48.0266 13.7335L48.7219 14.1632L48.7853 18.9577L48.8486 23.7522L49.5712 25.1596L50.2937 26.5668L48.9774 26.6897C47.2887 26.8475 45.7747 27.5862 44.7469 28.754C43.3721 30.3157 43.3164 30.6766 43.3164 38.0211V44.5234H42.3456C40.8478 44.5234 40.5 45.0093 40.5 47.1012V48.748H39.3936C38.785 48.748 38.2871 48.6802 38.2873 48.5972C38.2873 48.5141 38.4684 47.9701 38.6897 47.3879C38.9874 46.6041 39.0918 45.8425 39.0918 44.4518C39.0918 41.8965 39.0151 41.8303 35.9531 41.74L33.6602 41.6724V40.2081C33.6602 39.0312 33.5783 38.6395 33.2431 38.2137C32.8362 37.6963 32.7714 37.6836 30.5273 37.6836H28.2285V36.2754V34.8672H33.2578C38.0189 34.8672 38.3086 34.8456 38.6895 34.4648C39.0787 34.0756 39.0918 33.7943 39.0918 25.7454V17.4286L38.6237 16.5418C37.2923 14.0199 33.9054 13.6182 31.9763 15.7534C31.5895 16.1817 31.1769 16.878 31.0594 17.3006C30.9399 17.7309 30.8456 19.9515 30.845 22.3442L30.8438 26.6191H28.8503H26.8569L26.7881 21.7407C26.7205 16.9605 26.7085 16.8396 26.1894 15.7317C25.4441 14.1416 24.3801 13.0509 22.8297 12.2876C21.6564 11.7101 21.3054 11.6324 19.8841 11.6375C18.5709 11.6421 18.0573 11.7421 17.1246 12.1746C15.745 12.8145 14.3913 14.1173 13.7681 15.4048C12.4601 18.1065 12.7978 24.1001 14.3704 26.0995L14.7792 26.6191H11.8477H8.91602V22.1322C8.91602 17.7527 8.90395 17.6213 8.41449 16.6388C6.88519 13.5703 2.6988 13.5703 1.16949 16.6388L0.667969 17.6455V25.8154C0.667969 32.5499 0.71806 34.0542 0.95323 34.3761C1.21938 34.7404 1.58712 34.7734 6.43516 34.8672L11.6318 34.9678V41.8076V48.6474L7.21752 48.7018C3.46506 48.748 2.74849 48.8054 2.43969 49.085C2.12385 49.3707 2.07617 49.7648 2.07617 52.0839C2.07617 54.7289 2.0812 54.7578 2.60626 55.1708C2.95891 55.4485 3.43066 55.5879 4.01607 55.5879H4.896L4.8441 66.5014L4.79199 77.415L3.03979 77.5156C1.59477 77.5985 1.23427 77.6868 0.98401 78.0185C0.569193 78.5687 0.593736 79.19 1.05261 79.7565L1.43705 80.2314H40.5H79.563L79.9474 79.7565C80.4063 79.19 80.4308 78.5687 80.016 78.0185C79.7657 77.6868 79.4052 77.5985 77.9602 77.5156L76.208 77.415L76.1559 66.5014L76.104 55.5879H77.7242C79.1763 55.5879 79.3958 55.5366 79.8382 55.094C80.3091 54.6233 80.332 54.4851 80.332 52.1213C80.332 50.2031 80.2612 49.541 80.0188 49.1952L79.7058 48.748H71.7708H63.8359V47.3398V45.9316H69.9586C73.7954 45.9316 76.2927 45.8518 76.6476 45.7176C77.4183 45.4265 78.3119 44.5584 78.6468 43.7755C79.2541 42.3562 78.743 40.57 77.47 39.6619C76.8363 39.2101 76.648 39.1902 72.4596 39.1314L68.1078 39.0705L68.0223 35.2086C67.9485 31.8647 67.8817 31.2239 67.5248 30.4311C66.7274 28.6596 65.2204 27.3586 63.4435 26.9076L62.5283 26.6753L62.4752 20.4176L62.4221 14.1597L62.9985 13.8616C64.2121 13.234 65.2419 11.5642 65.2419 10.2236C65.2419 9.38553 64.7969 8.27547 64.1787 7.57137C63.3145 6.58703 62.1962 6.11086 60.7178 6.09758L59.5107 6.08692L58.9726 5.19975C58.1317 3.81348 56.0285 2.99531 54.5346 3.47309ZM17.0275 3.92472C16.0063 4.4184 16.0172 6.06177 17.0446 6.5299C18.7181 7.29234 19.9958 4.82738 18.3643 3.98387C17.7014 3.64087 17.6217 3.63745 17.0275 3.92472ZM56.5306 6.53694C56.7865 6.77754 56.9961 7.17486 56.9961 7.42009C56.9961 7.66511 57.1691 8.07933 57.3805 8.34045C57.7288 8.77095 57.9499 8.82185 59.7443 8.88442C61.8999 8.95965 62.4277 9.19221 62.4277 10.0669C62.4277 10.8959 62.0552 11.3168 61.1103 11.5548C60.614 11.6797 60.1416 11.8839 60.0605 12.0086C59.9795 12.1333 59.8678 13.3217 59.8125 14.6494L59.7119 17.0635L55.6382 17.118L51.5645 17.1723L51.5614 15.0057C51.5582 12.5558 51.3504 11.9285 50.4538 11.6608C49.2013 11.2866 48.9563 11.1267 48.8233 10.5964C48.7382 10.2572 48.7957 9.85447 48.9754 9.5334C49.2494 9.04374 49.3713 9.01135 51.2989 8.916C53.5039 8.80696 54.1797 8.49937 54.1797 7.60436C54.1797 6.92802 54.928 6.09959 55.5392 6.09959C55.8283 6.09959 56.2745 6.29634 56.5306 6.53694ZM21.8097 14.8158C22.2974 15.0731 22.9679 15.6691 23.2998 16.1401L23.9033 16.9965L23.9667 21.8077L24.0303 26.6191L21.7538 26.6147C19.9738 26.6113 19.2985 26.529 18.6566 26.2375C17.4626 25.6951 16.4077 24.5163 16.0556 23.331C15.6406 21.9332 15.6484 18.012 16.0683 17.0067C17.0222 14.7228 19.699 13.7015 21.8097 14.8158ZM70.3183 16.4714C69.7429 16.8744 69.6963 18.1506 70.239 18.6417C70.7452 19.0997 71.7933 19.0641 72.2852 18.5722C73.5111 17.3463 71.7518 15.4672 70.3183 16.4714ZM5.73167 17.497C5.99178 17.7324 6.09961 18.1158 6.09961 18.8046V19.7793H4.79199H3.48438V18.8396C3.48438 18.2474 3.60749 17.7637 3.81731 17.532C4.23213 17.0735 5.24342 17.055 5.73167 17.497ZM35.9662 17.5581C36.1625 17.775 36.3693 18.3634 36.4259 18.8658L36.5289 19.7793H35.0945H33.6602V18.9189C33.6602 17.7647 34.1009 17.164 34.9481 17.164C35.3494 17.164 35.7497 17.3189 35.9662 17.5581ZM59.767 23.2495L59.8222 26.6191H57.6781C55.1534 26.6191 54.2543 26.3908 53.1899 25.4799C51.9903 24.4529 51.5645 23.3897 51.5645 21.4216V19.771L55.6382 19.8253L59.7119 19.8799L59.767 23.2495ZM6.09961 25.5217C6.09961 28.3603 6.1143 28.4627 6.59349 28.9417L7.08716 29.4355H19.8799H32.6726L33.1663 28.9417C33.6455 28.4627 33.6602 28.3603 33.6602 25.5217V22.5957H35.072H36.4838L36.4299 27.3735L36.376 32.1514L31.2461 32.2012C24.9715 32.2624 25.4121 32.0214 25.4121 35.3924V37.6836H23.8251C22.5611 37.6836 22.1413 37.762 21.7631 38.0688C21.2923 38.4504 21.2881 38.4887 21.2967 42.4443C21.3054 46.4235 21.3297 46.6072 22.089 48.4004C22.2308 48.7356 22.0069 48.7537 18.3439 48.7022L14.4482 48.6474L14.3955 40.815C14.3489 33.8794 14.305 32.9405 14.0123 32.6173C13.7095 32.2825 13.2537 32.2519 8.58308 32.2519H3.48438V27.4238V22.5957H4.79199H6.09961V25.5217ZM63.3129 29.716C63.682 29.8703 64.2449 30.3382 64.5638 30.7558L65.1436 31.5154L65.2441 36.2792C65.3206 39.9037 65.4107 41.1226 65.6207 41.3751C65.8491 41.6495 66.3116 41.707 68.2863 41.707H70.6758V42.4111V43.1152H66.3729C60.8475 43.1152 61.1463 42.9354 61.0529 46.3157L60.9859 48.748H58.9909H56.9961V47.1296C56.9961 45.6794 56.9448 45.4597 56.5022 45.0173C56.0232 44.5381 55.9208 44.5234 53.0823 44.5234H50.1562V40.8933C50.1562 37.3072 50.1502 37.2569 49.6624 36.7693C49.3908 36.4977 48.9794 36.2754 48.748 36.2754C48.5167 36.2754 48.1053 36.4977 47.8337 36.7693C47.3459 37.2569 47.3398 37.3072 47.3398 40.8933V44.5234H46.6357H45.9316L45.9405 38.438C45.9512 31.1435 46.0638 30.6196 47.8076 29.7598C48.7048 29.3172 62.267 29.279 63.3129 29.716ZM30.8438 41.0822V41.6644L29.2549 41.7366C26.8837 41.8442 26.7586 42.0056 26.8587 44.8244C26.9159 46.4267 27.0348 47.2203 27.2894 47.6977C27.7431 48.5479 27.6011 48.7456 26.6861 48.5392C25.6521 48.3061 24.984 47.7647 24.4565 46.7323C24.0542 45.9449 24.0039 45.5488 24.0039 43.1732V40.5H27.4238H30.8438V41.0822ZM75.9678 42.1323C76.3917 42.808 75.9972 43.1152 74.7055 43.1152H73.4922V42.4011V41.6869L74.628 41.7473C75.4057 41.7885 75.8282 41.91 75.9678 42.1323ZM36.3108 45.4277C36.114 47.8548 33.5807 49.2918 31.3581 48.2371C30.5012 47.8303 29.9662 47.1356 29.6607 46.0322C29.2133 44.4168 29.0125 44.5071 32.9058 44.5689L36.376 44.624L36.3108 45.4277ZM47.3398 48.0439V48.748H45.3281H43.3164V48.0439V47.3398H45.3281H47.3398V48.0439ZM54.1797 48.0439V48.748H52.168H50.1562V48.0439V47.3398H52.168H54.1797V48.0439ZM77.5156 52.0674V52.7715H41.2041H4.89258V52.0674V51.3633H41.2041H77.5156V52.0674ZM73.4922 66.5517V77.5156H40.5H7.50781V66.5517V55.5879H40.5H73.4922V66.5517Z" fill="black"/>
</svg>
