<svg width="81" height="83" viewBox="0 0 81 83" fill="none" xmlns="http://www.w3.org/2000/svg">
<path fill-rule="evenodd" clip-rule="evenodd" d="M29.4312 0.580072C28.4204 1.0345 27.7427 1.7189 27.2957 2.73722C26.971 3.47658 26.7236 3.673 25.4454 4.20534C23.0136 5.21837 20.9456 6.62955 18.9836 8.61521C15.4964 12.1443 13.3539 16.5897 12.9151 21.2057L12.768 22.753L11.7366 23.213C10.5014 23.7638 9.15484 25.2092 8.76737 26.4004C8.40844 27.503 8.40738 29.23 8.76482 30.3282C9.35708 32.1477 11.2703 33.6838 13.247 33.9265C14.3758 34.0652 14.5188 34.2731 14.5244 35.7816C14.529 37.0098 15.3097 39.8994 16.111 41.6525C17.5789 44.865 19.9324 47.7717 22.4901 49.5318L23.6816 50.3517V52.532C23.6816 54.4182 23.6314 54.7278 23.3091 54.826C23.1041 54.8885 21.26 55.2496 19.2109 55.6283C12.4853 56.8717 11.2069 57.3001 8.35373 59.2664C6.6374 60.4493 4.04056 63.241 3.06212 64.955C1.12375 68.3507 0.689453 70.558 0.689453 77.0142C0.689453 81.7437 0.696479 81.8185 1.18208 82.2917L1.67492 82.7715H33.1157H64.5566L65.0005 82.3113C65.4318 81.8642 65.4423 81.6889 65.3684 76.0764L65.2926 70.3017L64.6299 68.3682C63.0166 63.6612 60.0091 60.2247 55.5088 57.9455C53.5415 56.9492 51.6744 56.4561 45.9287 55.4153C44.5236 55.1608 43.1586 54.9033 42.895 54.8432C42.4379 54.7389 42.416 54.6347 42.416 52.5623V50.3906L43.5522 49.6084C46.4899 47.5863 49.2066 44.0754 50.4778 40.658C51.087 39.0206 51.7832 35.746 51.7832 34.5189C51.7832 34.0925 51.8939 33.9961 52.3831 33.9961C53.683 33.9961 55.1477 33.3423 56.1306 32.3234C58.7264 29.6323 58.0688 25.1699 54.829 23.491C54.1491 23.1388 53.5338 22.7671 53.4618 22.6652C53.3899 22.5632 53.2711 21.8183 53.1976 21.0099C52.9283 18.0412 51.4509 14.1273 49.5659 11.3888C48.4276 9.73484 45.9283 7.25237 44.2252 6.08375C43.5228 5.60173 42.1339 4.8456 41.1387 4.40331C39.638 3.73657 39.2689 3.47172 38.9757 2.85199C38.5093 1.86589 37.3765 0.789961 36.4766 0.47877C35.3749 0.097836 30.3432 0.170006 29.4312 0.580072ZM64.0157 2.51652C62.8682 3.07049 61.903 4.09102 61.4374 5.24243C61.2536 5.6973 61.1504 6.85533 61.1504 8.46359C61.1504 11.93 60.9694 11.7953 65.7492 11.8847L69.4531 11.9542V13.0434V14.1328H65.775C62.7903 14.1328 62.0075 14.1977 61.6236 14.4764L61.1504 14.8198V35.7813C61.1504 58.4738 61.0957 57.3899 62.3157 58.8901C63.2495 60.0382 64.437 60.5742 66.0469 60.5751C68.0783 60.5762 69.6028 59.6186 70.5904 57.7217C71.0413 56.8552 71.0509 56.6325 71.1105 45.6452L71.1711 34.4516L72.7072 33.9886C77.068 32.6736 77.6862 32.4346 78.4752 31.757C78.9293 31.3671 79.5273 30.5443 79.8036 29.9287C80.298 28.8285 80.3065 28.6937 80.3084 21.9543C80.3105 15.3586 80.2941 15.0805 79.8765 14.6159C79.6186 14.329 79.1863 14.1328 78.812 14.1328H78.1816L78.1795 10.105C78.1776 6.32718 78.1461 6.00694 77.6703 4.94779C77.1217 3.72664 76.1028 2.78026 74.829 2.30906C74.261 2.09895 72.7387 2.01133 69.5596 2.00603C65.3071 1.99875 65.0365 2.02369 64.0157 2.51652ZM35.9201 3.62004C36.3697 3.9608 36.3833 4.99149 36.0318 12.0747C35.8121 16.504 35.6395 17.0357 34.2072 17.6925C32.7418 18.3646 31.3163 17.7956 30.542 16.2295C30.422 15.9867 30.2061 13.178 30.0622 9.98799C29.7379 2.79196 29.5029 3.31834 33.0412 3.31834C34.8028 3.31834 35.6376 3.40573 35.9201 3.62004ZM74.5789 5.72908L75.2012 6.37419V10.2535V14.1328H73.8174H72.4336V12.1319C72.4336 10.2312 72.2337 9.36737 71.7098 9.00475C71.581 8.91559 69.8231 8.84121 67.8032 8.83922L64.1309 8.83591V7.60505C64.1309 6.53884 64.2141 6.2879 64.7531 5.72908L65.3754 5.08396H69.666H73.9566L74.5789 5.72908ZM27.0789 9.82908C27.0975 10.9216 27.189 12.9183 27.2829 14.2659C27.4279 16.3539 27.5443 16.8903 28.0689 17.89C30.3351 22.2092 36.4402 21.9117 38.3698 17.3879C38.7475 16.5025 38.8512 15.6097 39.0372 11.6501C39.1581 9.07096 39.2825 6.93478 39.3131 6.90277C39.4664 6.74409 42.4873 8.52472 43.7736 9.53201C47.2001 12.2155 49.831 17.1169 50.3596 21.8022L50.4654 22.7402H33.135H15.8047V22.0924C15.8047 21.0443 16.3944 18.4425 16.9575 17.0057C17.7462 14.9931 18.9189 13.1244 20.4466 11.4457C22.0769 9.65406 23.2593 8.72689 25.2783 7.6567C26.762 6.87033 26.7692 6.86901 26.9069 7.35478C26.9831 7.62315 27.0604 8.7366 27.0789 9.82908ZM77.3301 17.9951V18.7676L73.7642 18.7684C70.6053 18.7691 70.1205 18.8183 69.5178 19.1992C68.4434 19.8786 68.114 20.5952 68.0097 22.4829C67.8877 24.6873 68.1954 25.8292 69.1442 26.6928L69.8938 27.375H73.6119H77.3301V27.9232C77.3301 28.2249 77.0665 28.7639 76.7446 29.1212C76.2556 29.6641 75.5722 29.9422 72.5935 30.8107C70.6321 31.3827 68.8598 31.9775 68.655 32.1329C68.3101 32.394 68.2741 33.3126 68.1758 44.3693L68.0693 56.3237L67.374 56.9675C66.4982 57.7784 65.6594 57.802 64.7859 57.0399L64.1309 56.4685V36.8456V17.2226H70.7305H77.3301V17.9951ZM77.3301 23.0536V24.25L75.9995 24.3926C75.2678 24.4712 73.8546 24.5039 72.8594 24.4654L71.0498 24.3955L70.9859 23.1264L70.9221 21.8574H74.1261H77.3301V23.0536ZM53.3726 26.1437C54.6117 26.6804 55.1022 28.2631 54.4407 29.5893C53.7514 30.9713 54.8079 30.9062 33.039 30.9062C14.9008 30.9062 13.158 30.8749 12.6077 30.5379C11.0187 29.5648 11.0691 27.0099 12.6939 26.179C13.2749 25.8819 15.7745 25.8395 33.0024 25.8351C49.508 25.8309 52.7642 25.8802 53.3726 26.1437ZM48.7065 35.2651C48.0195 41.2676 44.2601 46.4784 39.0255 48.6834C29.3567 52.7565 18.6915 46.0796 17.4156 35.1548L17.2802 33.9961H33.0661H48.8517L48.7065 35.2651ZM28.791 52.4722C31.3989 53.2087 36.616 52.9474 39.1094 51.9556C39.3896 51.8441 39.4355 52.1504 39.4355 54.1255C39.4355 56.3462 39.4155 56.4451 38.8501 57.0064C36.8351 59.007 31.698 59.4687 28.6365 57.9245C26.8731 57.0351 26.6621 56.6195 26.6621 54.0355C26.6621 52.0494 26.6972 51.8545 27.0347 51.9624C27.2397 52.0277 28.0299 52.2573 28.791 52.4722ZM24.6731 58.5729C26.2035 61.0234 31.2657 62.503 35.4873 61.7334C37.9425 61.2858 40.1628 60.1728 41.3205 58.8093C42.1163 57.8722 42.2129 57.8221 42.878 58.0004L43.5869 58.1909L43.645 62.3661C43.7127 67.228 43.519 68.5551 42.5795 69.6641C41.2877 71.1894 41.3573 71.177 33.6945 71.2539C26.2804 71.3282 25.3782 71.2353 24.1587 70.2724C22.7375 69.1501 22.6172 68.5856 22.6172 63.0426V58.0834L23.0962 57.9878C24.0663 57.7941 24.223 57.8523 24.6731 58.5729ZM19.6791 63.8462C19.7406 68.7758 19.7636 69.0208 20.2643 70.0753C20.8819 71.3768 22.2531 72.859 23.4004 73.4657C24.9815 74.302 26.4158 74.4223 33.9004 74.3466L41.0322 74.2744L42.2287 73.6928C44.6103 72.535 46.0362 70.6034 46.4471 67.9777C46.5701 67.1923 46.6713 64.7824 46.6721 62.6224L46.6738 58.6947L47.4722 58.8492C47.9114 58.9342 49.0369 59.1622 49.9736 59.356L51.6768 59.708L51.7321 69.6948L51.7875 79.6816H33.1574H14.5273V69.6818V59.6819L16.7095 59.2242C17.9095 58.9724 19.0542 58.7548 19.2533 58.7406C19.582 58.7173 19.6208 59.1794 19.6791 63.8462ZM11.5469 70.3017V79.6816H7.58583H3.62479L3.71378 75.4331C3.79638 71.4982 3.84641 71.0543 4.39077 69.4211C5.17591 67.0658 6.23781 65.2916 7.85514 63.6336C8.88681 62.5758 11.0836 60.94 11.4937 60.9238C11.523 60.9227 11.5469 65.1428 11.5469 70.3017ZM58.284 63.6833C59.6621 65.0912 60.1956 65.8338 60.9 67.3249C62.2329 70.147 62.4277 71.2214 62.4277 75.7553V79.6816H58.5957H54.7637V70.2951V60.9086L55.6582 61.4118C56.1502 61.6886 57.3318 62.7109 58.284 63.6833Z" fill="black"/>
</svg>
