<svg width="80" height="78" viewBox="0 0 80 78" fill="none" xmlns="http://www.w3.org/2000/svg">
<path fill-rule="evenodd" clip-rule="evenodd" d="M15.902 0.156201C15.7534 0.244104 15.4189 0.617955 15.1586 0.987084L14.685 1.65801L13.8659 1.30777C9.36515 -0.616639 3.97124 1.28263 1.89187 5.52419C1.55343 6.21461 1.19077 7.1663 1.08577 7.63933C0.801711 8.92054 0.965774 11.4298 1.40812 12.5684C1.84296 13.6877 2.88906 15.2823 3.65156 15.9879C3.96343 16.2768 4.21874 16.572 4.21874 16.6441C4.21874 16.7163 3.41015 17.9446 2.42187 19.3738C1.43359 20.803 0.624993 22.1006 0.624993 22.2572C0.624993 22.4139 0.818274 22.741 1.05468 22.984C1.43265 23.3726 19.433 34.3367 20.3939 34.7637C21.2764 35.1557 21.4587 34.9268 24.623 29.4607L27.5781 24.3557L32.5 24.459C35.207 24.5158 37.4747 24.5929 37.5391 24.6301C37.6034 24.6672 37.6562 24.8601 37.6562 25.0585C37.6562 25.4597 38.3152 26.0508 38.7623 26.0508C38.9178 26.0508 39.2306 25.8951 39.4575 25.705C39.8466 25.3787 39.9081 25.1218 40.5439 21.1728C41.2784 16.6099 41.2752 16.4622 40.4297 16.0016C40.0437 15.7915 39.9564 15.7914 39.5725 16.0007C39.3375 16.129 39.0667 16.3872 38.9708 16.5747C38.875 16.7623 38.7625 16.9487 38.7209 16.9893C38.633 17.075 32.8447 15.9261 32.7117 15.7964C32.6627 15.7484 33.1222 14.8572 33.7331 13.816C34.8909 11.8422 35.0266 11.3612 34.5703 10.8462C34.1587 10.3815 17.0151 0.0958731 16.5634 0.0425528C16.3481 0.0171114 16.0505 0.0681466 15.902 0.156201ZM24.3317 7.25146C28.4375 9.73162 31.8578 11.8167 31.9322 11.8851C32.0067 11.9537 29.9048 15.7346 27.2614 20.2871C24.618 24.8397 22.4373 28.5861 22.4155 28.6125C22.3811 28.6538 18.8595 26.5426 8.16749 20.0709L5.78827 18.6308L11.2914 10.6865C14.318 6.31714 16.8106 2.74224 16.8305 2.74224C16.8503 2.74224 20.2259 4.77146 24.3317 7.25146ZM12.12 3.12249C13.3736 3.49329 13.4061 3.54052 12.8987 4.25425C12.6561 4.59565 12.4376 4.87505 12.4133 4.87505C12.3889 4.87505 11.9308 4.76567 11.3953 4.63191C7.86781 3.75075 4.4164 6.80128 5.0014 10.2833C5.17593 11.3215 5.3864 11.809 6.02937 12.6629L6.57749 13.3908L6.15531 14.0128C5.92312 14.3549 5.65609 14.611 5.56187 14.5819C5.46765 14.553 5.05796 14.103 4.6514 13.582C2.65046 11.0177 2.84202 7.37394 5.10171 5.01856C6.47031 3.59201 8.08124 2.90753 10.0887 2.89961C10.7822 2.89687 11.6962 2.99711 12.12 3.12249ZM10.927 6.95561C11.0108 7.02645 8.08484 11.2624 7.94749 11.2688C7.71984 11.2794 7.34374 10.1851 7.34374 9.51194C7.34374 8.68334 7.86968 7.66309 8.50656 7.25618C9.18874 6.82033 10.565 6.6494 10.927 6.95561ZM25.5048 15.501C25.022 15.9149 23.125 19.3415 23.125 19.7997C23.125 20.3194 23.7172 20.8711 24.275 20.8711C24.5098 20.8711 24.8589 20.717 25.0512 20.5284C25.6477 19.9434 27.3437 16.8243 27.3437 16.3126C27.3437 15.3912 26.2144 14.8929 25.5048 15.501ZM34.9378 18.6672C36.8109 19.047 38.3634 19.377 38.3877 19.4007C38.4534 19.4647 37.9998 22.1103 37.9077 22.2002C37.8642 22.2427 35.8314 22.227 33.3906 22.1655L28.9527 22.0536L30.1312 20.0151C30.7794 18.8939 31.3598 17.9766 31.4209 17.9766C31.482 17.9766 33.0647 18.2874 34.9378 18.6672ZM42.8125 19.043C41.8909 19.9415 43.0347 21.392 44.2011 20.8038C44.9252 20.4388 45.0484 19.7948 44.5198 19.1398C44.1141 18.6367 43.2778 18.5893 42.8125 19.043ZM48.8002 19.9859C48.3231 20.2107 48.0706 20.8644 48.2667 21.367C48.4469 21.8291 48.8712 22.0899 49.4428 22.0899C50.4267 22.0899 50.8509 20.7293 50.057 20.1205C49.605 19.7738 49.3158 19.7427 48.8002 19.9859ZM12.9317 25.6616L21.2312 30.6807L20.8497 31.2983C20.6398 31.638 20.3678 31.9074 20.2452 31.8967C19.9977 31.8752 3.79452 22.131 3.66406 21.9252C3.56796 21.7735 4.37374 20.5364 4.52765 20.5997C4.58515 20.6233 8.36687 22.9011 12.9317 25.6616ZM54.1117 22.397C53.7002 22.557 53.4375 22.9973 53.4375 23.5271C53.4375 24.4864 54.833 24.9 55.4573 24.126C55.8737 23.61 55.8666 23.2648 55.4297 22.7963C55.0109 22.3472 54.5777 22.216 54.1117 22.397ZM42.4006 23.3345C42.068 23.4916 41.7187 24.0567 41.7187 24.4378C41.7187 24.5483 41.8645 24.8193 42.0427 25.04C42.4484 25.5431 43.2847 25.5904 43.75 25.1368C44.2153 24.6831 44.1667 23.8677 43.6508 23.4721C43.2002 23.1264 42.9092 23.0944 42.4006 23.3345ZM58.125 26.3555C57.3827 27.0793 58.0959 28.4676 59.1119 28.2764C60.1047 28.0895 60.4903 27.0194 59.7947 26.382C59.3344 25.9605 58.5431 25.9478 58.125 26.3555ZM47.5992 27.5854C46.7831 28.2112 47.2566 29.5547 48.2934 29.5547C48.9633 29.5547 49.4375 29.0813 49.4375 28.4122C49.4375 27.3953 48.435 26.9443 47.5992 27.5854ZM61.768 30.7746C61.068 31.0495 60.8773 32.0131 61.4123 32.5728C61.8742 33.0562 62.6953 33.0235 63.1136 32.5049C63.6403 31.8521 63.5189 31.2058 62.8013 30.844C62.3017 30.5922 62.2425 30.5882 61.768 30.7746ZM51.5055 33.0698C50.9736 33.4776 50.94 34.2782 51.4358 34.7285C52.0284 35.2669 52.8394 35.1156 53.2212 34.3956C53.4194 34.0219 53.4284 33.8621 53.2722 33.4942C52.9397 32.7116 52.2031 32.5346 51.5055 33.0698ZM63.6808 36.2918C63.547 36.478 63.4375 36.8444 63.4375 37.1061C63.4375 38.1119 64.7192 38.511 65.4153 37.722C65.8662 37.2109 65.8766 36.8742 65.4573 36.3546C65.0255 35.8191 64.0452 35.7845 63.6808 36.2918ZM53.4375 39.4571C52.8722 40.0083 53.1073 41.018 53.8664 41.2994C54.402 41.4979 55.0567 41.2386 55.2922 40.7345C55.5394 40.2057 55.5153 40.013 55.1448 39.5538C54.7391 39.0508 53.9028 39.0034 53.4375 39.4571ZM8.27499 47.5775C7.50109 47.9764 6.87499 48.9466 6.87499 49.7465C6.87499 50.0169 7.16671 50.8117 7.52327 51.5127C8.0389 52.526 8.44702 53.0525 9.51546 54.0821C11.3631 55.8624 13.2837 56.7623 15.6087 56.9372L16.7644 57.024L16.6644 58.9527C16.6092 60.0134 16.5173 63.1176 16.4602 65.8508L16.3562 70.8202L15.6276 71.2805C15.227 71.5335 14.5739 72.0798 14.1764 72.4942C13.6687 73.0233 13.2184 73.3239 12.6644 73.5033C11.7912 73.7861 10.1145 74.9171 9.84765 75.4032C9.6814 75.7061 9.55015 75.7149 5.22171 75.7149H0.767024L0.383586 76.0889C-0.10532 76.5654 -0.10532 77.1495 0.383586 77.626L0.767024 78H40H79.233L79.6164 77.626C80.1053 77.1495 80.1053 76.5654 79.6164 76.0889L79.233 75.7149H74.8636H70.4942L70.1702 75.2036C69.3833 73.9622 67.6352 72.7305 66.0178 72.2779C65.4506 72.1191 64.8048 71.7917 64.3772 71.4462C63.9892 71.1329 63.5137 70.7972 63.3203 70.7005C62.9905 70.5354 62.9687 70.4287 62.9692 68.9683C62.9695 68.1125 63.0158 66.3325 63.0719 65.0127L63.1739 62.6133H63.9759C65.1122 62.6133 66.4309 62.2529 67.9687 61.5221C69.8094 60.6475 71.5534 58.9549 72.4747 57.1494C72.8331 56.4468 73.125 55.6543 73.125 55.3832C73.125 54.5833 72.4989 53.6132 71.725 53.2142C70.8856 52.7814 70.48 52.7762 69.2106 53.1825C67.3167 53.7887 65.5547 54.7893 64.1797 56.0389L63.4375 56.7137L63.4377 56.0453C63.438 55.2672 63.8308 51.8374 64.1327 49.9769C64.2477 49.2691 64.3033 48.5835 64.2564 48.4534C64.072 47.9411 63.6936 47.6836 63.125 47.6836C62.2448 47.6836 62.0353 48.0257 61.7528 49.9226C61.6181 50.8279 61.4852 51.5969 61.4573 51.6316C61.4294 51.6665 60.932 51.2509 60.3517 50.7083C58.6491 49.1157 57.0005 48.1596 54.8687 47.5283C53.1714 47.0255 52.0422 47.3931 51.4173 48.6515C50.9548 49.5829 51.0102 50.0754 51.7362 51.4898C53.3398 54.6135 56.9656 56.9571 60.2191 56.973L60.985 56.9766L60.8861 58.9952C60.8316 60.1054 60.7398 62.9675 60.6823 65.3555L60.5778 69.6973L59.3905 69.7103C58.7214 69.7176 57.8508 69.8373 57.3959 69.9848C56.6314 70.2327 56.5406 70.2325 55.6772 69.9805C55.0914 69.8096 54.2352 69.7138 53.2812 69.7124C51.4895 69.7098 50.0928 70.084 48.5941 70.9683L47.5787 71.5673L47.0316 71.1478C45.6652 70.0998 43.6248 69.5221 41.9111 69.6979L40.9317 69.7983L40.9736 66.244L41.0156 62.6895L42.2189 62.5832C43.6203 62.4592 45.2847 61.9313 46.5328 61.215C48.6942 59.9743 50.9375 57.0048 50.9375 55.3843C50.9375 54.0915 50.0377 53.09 48.7358 52.9339C47.3525 52.768 44.3305 54.1317 42.228 55.8707L41.2156 56.7082L41.3056 55.9664C41.3552 55.5584 41.4384 54.7105 41.4908 54.0821C41.5433 53.4537 41.7214 52.0555 41.8867 50.9749C42.0522 49.8943 42.1875 48.8489 42.1875 48.6516C42.1875 47.7845 40.8139 47.3352 40.1825 47.9959C39.9073 48.284 39.8212 48.6547 39.4397 51.1936L39.3586 51.7331L38.2147 50.6604C36.2127 48.7834 32.5867 47.0328 31.2217 47.2843C29.918 47.5244 29.0641 48.4868 29.0631 49.717C29.0617 51.5122 31.462 54.5545 33.8612 55.7981C35.128 56.4547 37.0361 56.9766 38.1703 56.9766H38.9469L38.8494 57.7002C38.7956 58.0983 38.7052 61.0166 38.6483 64.1854C38.545 69.9313 38.5437 69.9467 38.2177 69.8695C36.5362 69.4717 34.2252 69.7267 32.4681 70.5035L31.4205 70.9668L30.3587 70.4531C28.5903 69.5975 26.8973 69.4618 24.8828 70.0142C24.1412 70.2174 23.9762 70.2141 23.1641 69.9795C22.228 69.7089 19.9478 69.617 19.1797 69.8187L18.75 69.9316V68.3532C18.75 67.4851 18.7956 65.8479 18.8512 64.7149L18.9526 62.6551L20.1403 62.5644C22.4687 62.3866 24.502 61.4305 26.3419 59.6483C27.3214 58.6993 27.7519 58.1372 28.2559 57.1494C28.6144 56.4468 28.9062 55.6543 28.9062 55.3832C28.9062 54.5833 28.2802 53.6132 27.5062 53.2142C26.6669 52.7814 26.2612 52.7762 24.9919 53.1825C23.098 53.7887 21.3359 54.7893 19.9609 56.0389L19.2187 56.7137L19.2189 56.0453C19.2192 55.2672 19.612 51.8374 19.9139 49.9769C20.0289 49.2691 20.0845 48.5835 20.0377 48.4534C19.8533 47.9411 19.4748 47.6836 18.9062 47.6836C18.0261 47.6836 17.8166 48.0257 17.5341 49.9226C17.3994 50.8279 17.2664 51.5969 17.2386 51.6316C17.2106 51.6665 16.7133 51.2509 16.133 50.7083C14.4526 49.1365 12.8061 48.1745 10.7258 47.5488C9.37484 47.1425 9.11265 47.1456 8.27499 47.5775ZM12.39 50.7837C12.9644 51.0968 13.8508 51.729 14.3598 52.1886C15.2925 53.0305 16.3709 54.4721 16.1956 54.6429C16.0103 54.8235 14.278 54.3741 13.1512 53.8533C12.3572 53.4861 11.7069 53.0308 11.0328 52.3697C10.1126 51.4676 9.13327 49.9222 9.30749 49.6474C9.42015 49.4697 11.1491 50.1071 12.39 50.7837ZM33.1361 50.1114C35.1381 50.9193 37.2762 52.6258 38.1078 54.0796L38.4811 54.7324L37.7172 54.6209C35.9666 54.3653 34.3342 53.5708 33.1131 52.3801C32.2916 51.5791 31.4102 50.2292 31.4077 49.7682C31.4059 49.4452 31.5619 49.4761 33.1361 50.1114ZM56.6087 50.7837C57.1831 51.0968 58.0695 51.729 58.5786 52.1886C59.5113 53.0305 60.5897 54.4721 60.4144 54.6429C60.2206 54.8319 58.4761 54.3691 57.3437 53.8283C55.935 53.1554 54.4714 51.796 53.8625 50.5948C53.6336 50.1432 53.4822 49.7168 53.5262 49.6474C53.6389 49.4697 55.3678 50.1071 56.6087 50.7837ZM26.4344 55.5452C26.3361 56.1125 25.3769 57.4786 24.5686 58.2019C24.1166 58.6065 23.2722 59.1691 22.6922 59.4519C21.678 59.9467 19.7716 60.461 19.5939 60.2878C19.258 59.9603 21.6647 57.3686 23.0173 56.6014C24.027 56.0287 26.1337 55.1398 26.3281 55.2044C26.4141 55.2329 26.4619 55.3863 26.4344 55.5452ZM48.5219 55.5674C47.9933 57.6612 45.0691 59.8501 42.2498 60.2622L41.5189 60.3692L41.8922 59.7051C42.7508 58.178 44.9925 56.4545 47.25 55.5859C48.628 55.0556 48.6511 55.0553 48.5219 55.5674ZM70.6531 55.5452C70.5548 56.1125 69.5956 57.4786 68.7873 58.2019C68.3353 58.6065 67.4909 59.1691 66.9109 59.4519C65.8967 59.9467 63.9903 60.461 63.8127 60.2878C63.4767 59.9603 65.8834 57.3686 67.2361 56.6014C68.2458 56.0287 70.3525 55.1398 70.5469 55.2044C70.6328 55.2329 70.6806 55.3863 70.6531 55.5452ZM23.1472 72.4025L24.1852 72.7174L25.1466 72.3668C26.9734 71.7008 28.8653 71.9793 30.3423 73.1321C31.0945 73.7189 31.597 73.6988 32.6562 73.0391C34.3833 71.9639 36.492 71.7246 38.5487 72.3703L39.6539 72.7174L40.6395 72.358C42.0852 71.8309 43.465 71.8799 44.767 72.505C45.3102 72.7657 45.9633 73.2108 46.2186 73.4942C47.1591 74.5388 47.6669 74.5827 48.7014 73.709C50.0958 72.5314 52.2705 71.8222 53.9244 72.0059C54.3011 72.0477 55.0489 72.2265 55.5859 72.4031L56.5625 72.7244L57.5391 72.4039C58.9119 71.9531 59.4139 71.8924 60.3458 72.0647C61.5056 72.2792 62.3367 72.7137 63.2544 73.5851C63.8519 74.1526 64.1709 74.3438 64.5208 74.3438C65.1572 74.3438 66.538 74.8685 67.1094 75.3275L67.5781 75.7039L40.5469 75.6957C22.3298 75.6901 13.6939 75.638 14.0625 75.5357C14.4242 75.4353 14.9833 75.0034 15.7137 74.2596C17.8327 72.1019 20.2039 71.5096 23.1472 72.4025Z" fill="#F7F6F5"/>
</svg>
