<svg width="67" height="75" viewBox="0 0 67 75" fill="none" xmlns="http://www.w3.org/2000/svg">
<path fill-rule="evenodd" clip-rule="evenodd" d="M35.2398 1.34562C35.0164 1.66835 34.9844 2.83162 34.9844 10.652V19.5892L34.0671 18.5867C31.3773 15.6467 26.9458 15.562 24.1457 18.3971C22.8119 19.7475 22.0234 21.6299 22.0234 23.4634V23.991L21.0614 23.9204C19.8499 23.8318 18.448 24.2216 17.3432 24.9542L16.5185 25.5011L15.8667 24.9271C15.5082 24.6114 14.8001 24.1401 14.2931 23.8796C10.2339 21.7939 5.37142 24.3081 4.59393 28.8942C4.44414 29.7784 4.33733 29.9992 3.92455 30.2783C2.98431 30.914 2.82812 31.4833 2.82812 34.2771C2.82812 36.6126 2.85404 36.8256 3.2012 37.3469C3.68125 38.0678 4.55652 38.6621 5.13812 38.6621C5.65196 38.6621 5.70069 38.766 5.86246 40.2042L5.97057 41.1651L3.74441 45.0504C1.28265 49.3472 0.942058 50.0949 0.685628 51.7677C-0.00179421 56.2515 3.24238 60.9557 7.60004 61.7937C8.13374 61.8963 8.57031 62.0584 8.57031 62.154C8.57031 62.2494 8.78769 64.0346 9.05331 66.1211C9.44673 69.212 9.61424 70.0758 9.95729 70.7855C10.6311 72.179 11.5531 73.108 12.9611 73.8123L14.2134 74.4385H39.2543H64.2953L65.0984 73.9361C65.5955 73.625 66.0906 73.1243 66.3981 72.6218L66.8945 71.8098L66.947 68.8077C67.0074 65.3538 66.8291 64.281 65.8545 62.2363C65.0196 60.4847 62.9501 58.374 61.2344 57.5245C59.2066 56.5202 58.5821 56.405 54.5078 56.2833C52.1289 56.2125 50.6932 56.1024 50.4697 55.9739C49.7377 55.5527 49.1187 54.6355 49.0148 53.818C48.9241 53.1035 48.7528 52.2443 48.5814 51.6432C48.545 51.5152 48.7635 51.3386 49.1126 51.2139C50.0264 50.8872 50.6907 50.3347 51.1747 49.4991C51.7603 48.4879 51.9107 46.3573 51.4774 45.2091C50.8596 43.5724 49.4914 42.651 47.6743 42.6481L46.665 42.6465L46.9022 41.8579C47.1391 41.0703 47.0868 39.8548 46.7805 39.0356C46.655 38.6996 46.6906 38.6621 47.1357 38.6621C47.882 38.6621 48.85 38.0842 49.2823 37.3806C49.6424 36.7944 49.668 36.5881 49.668 34.2627C49.668 31.4587 49.5177 30.9689 48.4286 30.2255L47.8633 29.8395L47.9202 28.627C48.0639 25.5625 46.6241 22.6569 44.1737 21.0656L43.3593 20.5369L43.3145 10.9923C43.271 1.76364 43.259 1.43991 42.9511 1.21214C42.6993 1.02587 41.8865 0.976562 39.064 0.976562C35.562 0.976562 35.4903 0.983535 35.2398 1.34562ZM41.3828 19.9023V36.8359H39.168H36.9531V19.9023V2.96875H39.168H41.3828V19.9023ZM31.0844 18.7724C32.2949 19.2994 33.4194 20.6449 33.8379 22.0675C34.1171 23.0161 34.2484 23.2378 34.5808 23.3221L34.9844 23.4247V26.5609V29.6973H20.698H6.41141L6.52314 29.1577C6.85011 27.5781 7.97296 26.1326 9.36618 25.4979C9.91529 25.2477 10.4506 25.1526 11.2773 25.1586C13.042 25.171 14.2119 25.8425 15.509 27.5869C16.1439 28.441 16.7037 28.4282 17.4064 27.5435C18.1471 26.6109 19.2019 26.0308 20.3418 25.9297C21.2548 25.8485 21.5824 25.9229 23.135 26.5634C23.5197 26.7219 23.7497 26.7357 23.9444 26.6114C24.5059 26.2529 24.552 25.9591 24.2506 24.664C24.0563 23.8291 23.9976 23.1737 24.0741 22.6951C24.6202 19.2806 27.9597 17.4121 31.0844 18.7724ZM45.3474 25.3304C45.8817 26.4264 46.1142 27.9893 45.9083 29.1003L45.7976 29.6973H44.5747H43.3516V26.2594V22.8216L44.0987 23.5617C44.5095 23.9687 45.0714 24.7646 45.3474 25.3304ZM34.9844 34.1805V36.6716L19.9316 36.6292L4.8789 36.5869L4.8328 34.3472C4.7926 32.3861 4.82197 32.0814 5.06921 31.8985C5.29136 31.7341 8.51732 31.6895 20.1681 31.6895H34.9844V34.1805ZM47.4531 32.0215C47.7417 32.3135 47.7813 32.5748 47.7813 34.1906C47.7813 35.201 47.7048 36.1722 47.6114 36.3488C47.4574 36.6399 47.2505 36.6699 45.3966 36.6699H43.3516V34.1797V31.6895H45.2383C46.9063 31.6895 47.1631 31.728 47.4531 32.0215ZM25.6328 38.7425C25.6328 38.7866 23.3002 42.9141 20.4491 47.9148C16.452 54.9257 15.0719 57.2082 14.4198 57.8869C13.4999 58.8441 11.9447 59.7205 10.9187 59.8598L10.2752 59.9471L9.01016 49.6781C8.31421 44.0302 7.74606 39.2412 7.74754 39.0356L7.75 38.6621H16.6914C21.6092 38.6621 25.6328 38.6983 25.6328 38.7425ZM31.6144 38.9526C31.2275 39.8596 31.1553 40.8143 31.405 41.7221L31.6593 42.6465H30.7568C29.5373 42.6465 28.7087 42.9234 27.9428 43.5866C26.9556 44.4416 26.6169 45.3085 26.6188 46.9738C26.6201 48.1038 26.6969 48.5404 27.0168 49.2356C27.4304 50.1346 28.4284 51.0303 29.2322 51.224C29.8792 51.3799 29.8953 51.4124 29.634 52.0453C29.4277 52.5445 29.3971 53.6893 29.4387 59.3048L29.4883 65.9717L29.9278 67.1894C30.5498 68.9121 31.2874 70.086 32.57 71.3942L33.6832 72.5293H24.4378C13.8096 72.5293 13.9883 72.5492 12.6784 71.2237C12.2456 70.7856 11.7877 70.1151 11.6386 69.7006C11.4089 69.0626 10.4455 62.0843 10.5745 61.9934C10.6001 61.9753 11.0434 61.8684 11.5597 61.7557C13.139 61.4107 14.4357 60.6444 15.7891 59.2562C16.9495 58.066 17.3316 57.4445 22.5068 48.3282L27.9942 38.6621H29.8661C31.587 38.6621 31.7282 38.6855 31.6144 38.9526ZM44.1579 39.0698C44.6203 39.3117 45.1563 40.2071 45.1563 40.7373C45.1563 41.2536 44.6646 42.0766 44.185 42.3633C43.7691 42.6118 43.156 42.6465 39.1755 42.6465C34.1911 42.6465 33.9101 42.598 33.4286 41.6559C32.9498 40.7192 33.2642 39.5608 34.1252 39.0879C34.7811 38.7279 43.4743 38.7121 44.1579 39.0698ZM7.33639 52.2211C7.83449 56.2546 8.24218 59.6365 8.24218 59.7365C8.24218 60.1917 6.03472 59.2265 4.97324 58.3071C4.11289 57.5618 3.29865 56.3081 2.94313 55.1807C2.16203 52.7039 2.44667 51.3333 4.49434 47.7128C6.11429 44.8485 6.32019 44.5258 6.38696 44.7449C6.41092 44.8234 6.83814 48.1878 7.33639 52.2211ZM48.771 44.8905C49.4293 45.235 49.75 45.9409 49.75 47.0459C49.75 47.5572 49.638 48.1946 49.5011 48.4625C48.9856 49.4712 49.1751 49.4531 39.168 49.4531C29.1608 49.4531 29.3503 49.4712 28.8348 48.4625C28.6855 48.1705 28.5859 47.5337 28.5859 46.8716C28.5859 45.8375 28.6212 45.7319 29.1437 45.2031L29.7016 44.6387H38.9957C46.9823 44.6387 48.3574 44.674 48.771 44.8905ZM35.3873 52.1303C35.0402 53.1257 35.0459 64.2865 35.3944 65.9717C35.7875 67.8726 36.8088 69.7502 38.2673 71.2528L39.5258 72.5496L38.8546 72.445C35.3414 71.8976 32.4992 69.3398 31.6349 65.9478C31.2582 64.4694 31.2483 53.1707 31.6232 52.4374C32.0106 51.6794 32.5851 51.4594 34.1979 51.452L35.626 51.4453L35.3873 52.1303ZM41.3078 51.7355C40.9261 52.7424 40.8647 54.0277 40.9351 59.5477C40.9983 64.5117 41.0567 65.6353 41.2945 66.4697C41.8758 68.5087 43.0436 70.4257 44.5261 71.7744C45.4389 72.6048 45.3928 72.6395 43.8607 72.2741C40.6506 71.5083 38.0309 68.8122 37.3531 65.5769C36.9992 63.887 37.0169 53.2866 37.3749 52.5231C37.7488 51.7259 38.4261 51.4536 40.0469 51.4491C41.2854 51.4456 41.4073 51.4734 41.3078 51.7355ZM45.8158 51.696C46.6907 52.1539 46.7085 52.2694 46.7969 58.0952L46.8789 63.5002L47.4968 64.7644C47.9217 65.634 48.3801 66.2702 48.9648 66.8021C50.9076 68.5698 51.6264 68.7043 59.1426 68.7081L65.0078 68.7109V69.8813C65.0078 70.6027 64.9123 71.2385 64.7589 71.5387C64.2585 72.5178 64.17 72.5293 57.1491 72.5293C53.144 72.5293 50.4253 72.4612 49.8811 72.3472C46.9227 71.7274 44.4547 69.5058 43.3706 66.4867L42.9473 65.3076L42.9444 59.165C42.9411 52.5038 42.9819 52.1582 43.8254 51.6943C44.3894 51.3841 45.2211 51.3849 45.8158 51.696ZM49.832 57.8407C50.3969 58.1148 51.0141 58.1734 54.2617 58.2612C57.2573 58.3423 58.2043 58.4238 58.8555 58.6565C60.0208 59.0729 61.4703 59.8744 61.9049 60.3426L62.276 60.7422H57.3517H52.4273L51.4234 60.2345C50.8712 59.9553 50.2284 59.4971 49.9948 59.2162C49.5346 58.6628 48.8196 57.3429 49.0403 57.4541C49.1148 57.4916 49.4711 57.6658 49.832 57.8407ZM50.8599 62.2051L51.8008 62.6514L57.896 62.7003L63.9913 62.7493L64.3268 63.6134C64.7611 64.7322 65.0057 65.6885 65.0068 66.2713L65.0078 66.7368L58.7324 66.6864L52.457 66.6357L51.5196 66.1699C49.7891 65.3099 48.7656 63.6755 48.7656 61.772V60.8689L49.3423 61.3138C49.6594 61.5587 50.3423 61.9597 50.8599 62.2051Z" fill="black"/>
</svg>
