<svg width="288" height="285" viewBox="0 0 288 285" fill="none" xmlns="http://www.w3.org/2000/svg">
<path d="M288 0H0V285H288V0Z" fill="#2CB4FF"/>
<g style="mix-blend-mode:multiply" opacity="0.47">
<g style="mix-blend-mode:multiply" opacity="0.47">
<path d="M215.836 95.023L265.276 81.9217C268.059 81.184 270.433 79.383 271.874 76.9148C273.315 74.4466 273.705 71.5135 272.959 68.7606C272.213 66.0077 270.392 63.6607 267.896 62.2357C265.4 60.8108 262.434 60.4247 259.651 61.1623L181.75 81.8035C180.372 82.1688 178.934 82.2619 177.519 82.0777C176.104 81.8935 174.74 81.4355 173.504 80.7299C172.268 80.0243 171.185 79.0849 170.317 77.9653C169.448 76.8457 168.811 75.5679 168.441 74.2048C167.696 71.4521 168.086 68.5192 169.527 66.0513C170.968 63.5833 173.341 61.7824 176.124 61.0446L211.584 51.6459C212.962 51.2808 214.255 50.6507 215.387 49.7917C216.519 48.9327 217.469 47.8615 218.183 46.6394C218.896 45.4172 219.36 44.068 219.546 42.6689C219.732 41.2697 219.638 39.8479 219.269 38.4848C218.523 35.7319 216.702 33.3848 214.206 31.9599C211.71 30.5349 208.744 30.1488 205.96 30.8865L25.8239 78.6174C24.4455 78.9826 23.1533 79.6127 22.0212 80.4717C20.8891 81.3307 19.9392 82.4018 19.2256 83.6239C18.5121 84.846 18.049 86.1951 17.8627 87.5942C17.6765 88.9933 17.7707 90.415 18.14 91.778C18.5091 93.1414 19.1462 94.4196 20.0148 95.5395C20.8835 96.6593 21.9667 97.599 23.2027 98.3048C24.4386 99.0106 25.803 99.4687 27.218 99.653C28.633 99.8373 30.0709 99.744 31.4495 99.3787L59.4973 91.9466C62.281 91.209 65.247 91.5953 67.7428 93.0203C70.2386 94.4453 72.0598 96.7924 72.8058 99.5453C73.1751 100.908 73.2693 102.33 73.0831 103.729C72.8968 105.128 72.4337 106.477 71.7201 107.699C71.0066 108.922 70.0567 109.993 68.9246 110.852C67.7924 111.711 66.5003 112.341 65.1219 112.706L17.1123 125.427C14.3286 126.165 11.9552 127.966 10.5143 130.434C9.07327 132.902 8.68271 135.836 9.42849 138.589C9.7978 139.952 10.435 141.23 11.3037 142.349C12.1723 143.469 13.2555 144.408 14.4913 145.114C15.7271 145.819 17.0914 146.277 18.5062 146.462C19.921 146.646 21.3586 146.553 22.737 146.187L52.6986 138.248C55.4823 137.51 58.4483 137.896 60.9441 139.321C63.4399 140.746 65.2611 143.094 66.0071 145.846C66.3764 147.21 66.4706 148.631 66.2843 150.03C66.0981 151.429 65.635 152.779 64.9214 154.001C64.2079 155.223 63.258 156.294 62.1258 157.153C60.9937 158.012 59.7016 158.642 58.3232 159.007L56.1973 159.571C54.8184 159.936 53.5258 160.566 52.3934 161.426C51.261 162.286 50.311 163.357 49.5976 164.58C48.8842 165.803 48.4214 167.153 48.2357 168.553C48.0501 169.952 48.1451 171.374 48.5154 172.738C48.8846 174.101 49.5218 175.379 50.3904 176.499C51.2591 177.618 52.3423 178.558 53.5781 179.263C54.8139 179.969 56.1782 180.427 57.593 180.611C59.0078 180.795 60.4455 180.702 61.8239 180.337L63.8399 179.803C65.2182 179.438 66.6558 179.345 68.0706 179.529C69.4853 179.713 70.8495 180.171 72.0853 180.877C73.3211 181.582 74.4042 182.522 75.2728 183.641C76.1415 184.761 76.7786 186.039 77.1479 187.402C77.5173 188.765 77.6116 190.187 77.4254 191.586C77.2392 192.985 76.7761 194.334 76.0626 195.556C75.3491 196.778 74.3992 197.849 73.2671 198.708C72.135 199.568 70.8429 200.198 69.4645 200.563L39.6133 208.473C36.8296 209.21 34.4563 211.011 33.0153 213.479C31.5744 215.948 31.184 218.881 31.9299 221.634C32.6759 224.387 34.4971 226.734 36.9929 228.159C39.4887 229.583 42.4547 229.97 45.2384 229.232L99.7842 214.778C101.163 214.413 102.6 214.32 104.015 214.504C105.43 214.688 106.794 215.146 108.03 215.852C109.266 216.557 110.349 217.497 111.217 218.616C112.086 219.736 112.723 221.014 113.093 222.377C113.462 223.74 113.556 225.162 113.37 226.561C113.184 227.96 112.721 229.31 112.007 230.532C111.293 231.754 110.343 232.825 109.211 233.684C108.079 234.543 106.786 235.173 105.408 235.539L96.6661 237.855C93.8825 238.592 91.5092 240.393 90.0683 242.862C88.6274 245.33 88.2369 248.263 88.9827 251.016C89.352 252.379 89.9892 253.657 90.8579 254.776C91.7266 255.896 92.8098 256.835 94.0456 257.541C95.2814 258.246 96.6457 258.704 98.0605 258.888C99.4753 259.072 100.913 258.979 102.291 258.614L241.179 221.811C243.963 221.073 246.336 219.272 247.777 216.804C249.218 214.336 249.609 211.403 248.863 208.65C248.493 207.287 247.856 206.009 246.987 204.89C246.119 203.77 245.036 202.831 243.8 202.125C242.564 201.419 241.2 200.961 239.785 200.777C238.37 200.593 236.932 200.686 235.554 201.051L231.468 202.134C228.685 202.872 225.719 202.486 223.223 201.061C220.728 199.637 218.906 197.29 218.16 194.538C217.791 193.175 217.697 191.753 217.883 190.354C218.069 188.954 218.533 187.605 219.246 186.383C219.96 185.161 220.91 184.09 222.042 183.231C223.174 182.372 224.467 181.742 225.845 181.377L252.711 174.257C254.09 173.892 255.382 173.261 256.514 172.402C257.646 171.543 258.596 170.472 259.309 169.25C260.023 168.028 260.486 166.679 260.672 165.28C260.859 163.881 260.764 162.459 260.395 161.096C260.026 159.733 259.389 158.455 258.52 157.335C257.651 156.216 256.568 155.276 255.332 154.571C254.096 153.865 252.732 153.407 251.317 153.223C249.903 153.039 248.465 153.132 247.087 153.497L208.992 163.59C207.613 163.955 206.176 164.049 204.761 163.864C203.346 163.68 201.982 163.222 200.746 162.517C199.51 161.811 198.427 160.872 197.559 159.752C196.69 158.632 196.053 157.355 195.683 155.991C194.938 153.239 195.329 150.306 196.77 147.839C198.211 145.371 200.584 143.57 203.368 142.833L230.341 135.685C231.72 135.32 233.012 134.69 234.144 133.831C235.276 132.972 236.226 131.901 236.939 130.679C237.653 129.456 238.116 128.107 238.302 126.708C238.488 125.309 238.394 123.887 238.025 122.524C237.656 121.161 237.019 119.882 236.151 118.762C235.282 117.642 234.199 116.702 232.963 115.996C231.727 115.29 230.363 114.832 228.948 114.647C227.533 114.463 226.095 114.556 224.716 114.921L221.461 115.784C218.678 116.521 215.712 116.135 213.216 114.71C210.72 113.285 208.899 110.938 208.153 108.186C207.783 106.822 207.689 105.401 207.875 104.001C208.061 102.602 208.524 101.253 209.237 100.031C209.951 98.8083 210.901 97.7369 212.033 96.8777C213.165 96.0185 214.457 95.3883 215.836 95.023Z" fill="#76D1FF"/>
</g>
<g style="mix-blend-mode:multiply" opacity="0.47">
<path d="M261.268 105.236L258.409 105.994C252.612 107.53 249.172 113.422 250.725 119.155L250.725 119.157C252.279 124.889 258.237 128.291 264.034 126.755L266.893 125.998C272.69 124.462 276.13 118.569 274.577 112.837L274.576 112.835C273.023 107.102 267.065 103.7 261.268 105.236Z" fill="#76D1FF"/>
</g>
</g>
<g style="mix-blend-mode:multiply" opacity="0.33">
<g style="mix-blend-mode:multiply" opacity="0.33">
<path d="M41.9783 193.345L45.682 188.11C45.7325 188.038 45.8096 187.99 45.8963 187.975C45.983 187.959 46.0722 187.979 46.1444 188.029L49.9246 190.644C49.9968 190.694 50.0459 190.77 50.0612 190.856C50.0766 190.942 50.0568 191.03 50.0063 191.102L46.3026 196.337C45.9379 196.852 45.381 197.203 44.7545 197.313C44.128 197.422 43.4832 197.281 42.9618 196.921L42.5687 196.649C42.0474 196.288 41.6923 195.737 41.5816 195.118C41.4709 194.498 41.6136 193.86 41.9783 193.345Z" fill="#4E4E4E"/>
<path d="M41.9783 193.345L45.682 188.11C45.7325 188.038 45.8096 187.99 45.8963 187.975C45.983 187.959 46.0722 187.979 46.1444 188.029L49.9246 190.644C49.9968 190.694 50.0459 190.77 50.0612 190.856C50.0766 190.942 50.0568 191.03 50.0063 191.102L46.3026 196.337C45.9379 196.852 45.381 197.203 44.7545 197.313C44.128 197.422 43.4832 197.281 42.9618 196.921L42.5687 196.649C42.0474 196.288 41.6923 195.737 41.5816 195.118C41.4709 194.498 41.6136 193.86 41.9783 193.345Z" stroke="#46505C" stroke-width="6.66667" stroke-linecap="round" stroke-linejoin="round"/>
</g>
<g style="mix-blend-mode:multiply" opacity="0.33">
<path d="M41.9783 193.345L45.682 188.11C45.7325 188.038 45.8096 187.99 45.8963 187.975C45.983 187.959 46.0722 187.979 46.1444 188.029L49.9246 190.644C49.9968 190.694 50.0459 190.77 50.0612 190.856C50.0766 190.942 50.0568 191.03 50.0063 191.102L46.3026 196.337C45.9379 196.852 45.381 197.203 44.7545 197.313C44.128 197.422 43.4832 197.281 42.9618 196.921L42.5687 196.649C42.0474 196.288 41.6923 195.737 41.5816 195.118C41.4709 194.498 41.6136 193.86 41.9783 193.345Z" fill="#4E4E4E"/>
<path d="M41.9783 193.345L45.682 188.11C45.7325 188.038 45.8096 187.99 45.8963 187.975C45.983 187.959 46.0722 187.979 46.1444 188.029L49.9246 190.644C49.9968 190.694 50.0459 190.77 50.0612 190.856C50.0766 190.942 50.0568 191.03 50.0063 191.102L46.3026 196.337C45.9379 196.852 45.381 197.203 44.7545 197.313C44.128 197.422 43.4832 197.281 42.9618 196.921L42.5687 196.649C42.0474 196.288 41.6923 195.737 41.5816 195.118C41.4709 194.498 41.6136 193.86 41.9783 193.345Z" stroke="#46505C" stroke-width="6.66667" stroke-linecap="round" stroke-linejoin="round"/>
</g>
<g style="mix-blend-mode:multiply" opacity="0.33">
<path d="M56.2002 193.433C64.8359 193.433 71.8366 186.509 71.8366 177.969C71.8366 169.429 64.8359 162.506 56.2002 162.506C47.5644 162.506 40.5637 169.429 40.5637 177.969C40.5637 186.509 47.5644 193.433 56.2002 193.433Z" fill="#4E4E4E"/>
<path d="M56.2002 193.433C64.8359 193.433 71.8366 186.509 71.8366 177.969C71.8366 169.429 64.8359 162.506 56.2002 162.506C47.5644 162.506 40.5637 169.429 40.5637 177.969C40.5637 186.509 47.5644 193.433 56.2002 193.433Z" stroke="#46505C" stroke-width="6.66667" stroke-linecap="round" stroke-linejoin="round"/>
</g>
<g style="mix-blend-mode:multiply" opacity="0.33">
<path d="M56.2002 193.433C64.8359 193.433 71.8366 186.509 71.8366 177.969C71.8366 169.429 64.8359 162.506 56.2002 162.506C47.5644 162.506 40.5637 169.429 40.5637 177.969C40.5637 186.509 47.5644 193.433 56.2002 193.433Z" fill="#4E4E4E"/>
<path d="M56.2002 193.433C64.8359 193.433 71.8366 186.509 71.8366 177.969C71.8366 169.429 64.8359 162.506 56.2002 162.506C47.5644 162.506 40.5637 169.429 40.5637 177.969C40.5637 186.509 47.5644 193.433 56.2002 193.433Z" stroke="#46505C" stroke-width="6.66667" stroke-linecap="round" stroke-linejoin="round"/>
</g>
<g style="mix-blend-mode:multiply" opacity="0.33">
<path d="M56.2003 190.005C62.9218 190.005 68.3707 184.616 68.3707 177.969C68.3707 171.322 62.9218 165.933 56.2003 165.933C49.4787 165.933 44.0299 171.322 44.0299 177.969C44.0299 184.616 49.4787 190.005 56.2003 190.005Z" fill="#4E4E4E"/>
<path d="M56.2003 190.005C62.9218 190.005 68.3707 184.616 68.3707 177.969C68.3707 171.322 62.9218 165.933 56.2003 165.933C49.4787 165.933 44.0299 171.322 44.0299 177.969C44.0299 184.616 49.4787 190.005 56.2003 190.005Z" stroke="#46505C" stroke-width="6.66667" stroke-linecap="round" stroke-linejoin="round"/>
</g>
<g style="mix-blend-mode:multiply" opacity="0.33">
<path d="M56.2003 190.005C62.9218 190.005 68.3707 184.616 68.3707 177.969C68.3707 171.322 62.9218 165.933 56.2003 165.933C49.4787 165.933 44.0299 171.322 44.0299 177.969C44.0299 184.616 49.4787 190.005 56.2003 190.005Z" fill="#4E4E4E"/>
<path d="M56.2003 190.005C62.9218 190.005 68.3707 184.616 68.3707 177.969C68.3707 171.322 62.9218 165.933 56.2003 165.933C49.4787 165.933 44.0299 171.322 44.0299 177.969C44.0299 184.616 49.4787 190.005 56.2003 190.005Z" stroke="#46505C" stroke-width="6.66667" stroke-linecap="round" stroke-linejoin="round"/>
</g>
<g style="mix-blend-mode:multiply" opacity="0.33">
<path d="M48.2444 175.471C48.4072 175.108 48.5833 174.753 48.7628 174.405C49.5788 172.823 50.5547 171.183 52.1123 170.215C53.4347 169.392 55.2841 169.069 56.7174 169.797C57.9606 170.429 58.7099 171.727 59.8441 172.535C60.6086 172.998 61.4029 173.411 62.222 173.771C63.049 174.14 63.7033 174.805 64.0523 175.633C64.4363 176.793 63.8032 178.031 63.7969 179.252C63.7948 179.925 63.9839 180.586 64.3427 181.158C64.5693 181.426 64.7149 181.752 64.7627 182.098C64.7282 182.319 64.6334 182.527 64.4883 182.7C64.3433 182.872 64.1536 183.002 63.9395 183.076C62.679 183.665 61.2068 183.452 59.8206 183.304C58.4344 183.156 56.8993 183.125 55.8035 183.977C55.3549 184.386 54.9394 184.829 54.5608 185.302C54.4009 185.54 54.1899 185.739 53.9431 185.886C53.6962 186.033 53.4195 186.124 53.1328 186.153C52.8461 186.182 52.5565 186.148 52.2848 186.053C52.013 185.958 51.7657 185.805 51.5608 185.605C50.5673 184.782 49.7054 183.815 49.0043 182.737C48.2674 181.826 47.7469 180.762 47.4812 179.625C47.2321 178.213 47.6473 176.799 48.2444 175.471Z" fill="#4E4E4E"/>
<path d="M48.2444 175.471C48.4072 175.108 48.5833 174.753 48.7628 174.405C49.5788 172.823 50.5547 171.183 52.1123 170.215C53.4347 169.392 55.2841 169.069 56.7174 169.797C57.9606 170.429 58.7099 171.727 59.8441 172.535C60.6086 172.998 61.4029 173.411 62.222 173.771C63.049 174.14 63.7033 174.805 64.0523 175.633C64.4363 176.793 63.8032 178.031 63.7969 179.252C63.7948 179.925 63.9839 180.586 64.3427 181.158C64.5693 181.426 64.7149 181.752 64.7627 182.098C64.7282 182.319 64.6334 182.527 64.4883 182.7C64.3433 182.872 64.1536 183.002 63.9395 183.076C62.679 183.665 61.2068 183.452 59.8206 183.304C58.4344 183.156 56.8993 183.125 55.8035 183.977C55.3549 184.386 54.9394 184.829 54.5608 185.302C54.4009 185.54 54.1899 185.739 53.9431 185.886C53.6962 186.033 53.4195 186.124 53.1328 186.153C52.8461 186.182 52.5565 186.148 52.2848 186.053C52.013 185.958 51.7657 185.805 51.5608 185.605C50.5673 184.782 49.7054 183.815 49.0043 182.737C48.2674 181.826 47.7469 180.762 47.4812 179.625C47.2321 178.213 47.6473 176.799 48.2444 175.471Z" stroke="#46505C" stroke-width="6.66667" stroke-linecap="round" stroke-linejoin="round"/>
</g>
<g style="mix-blend-mode:multiply" opacity="0.33">
<path d="M58.6616 187.081C59.0789 187.081 59.4171 186.746 59.4171 186.334C59.4171 185.921 59.0789 185.586 58.6616 185.586C58.2443 185.586 57.9061 185.921 57.9061 186.334C57.9061 186.746 58.2443 187.081 58.6616 187.081Z" fill="#4E4E4E"/>
<path d="M58.6616 187.081C59.0789 187.081 59.4171 186.746 59.4171 186.334C59.4171 185.921 59.0789 185.586 58.6616 185.586C58.2443 185.586 57.9061 185.921 57.9061 186.334C57.9061 186.746 58.2443 187.081 58.6616 187.081Z" stroke="#46505C" stroke-width="6.66667" stroke-linecap="round" stroke-linejoin="round"/>
</g>
<g style="mix-blend-mode:multiply" opacity="0.33">
<path d="M56.6951 187.127C56.984 187.127 57.2183 186.895 57.2183 186.609C57.2183 186.323 56.984 186.092 56.6951 186.092C56.4061 186.092 56.1719 186.323 56.1719 186.609C56.1719 186.895 56.4061 187.127 56.6951 187.127Z" fill="#4E4E4E"/>
<path d="M56.6951 187.127C56.984 187.127 57.2183 186.895 57.2183 186.609C57.2183 186.323 56.984 186.092 56.6951 186.092C56.4061 186.092 56.1719 186.323 56.1719 186.609C56.1719 186.895 56.4061 187.127 56.6951 187.127Z" stroke="#46505C" stroke-width="6.66667" stroke-linecap="round" stroke-linejoin="round"/>
</g>
<g style="mix-blend-mode:multiply" opacity="0.33">
<path d="M60.4469 186.107C60.7088 186.107 60.9211 185.897 60.9211 185.638C60.9211 185.379 60.7088 185.169 60.4469 185.169C60.185 185.169 59.9726 185.379 59.9726 185.638C59.9726 185.897 60.185 186.107 60.4469 186.107Z" fill="#4E4E4E"/>
<path d="M60.4469 186.107C60.7088 186.107 60.9211 185.897 60.9211 185.638C60.9211 185.379 60.7088 185.169 60.4469 185.169C60.185 185.169 59.9726 185.379 59.9726 185.638C59.9726 185.897 60.185 186.107 60.4469 186.107Z" stroke="#46505C" stroke-width="6.66667" stroke-linecap="round" stroke-linejoin="round"/>
</g>
<g style="mix-blend-mode:multiply" opacity="0.33">
<path d="M55.0401 187.139C55.2278 187.139 55.3799 186.989 55.3799 186.803C55.3799 186.618 55.2278 186.467 55.0401 186.467C54.8524 186.467 54.7002 186.618 54.7002 186.803C54.7002 186.989 54.8524 187.139 55.0401 187.139Z" fill="#4E4E4E"/>
<path d="M55.0401 187.139C55.2278 187.139 55.3799 186.989 55.3799 186.803C55.3799 186.618 55.2278 186.467 55.0401 186.467C54.8524 186.467 54.7002 186.618 54.7002 186.803C54.7002 186.989 54.8524 187.139 55.0401 187.139Z" stroke="#46505C" stroke-width="6.66667" stroke-linecap="round" stroke-linejoin="round"/>
</g>
<g style="mix-blend-mode:multiply" opacity="0.33">
<path d="M61.9449 185.348C62.0594 185.348 62.1522 185.257 62.1522 185.143C62.1522 185.03 62.0594 184.938 61.9449 184.938C61.8303 184.938 61.7375 185.03 61.7375 185.143C61.7375 185.257 61.8303 185.348 61.9449 185.348Z" fill="#4E4E4E"/>
<path d="M61.9449 185.348C62.0594 185.348 62.1522 185.257 62.1522 185.143C62.1522 185.03 62.0594 184.938 61.9449 184.938C61.8303 184.938 61.7375 185.03 61.7375 185.143C61.7375 185.257 61.8303 185.348 61.9449 185.348Z" stroke="#46505C" stroke-width="6.66667" stroke-linecap="round" stroke-linejoin="round"/>
</g>
<g style="mix-blend-mode:multiply" opacity="0.33">
<path d="M46.7563 175.607C47.0251 175.607 47.243 175.391 47.243 175.126C47.243 174.86 47.0251 174.644 46.7563 174.644C46.4874 174.644 46.2695 174.86 46.2695 175.126C46.2695 175.391 46.4874 175.607 46.7563 175.607Z" fill="#4E4E4E"/>
<path d="M46.7563 175.607C47.0251 175.607 47.243 175.391 47.243 175.126C47.243 174.86 47.0251 174.644 46.7563 174.644C46.4874 174.644 46.2695 174.86 46.2695 175.126C46.2695 175.391 46.4874 175.607 46.7563 175.607Z" stroke="#46505C" stroke-width="6.66667" stroke-linecap="round" stroke-linejoin="round"/>
</g>
<g style="mix-blend-mode:multiply" opacity="0.33">
<path d="M60.0066 169.978C60.2595 169.978 60.4645 169.775 60.4645 169.525C60.4645 169.275 60.2595 169.072 60.0066 169.072C59.7536 169.072 59.5486 169.275 59.5486 169.525C59.5486 169.775 59.7536 169.978 60.0066 169.978Z" fill="#4E4E4E"/>
<path d="M60.0066 169.978C60.2595 169.978 60.4645 169.775 60.4645 169.525C60.4645 169.275 60.2595 169.072 60.0066 169.072C59.7536 169.072 59.5486 169.275 59.5486 169.525C59.5486 169.775 59.7536 169.978 60.0066 169.978Z" stroke="#46505C" stroke-width="6.66667" stroke-linecap="round" stroke-linejoin="round"/>
</g>
<g style="mix-blend-mode:multiply" opacity="0.33">
<path d="M62.9829 172.166C63.2119 172.166 63.3976 171.983 63.3976 171.756C63.3976 171.53 63.2119 171.346 62.9829 171.346C62.7538 171.346 62.5682 171.53 62.5682 171.756C62.5682 171.983 62.7538 172.166 62.9829 172.166Z" fill="#4E4E4E"/>
<path d="M62.9829 172.166C63.2119 172.166 63.3976 171.983 63.3976 171.756C63.3976 171.53 63.2119 171.346 62.9829 171.346C62.7538 171.346 62.5682 171.53 62.5682 171.756C62.5682 171.983 62.7538 172.166 62.9829 172.166Z" stroke="#46505C" stroke-width="6.66667" stroke-linecap="round" stroke-linejoin="round"/>
</g>
<g style="mix-blend-mode:multiply" opacity="0.33">
<path d="M63.3234 173.098C63.4236 173.098 63.5049 173.017 63.5049 172.918C63.5049 172.819 63.4236 172.739 63.3234 172.739C63.2232 172.739 63.142 172.819 63.142 172.918C63.142 173.017 63.2232 173.098 63.3234 173.098Z" fill="#4E4E4E"/>
<path d="M63.3234 173.098C63.4236 173.098 63.5049 173.017 63.5049 172.918C63.5049 172.819 63.4236 172.739 63.3234 172.739C63.2232 172.739 63.142 172.819 63.142 172.918C63.142 173.017 63.2232 173.098 63.3234 173.098Z" stroke="#46505C" stroke-width="6.66667" stroke-linecap="round" stroke-linejoin="round"/>
</g>
</g>
<path d="M38.5804 189.532L42.2865 184.296C42.337 184.224 42.4141 184.176 42.5009 184.161C42.5877 184.145 42.6769 184.165 42.7491 184.215L46.5306 186.832C46.6027 186.882 46.6519 186.959 46.6672 187.044C46.6825 187.13 46.6627 187.218 46.6122 187.29L42.9061 192.526C42.5411 193.042 41.9839 193.393 41.3571 193.503C40.7302 193.612 40.0851 193.471 39.5637 193.11L39.1704 192.838C38.6489 192.477 38.2938 191.926 38.1832 191.306C38.0725 190.686 38.2154 190.048 38.5804 189.532Z" fill="white" stroke="#E6F3FF" stroke-width="3.33333" stroke-miterlimit="10"/>
<path opacity="0.18" d="M42.7489 184.216C42.6767 184.166 42.5874 184.147 42.5008 184.162C42.4141 184.177 42.3371 184.226 42.2866 184.297L40.6177 186.654C41.2576 187.257 41.9425 187.812 42.6668 188.313C43.3908 188.814 44.1517 189.26 44.9429 189.649L46.6119 187.291C46.637 187.256 46.6548 187.216 46.6642 187.174C46.6737 187.132 46.6747 187.088 46.6671 187.046C46.6595 187.003 46.6435 186.963 46.6201 186.926C46.5966 186.89 46.5661 186.859 46.5303 186.834L42.7489 184.216Z" fill="#4E4E4E" stroke="#46505C" stroke-width="6.66667" stroke-linecap="round" stroke-linejoin="round"/>
<path d="M38.5804 189.532L42.2865 184.296C42.337 184.224 42.4141 184.176 42.5009 184.161C42.5877 184.145 42.6769 184.165 42.7491 184.215L46.5306 186.832C46.6027 186.882 46.6519 186.959 46.6672 187.044C46.6825 187.13 46.6627 187.218 46.6122 187.29L42.9061 192.526C42.5411 193.042 41.9839 193.393 41.3571 193.503C40.7302 193.612 40.0851 193.471 39.5637 193.11L39.1704 192.838C38.6489 192.477 38.2938 191.926 38.1832 191.306C38.0725 190.686 38.2154 190.048 38.5804 189.532V189.532Z" stroke="#46505C" stroke-width="6.66667" stroke-linecap="round" stroke-linejoin="round"/>
<path d="M52.7339 189.552C61.3697 189.552 68.3704 182.629 68.3704 174.089C68.3704 165.548 61.3697 158.625 52.7339 158.625C44.0981 158.625 37.0974 165.548 37.0974 174.089C37.0974 182.629 44.0981 189.552 52.7339 189.552Z" fill="white" stroke="#E6F3FF" stroke-width="3.33333" stroke-miterlimit="10"/>
<path d="M52.7339 189.552C61.3697 189.552 68.3704 182.629 68.3704 174.089C68.3704 165.548 61.3697 158.625 52.7339 158.625C44.0981 158.625 37.0974 165.548 37.0974 174.089C37.0974 182.629 44.0981 189.552 52.7339 189.552Z" stroke="#46505C" stroke-width="6.66667" stroke-linecap="round" stroke-linejoin="round"/>
<path d="M52.7336 186.124C59.4551 186.124 64.904 180.735 64.904 174.088C64.904 167.441 59.4551 162.053 52.7336 162.053C46.0121 162.053 40.5632 167.441 40.5632 174.088C40.5632 180.735 46.0121 186.124 52.7336 186.124Z" fill="#845B5B"/>
<path d="M52.7336 186.124C59.4551 186.124 64.904 180.735 64.904 174.088C64.904 167.441 59.4551 162.053 52.7336 162.053C46.0121 162.053 40.5632 167.441 40.5632 174.088C40.5632 180.735 46.0121 186.124 52.7336 186.124Z" stroke="#46505C" stroke-width="3.33333" stroke-linecap="round" stroke-linejoin="round"/>
<g style="mix-blend-mode:multiply" opacity="0.33">
<path d="M44.7778 171.59C44.9405 171.228 45.1167 170.872 45.2962 170.524C46.1122 168.943 47.0885 167.303 48.6457 166.334C49.9685 165.511 51.8175 165.189 53.2508 165.917C54.494 166.548 55.2433 167.847 56.3775 168.654C57.1422 169.116 57.9367 169.529 58.7559 169.888C59.5823 170.256 60.2366 170.921 60.5861 171.748C60.9701 172.909 60.337 174.147 60.3303 175.367C60.3281 176.041 60.5172 176.701 60.8761 177.274C61.1028 177.542 61.2485 177.867 61.2965 178.213C61.2621 178.435 61.1673 178.643 61.0223 178.815C60.8773 178.988 60.6875 179.118 60.4733 179.192C59.2124 179.78 57.7402 179.568 56.354 179.419C54.9677 179.271 53.4332 179.24 52.3369 180.093C51.8884 180.502 51.4729 180.945 51.0941 181.418C50.9342 181.655 50.7233 181.854 50.4765 182.001C50.2296 182.148 49.953 182.239 49.6663 182.268C49.3796 182.297 49.09 182.263 48.8182 182.168C48.5464 182.074 48.2992 181.921 48.0941 181.721C47.1007 180.897 46.2389 179.931 45.5377 178.853C44.8014 177.942 44.2814 176.879 44.0161 175.743C43.7631 174.332 44.1812 172.919 44.7778 171.59Z" fill="#845B5B"/>
</g>
<g style="mix-blend-mode:multiply" opacity="0.33">
<path d="M55.1951 183.199C55.6124 183.199 55.9506 182.865 55.9506 182.452C55.9506 182.04 55.6124 181.705 55.1951 181.705C54.7779 181.705 54.4396 182.04 54.4396 182.452C54.4396 182.865 54.7779 183.199 55.1951 183.199Z" fill="#845B5B"/>
</g>
<g style="mix-blend-mode:multiply" opacity="0.33">
<path d="M53.2287 183.246C53.5177 183.246 53.7519 183.014 53.7519 182.728C53.7519 182.443 53.5177 182.211 53.2287 182.211C52.9398 182.211 52.7055 182.443 52.7055 182.728C52.7055 183.014 52.9398 183.246 53.2287 183.246Z" fill="#845B5B"/>
</g>
<g style="mix-blend-mode:multiply" opacity="0.33">
<path d="M56.9804 182.227C57.2423 182.227 57.4546 182.017 57.4546 181.758C57.4546 181.499 57.2423 181.289 56.9804 181.289C56.7185 181.289 56.5061 181.499 56.5061 181.758C56.5061 182.017 56.7185 182.227 56.9804 182.227Z" fill="#845B5B"/>
</g>
<g style="mix-blend-mode:multiply" opacity="0.33">
<path d="M51.5736 183.259C51.7612 183.259 51.9134 183.108 51.9134 182.923C51.9134 182.737 51.7612 182.587 51.5736 182.587C51.3859 182.587 51.2337 182.737 51.2337 182.923C51.2337 183.108 51.3859 183.259 51.5736 183.259Z" fill="#845B5B"/>
</g>
<g style="mix-blend-mode:multiply" opacity="0.33">
<path d="M58.4785 181.467C58.593 181.467 58.6858 181.375 58.6858 181.262C58.6858 181.149 58.593 181.057 58.4785 181.057C58.3639 181.057 58.2711 181.149 58.2711 181.262C58.2711 181.375 58.3639 181.467 58.4785 181.467Z" fill="#845B5B"/>
</g>
<g style="mix-blend-mode:multiply" opacity="0.33">
<path d="M43.2897 171.726C43.5585 171.726 43.7764 171.51 43.7764 171.245C43.7764 170.979 43.5585 170.763 43.2897 170.763C43.0209 170.763 42.803 170.979 42.803 171.245C42.803 171.51 43.0209 171.726 43.2897 171.726Z" fill="#845B5B"/>
</g>
<g style="mix-blend-mode:multiply" opacity="0.33">
<path d="M56.54 166.097C56.793 166.097 56.998 165.894 56.998 165.644C56.998 165.394 56.793 165.191 56.54 165.191C56.2871 165.191 56.0821 165.394 56.0821 165.644C56.0821 165.894 56.2871 166.097 56.54 166.097Z" fill="#845B5B"/>
</g>
<g style="mix-blend-mode:multiply" opacity="0.33">
<path d="M59.5166 168.285C59.7456 168.285 59.9313 168.101 59.9313 167.875C59.9313 167.648 59.7456 167.465 59.5166 167.465C59.2875 167.465 59.1019 167.648 59.1019 167.875C59.1019 168.101 59.2875 168.285 59.5166 168.285Z" fill="#845B5B"/>
</g>
<g style="mix-blend-mode:multiply" opacity="0.33">
<path d="M59.857 169.217C59.9572 169.217 60.0385 169.136 60.0385 169.037C60.0385 168.938 59.9572 168.857 59.857 168.857C59.7568 168.857 59.6756 168.938 59.6756 169.037C59.6756 169.136 59.7568 169.217 59.857 169.217Z" fill="#845B5B"/>
</g>
<path d="M53.8004 176.032C54.3306 176.032 54.7604 175.606 54.7604 175.082C54.7604 174.558 54.3306 174.133 53.8004 174.133C53.2702 174.133 52.8404 174.558 52.8404 175.082C52.8404 175.606 53.2702 176.032 53.8004 176.032Z" fill="#845B5B"/>
<path d="M50.6736 173.098C51.6014 173.098 52.3536 172.354 52.3536 171.436C52.3536 170.519 51.6014 169.775 50.6736 169.775C49.7457 169.775 48.9936 170.519 48.9936 171.436C48.9936 172.354 49.7457 173.098 50.6736 173.098Z" fill="#845B5B"/>
<g style="mix-blend-mode:multiply" opacity="0.33">
<g style="mix-blend-mode:multiply" opacity="0.33">
<path d="M203.496 124.294H92.1361C88.4247 124.294 85.4161 127.269 85.4161 130.939V139.236C85.4161 142.906 88.4247 145.881 92.1361 145.881H203.496C207.207 145.881 210.216 142.906 210.216 139.236V130.939C210.216 127.269 207.207 124.294 203.496 124.294Z" fill="#4E4E4E"/>
<path d="M203.496 124.294H92.1361C88.4247 124.294 85.4161 127.269 85.4161 130.939V139.236C85.4161 142.906 88.4247 145.881 92.1361 145.881H203.496C207.207 145.881 210.216 142.906 210.216 139.236V130.939C210.216 127.269 207.207 124.294 203.496 124.294Z" stroke="black" stroke-width="1.66667" stroke-linecap="round" stroke-linejoin="round"/>
</g>
<g style="mix-blend-mode:multiply" opacity="0.33">
<path d="M203.496 124.294H92.1361C88.4247 124.294 85.4161 127.269 85.4161 130.939V139.236C85.4161 142.906 88.4247 145.881 92.1361 145.881H203.496C207.207 145.881 210.216 142.906 210.216 139.236V130.939C210.216 127.269 207.207 124.294 203.496 124.294Z" fill="#4E4E4E"/>
</g>
<g style="mix-blend-mode:multiply" opacity="0.17">
<path d="M92.1366 124.294H203.497C205.279 124.294 206.988 124.994 208.248 126.24C209.509 127.486 210.217 129.177 210.217 130.939V140.641C210.217 141.717 209.784 142.749 209.015 143.51C208.245 144.271 207.201 144.699 206.113 144.699H89.5206C88.4323 144.699 87.3886 144.271 86.619 143.51C85.8494 142.749 85.4171 141.717 85.4171 140.641V130.939C85.4171 129.177 86.1251 127.486 87.3853 126.24C88.6456 124.994 90.3549 124.294 92.1371 124.294H92.1366Z" fill="#4E4E4E"/>
</g>
<g style="mix-blend-mode:multiply" opacity="0.33">
<path d="M203.496 124.294H92.1361C88.4247 124.294 85.4161 127.269 85.4161 130.939V139.236C85.4161 142.906 88.4247 145.881 92.1361 145.881H203.496C207.207 145.881 210.216 142.906 210.216 139.236V130.939C210.216 127.269 207.207 124.294 203.496 124.294Z" fill="#4E4E4E"/>
<path d="M203.496 124.294H92.1361C88.4247 124.294 85.4161 127.269 85.4161 130.939V139.236C85.4161 142.906 88.4247 145.881 92.1361 145.881H203.496C207.207 145.881 210.216 142.906 210.216 139.236V130.939C210.216 127.269 207.207 124.294 203.496 124.294Z" stroke="#46505C" stroke-width="6.66667" stroke-linecap="round" stroke-linejoin="round"/>
</g>
<g style="mix-blend-mode:multiply" opacity="0.33">
<path d="M201.576 143.312V126.726H94.056V143.312H201.576Z" fill="#4E4E4E"/>
</g>
<g style="mix-blend-mode:multiply" opacity="0.33">
<path d="M201.576 143.312V126.726H94.056V143.312H201.576Z" fill="#4E4E4E"/>
<path d="M201.576 143.312V126.726H94.056V143.312H201.576Z" stroke="#46505C" stroke-width="1.66667" stroke-linecap="round" stroke-linejoin="round"/>
</g>
<g style="mix-blend-mode:multiply" opacity="0.33">
<path d="M203.497 145.881H92.1366C88.4253 145.881 85.4166 148.856 85.4166 152.527V220.881C85.4166 224.551 88.4253 227.527 92.1366 227.527H203.497C207.208 227.527 210.217 224.551 210.217 220.881V152.527C210.217 148.856 207.208 145.881 203.497 145.881Z" fill="#4E4E4E"/>
</g>
<g style="mix-blend-mode:multiply" opacity="0.33">
<path d="M208.297 220.881V152.527C208.297 149.905 206.148 147.78 203.497 147.78H92.1367C89.4857 147.78 87.3367 149.905 87.3367 152.527V220.881C87.3367 223.503 89.4857 225.628 92.1367 225.628H203.497C206.148 225.628 208.297 223.503 208.297 220.881Z" fill="#4E4E4E"/>
<path d="M208.297 220.881V152.527C208.297 149.905 206.148 147.78 203.497 147.78H92.1367C89.4857 147.78 87.3367 149.905 87.3367 152.527V220.881C87.3367 223.503 89.4857 225.628 92.1367 225.628H203.497C206.148 225.628 208.297 223.503 208.297 220.881Z" stroke="#E6F3FF" stroke-width="3.33333" stroke-miterlimit="10"/>
</g>
<g style="mix-blend-mode:multiply" opacity="0.33">
<path d="M140.112 223.814H155.52C156.029 223.814 156.518 224.014 156.878 224.37C157.238 224.726 157.44 225.209 157.44 225.712V227.526H138.192V225.712C138.192 225.209 138.395 224.726 138.755 224.37C139.115 224.014 139.603 223.814 140.112 223.814Z" fill="#4E4E4E"/>
</g>
<g style="mix-blend-mode:multiply" opacity="0.33">
<path d="M203.497 145.881H92.1366C88.4253 145.881 85.4166 148.856 85.4166 152.527V220.881C85.4166 224.551 88.4253 227.527 92.1366 227.527H203.497C207.208 227.527 210.217 224.551 210.217 220.881V152.527C210.217 148.856 207.208 145.881 203.497 145.881Z" fill="#4E4E4E"/>
<path d="M203.497 145.881H92.1366C88.4253 145.881 85.4166 148.856 85.4166 152.527V220.881C85.4166 224.551 88.4253 227.527 92.1366 227.527H203.497C207.208 227.527 210.217 224.551 210.217 220.881V152.527C210.217 148.856 207.208 145.881 203.497 145.881Z" stroke="#46505C" stroke-width="6.66667" stroke-linecap="round" stroke-linejoin="round"/>
</g>
<g style="mix-blend-mode:multiply" opacity="0.33">
<path d="M201.576 152.252H94.0562C93.2609 152.252 92.6162 152.889 92.6162 153.676V194.499C92.6162 195.285 93.2609 195.923 94.0562 195.923H201.576C202.371 195.923 203.016 195.285 203.016 194.499V153.676C203.016 152.889 202.371 152.252 201.576 152.252Z" fill="#4E4E4E"/>
</g>
<g style="mix-blend-mode:multiply" opacity="0.33">
<path d="M113.777 185.242H108.017C107.752 185.242 107.537 185.455 107.537 185.717V191.413C107.537 191.675 107.752 191.888 108.017 191.888H113.777C114.042 191.888 114.257 191.675 114.257 191.413V185.717C114.257 185.455 114.042 185.242 113.777 185.242Z" fill="#4E4E4E"/>
<path d="M113.777 185.242H108.017C107.752 185.242 107.537 185.455 107.537 185.717V191.413C107.537 191.675 107.752 191.888 108.017 191.888H113.777C114.042 191.888 114.257 191.675 114.257 191.413V185.717C114.257 185.455 114.042 185.242 113.777 185.242Z" stroke="#626C84" stroke-width="1.66667" stroke-linecap="round" stroke-linejoin="round"/>
</g>
<g style="mix-blend-mode:multiply" opacity="0.33">
<path d="M103.39 185.242H97.6301C97.365 185.242 97.1501 185.455 97.1501 185.717V191.413C97.1501 191.675 97.365 191.888 97.6301 191.888H103.39C103.655 191.888 103.87 191.675 103.87 191.413V185.717C103.87 185.455 103.655 185.242 103.39 185.242Z" fill="#4E4E4E"/>
<path d="M103.39 185.242H97.6301C97.365 185.242 97.1501 185.455 97.1501 185.717V191.413C97.1501 191.675 97.365 191.888 97.6301 191.888H103.39C103.655 191.888 103.87 191.675 103.87 191.413V185.717C103.87 185.455 103.655 185.242 103.39 185.242Z" stroke="#626C84" stroke-width="1.66667" stroke-linecap="round" stroke-linejoin="round"/>
</g>
<g style="mix-blend-mode:multiply" opacity="0.33">
<path d="M165.709 185.242H118.403C118.138 185.242 117.923 185.455 117.923 185.717V191.413C117.923 191.675 118.138 191.888 118.403 191.888H165.709C165.974 191.888 166.189 191.675 166.189 191.413V185.717C166.189 185.455 165.974 185.242 165.709 185.242Z" fill="#4E4E4E"/>
<path d="M165.709 185.242H118.403C118.138 185.242 117.923 185.455 117.923 185.717V191.413C117.923 191.675 118.138 191.888 118.403 191.888H165.709C165.974 191.888 166.189 191.675 166.189 191.413V185.717C166.189 185.455 165.974 185.242 165.709 185.242Z" stroke="#626C84" stroke-width="1.66667" stroke-linecap="round" stroke-linejoin="round"/>
</g>
<g style="mix-blend-mode:multiply" opacity="0.33">
<path d="M176.096 185.242H170.336C170.071 185.242 169.856 185.455 169.856 185.717V191.413C169.856 191.675 170.071 191.888 170.336 191.888H176.096C176.361 191.888 176.576 191.675 176.576 191.413V185.717C176.576 185.455 176.361 185.242 176.096 185.242Z" fill="#4E4E4E"/>
<path d="M176.096 185.242H170.336C170.071 185.242 169.856 185.455 169.856 185.717V191.413C169.856 191.675 170.071 191.888 170.336 191.888H176.096C176.361 191.888 176.576 191.675 176.576 191.413V185.717C176.576 185.455 176.361 185.242 176.096 185.242Z" stroke="#626C84" stroke-width="1.66667" stroke-linecap="round" stroke-linejoin="round"/>
</g>
<g style="mix-blend-mode:multiply" opacity="0.33">
<path d="M191.283 188.98H187.443C187.178 188.98 186.963 189.193 186.963 189.455V191.413C186.963 191.675 187.178 191.888 187.443 191.888H191.283C191.548 191.888 191.763 191.675 191.763 191.413V189.455C191.763 189.193 191.548 188.98 191.283 188.98Z" fill="#4E4E4E"/>
<path d="M191.283 188.98H187.443C187.178 188.98 186.963 189.193 186.963 189.455V191.413C186.963 191.675 187.178 191.888 187.443 191.888H191.283C191.548 191.888 191.763 191.675 191.763 191.413V189.455C191.763 189.193 191.548 188.98 191.283 188.98Z" stroke="#626C84" stroke-width="1.66667" stroke-linecap="round" stroke-linejoin="round"/>
</g>
<g style="mix-blend-mode:multiply" opacity="0.33">
<path d="M191.283 185.242H187.443C187.178 185.242 186.963 185.455 186.963 185.717V187.675C186.963 187.937 187.178 188.15 187.443 188.15H191.283C191.548 188.15 191.763 187.937 191.763 187.675V185.717C191.763 185.455 191.548 185.242 191.283 185.242Z" fill="#4E4E4E"/>
<path d="M191.283 185.242H187.443C187.178 185.242 186.963 185.455 186.963 185.717V187.675C186.963 187.937 187.178 188.15 187.443 188.15H191.283C191.548 188.15 191.763 187.937 191.763 187.675V185.717C191.763 185.455 191.548 185.242 191.283 185.242Z" stroke="#626C84" stroke-width="1.66667" stroke-linecap="round" stroke-linejoin="round"/>
</g>
<g style="mix-blend-mode:multiply" opacity="0.33">
<path d="M198.003 188.98H194.163C193.898 188.98 193.683 189.193 193.683 189.455V191.413C193.683 191.675 193.898 191.888 194.163 191.888H198.003C198.268 191.888 198.483 191.675 198.483 191.413V189.455C198.483 189.193 198.268 188.98 198.003 188.98Z" fill="#4E4E4E"/>
<path d="M198.003 188.98H194.163C193.898 188.98 193.683 189.193 193.683 189.455V191.413C193.683 191.675 193.898 191.888 194.163 191.888H198.003C198.268 191.888 198.483 191.675 198.483 191.413V189.455C198.483 189.193 198.268 188.98 198.003 188.98Z" stroke="#626C84" stroke-width="1.66667" stroke-linecap="round" stroke-linejoin="round"/>
</g>
<g style="mix-blend-mode:multiply" opacity="0.33">
<path d="M184.563 188.98H180.723C180.458 188.98 180.243 189.193 180.243 189.455V191.413C180.243 191.675 180.458 191.888 180.723 191.888H184.563C184.828 191.888 185.043 191.675 185.043 191.413V189.455C185.043 189.193 184.828 188.98 184.563 188.98Z" fill="#4E4E4E"/>
<path d="M184.563 188.98H180.723C180.458 188.98 180.243 189.193 180.243 189.455V191.413C180.243 191.675 180.458 191.888 180.723 191.888H184.563C184.828 191.888 185.043 191.675 185.043 191.413V189.455C185.043 189.193 184.828 188.98 184.563 188.98Z" stroke="#626C84" stroke-width="1.66667" stroke-linecap="round" stroke-linejoin="round"/>
</g>
<g style="mix-blend-mode:multiply" opacity="0.33">
<path d="M112.817 175.786H97.6301C97.365 175.786 97.1501 175.999 97.1501 176.261V181.957C97.1501 182.219 97.365 182.432 97.6301 182.432H112.817C113.082 182.432 113.297 182.219 113.297 181.957V176.261C113.297 175.999 113.082 175.786 112.817 175.786Z" fill="#4E4E4E"/>
<path d="M112.817 175.786H97.6301C97.365 175.786 97.1501 175.999 97.1501 176.261V181.957C97.1501 182.219 97.365 182.432 97.6301 182.432H112.817C113.082 182.432 113.297 182.219 113.297 181.957V176.261C113.297 175.999 113.082 175.786 112.817 175.786Z" stroke="#626C84" stroke-width="1.66667" stroke-linecap="round" stroke-linejoin="round"/>
</g>
<g style="mix-blend-mode:multiply" opacity="0.33">
<path d="M123.29 175.786H117.53C117.265 175.786 117.05 175.999 117.05 176.261V181.957C117.05 182.219 117.265 182.432 117.53 182.432H123.29C123.555 182.432 123.77 182.219 123.77 181.957V176.261C123.77 175.999 123.555 175.786 123.29 175.786Z" fill="#4E4E4E"/>
<path d="M123.29 175.786H117.53C117.265 175.786 117.05 175.999 117.05 176.261V181.957C117.05 182.219 117.265 182.432 117.53 182.432H123.29C123.555 182.432 123.77 182.219 123.77 181.957V176.261C123.77 175.999 123.555 175.786 123.29 175.786Z" stroke="#626C84" stroke-width="1.66667" stroke-linecap="round" stroke-linejoin="round"/>
</g>
<g style="mix-blend-mode:multiply" opacity="0.33">
<path d="M133.677 175.786H127.917C127.652 175.786 127.437 175.999 127.437 176.261V181.957C127.437 182.219 127.652 182.432 127.917 182.432H133.677C133.942 182.432 134.157 182.219 134.157 181.957V176.261C134.157 175.999 133.942 175.786 133.677 175.786Z" fill="#4E4E4E"/>
<path d="M133.677 175.786H127.917C127.652 175.786 127.437 175.999 127.437 176.261V181.957C127.437 182.219 127.652 182.432 127.917 182.432H133.677C133.942 182.432 134.157 182.219 134.157 181.957V176.261C134.157 175.999 133.942 175.786 133.677 175.786Z" stroke="#626C84" stroke-width="1.66667" stroke-linecap="round" stroke-linejoin="round"/>
</g>
<g style="mix-blend-mode:multiply" opacity="0.33">
<path d="M144.063 175.786H138.303C138.038 175.786 137.823 175.999 137.823 176.261V181.957C137.823 182.219 138.038 182.432 138.303 182.432H144.063C144.328 182.432 144.543 182.219 144.543 181.957V176.261C144.543 175.999 144.328 175.786 144.063 175.786Z" fill="#4E4E4E"/>
<path d="M144.063 175.786H138.303C138.038 175.786 137.823 175.999 137.823 176.261V181.957C137.823 182.219 138.038 182.432 138.303 182.432H144.063C144.328 182.432 144.543 182.219 144.543 181.957V176.261C144.543 175.999 144.328 175.786 144.063 175.786Z" stroke="#626C84" stroke-width="1.66667" stroke-linecap="round" stroke-linejoin="round"/>
</g>
<g style="mix-blend-mode:multiply" opacity="0.33">
<path d="M154.45 175.786H148.69C148.425 175.786 148.21 175.999 148.21 176.261V181.957C148.21 182.219 148.425 182.432 148.69 182.432H154.45C154.715 182.432 154.93 182.219 154.93 181.957V176.261C154.93 175.999 154.715 175.786 154.45 175.786Z" fill="#4E4E4E"/>
<path d="M154.45 175.786H148.69C148.425 175.786 148.21 175.999 148.21 176.261V181.957C148.21 182.219 148.425 182.432 148.69 182.432H154.45C154.715 182.432 154.93 182.219 154.93 181.957V176.261C154.93 175.999 154.715 175.786 154.45 175.786Z" stroke="#626C84" stroke-width="1.66667" stroke-linecap="round" stroke-linejoin="round"/>
</g>
<g style="mix-blend-mode:multiply" opacity="0.33">
<path d="M164.836 175.786H159.076C158.811 175.786 158.596 175.999 158.596 176.261V181.957C158.596 182.219 158.811 182.432 159.076 182.432H164.836C165.101 182.432 165.316 182.219 165.316 181.957V176.261C165.316 175.999 165.101 175.786 164.836 175.786Z" fill="#4E4E4E"/>
<path d="M164.836 175.786H159.076C158.811 175.786 158.596 175.999 158.596 176.261V181.957C158.596 182.219 158.811 182.432 159.076 182.432H164.836C165.101 182.432 165.316 182.219 165.316 181.957V176.261C165.316 175.999 165.101 175.786 164.836 175.786Z" stroke="#626C84" stroke-width="1.66667" stroke-linecap="round" stroke-linejoin="round"/>
</g>
<g style="mix-blend-mode:multiply" opacity="0.33">
<path d="M175.223 175.786H169.463C169.198 175.786 168.983 175.999 168.983 176.261V181.957C168.983 182.219 169.198 182.432 169.463 182.432H175.223C175.488 182.432 175.703 182.219 175.703 181.957V176.261C175.703 175.999 175.488 175.786 175.223 175.786Z" fill="#4E4E4E"/>
<path d="M175.223 175.786H169.463C169.198 175.786 168.983 175.999 168.983 176.261V181.957C168.983 182.219 169.198 182.432 169.463 182.432H175.223C175.488 182.432 175.703 182.219 175.703 181.957V176.261C175.703 175.999 175.488 175.786 175.223 175.786Z" stroke="#626C84" stroke-width="1.66667" stroke-linecap="round" stroke-linejoin="round"/>
</g>
<g style="mix-blend-mode:multiply" opacity="0.33">
<path d="M198.003 175.786H180.723C180.458 175.786 180.243 175.999 180.243 176.261V181.957C180.243 182.219 180.458 182.432 180.723 182.432H198.003C198.268 182.432 198.483 182.219 198.483 181.957V176.261C198.483 175.999 198.268 175.786 198.003 175.786Z" fill="#4E4E4E"/>
<path d="M198.003 175.786H180.723C180.458 175.786 180.243 175.999 180.243 176.261V181.957C180.243 182.219 180.458 182.432 180.723 182.432H198.003C198.268 182.432 198.483 182.219 198.483 181.957V176.261C198.483 175.999 198.268 175.786 198.003 175.786Z" stroke="#626C84" stroke-width="1.66667" stroke-linecap="round" stroke-linejoin="round"/>
</g>
<g style="mix-blend-mode:multiply" opacity="0.33">
<path d="M119.537 166.065H113.777C113.512 166.065 113.297 166.277 113.297 166.54V172.236C113.297 172.498 113.512 172.711 113.777 172.711H119.537C119.802 172.711 120.017 172.498 120.017 172.236V166.54C120.017 166.277 119.802 166.065 119.537 166.065Z" fill="#4E4E4E"/>
<path d="M119.537 166.065H113.777C113.512 166.065 113.297 166.277 113.297 166.54V172.236C113.297 172.498 113.512 172.711 113.777 172.711H119.537C119.802 172.711 120.017 172.498 120.017 172.236V166.54C120.017 166.277 119.802 166.065 119.537 166.065Z" stroke="#626C84" stroke-width="1.66667" stroke-linecap="round" stroke-linejoin="round"/>
</g>
<g style="mix-blend-mode:multiply" opacity="0.33">
<path d="M109.15 166.065H97.6301C97.365 166.065 97.1501 166.277 97.1501 166.54V172.236C97.1501 172.498 97.365 172.711 97.6301 172.711H109.15C109.415 172.711 109.63 172.498 109.63 172.236V166.54C109.63 166.277 109.415 166.065 109.15 166.065Z" fill="#4E4E4E"/>
<path d="M109.15 166.065H97.6301C97.365 166.065 97.1501 166.277 97.1501 166.54V172.236C97.1501 172.498 97.365 172.711 97.6301 172.711H109.15C109.415 172.711 109.63 172.498 109.63 172.236V166.54C109.63 166.277 109.415 166.065 109.15 166.065Z" stroke="#626C84" stroke-width="1.66667" stroke-linecap="round" stroke-linejoin="round"/>
</g>
<g style="mix-blend-mode:multiply" opacity="0.33">
<path d="M129.923 166.065H124.163C123.898 166.065 123.683 166.277 123.683 166.54V172.236C123.683 172.498 123.898 172.711 124.163 172.711H129.923C130.188 172.711 130.403 172.498 130.403 172.236V166.54C130.403 166.277 130.188 166.065 129.923 166.065Z" fill="#4E4E4E"/>
<path d="M129.923 166.065H124.163C123.898 166.065 123.683 166.277 123.683 166.54V172.236C123.683 172.498 123.898 172.711 124.163 172.711H129.923C130.188 172.711 130.403 172.498 130.403 172.236V166.54C130.403 166.277 130.188 166.065 129.923 166.065Z" stroke="#626C84" stroke-width="1.66667" stroke-linecap="round" stroke-linejoin="round"/>
</g>
<g style="mix-blend-mode:multiply" opacity="0.33">
<path d="M140.31 166.065H134.55C134.285 166.065 134.07 166.277 134.07 166.54V172.236C134.07 172.498 134.285 172.711 134.55 172.711H140.31C140.575 172.711 140.79 172.498 140.79 172.236V166.54C140.79 166.277 140.575 166.065 140.31 166.065Z" fill="#4E4E4E"/>
<path d="M140.31 166.065H134.55C134.285 166.065 134.07 166.277 134.07 166.54V172.236C134.07 172.498 134.285 172.711 134.55 172.711H140.31C140.575 172.711 140.79 172.498 140.79 172.236V166.54C140.79 166.277 140.575 166.065 140.31 166.065Z" stroke="#626C84" stroke-width="1.66667" stroke-linecap="round" stroke-linejoin="round"/>
</g>
<g style="mix-blend-mode:multiply" opacity="0.33">
<path d="M150.696 166.065H144.936C144.671 166.065 144.456 166.277 144.456 166.54V172.236C144.456 172.498 144.671 172.711 144.936 172.711H150.696C150.961 172.711 151.176 172.498 151.176 172.236V166.54C151.176 166.277 150.961 166.065 150.696 166.065Z" fill="#4E4E4E"/>
<path d="M150.696 166.065H144.936C144.671 166.065 144.456 166.277 144.456 166.54V172.236C144.456 172.498 144.671 172.711 144.936 172.711H150.696C150.961 172.711 151.176 172.498 151.176 172.236V166.54C151.176 166.277 150.961 166.065 150.696 166.065Z" stroke="#626C84" stroke-width="1.66667" stroke-linecap="round" stroke-linejoin="round"/>
</g>
<g style="mix-blend-mode:multiply" opacity="0.33">
<path d="M161.083 166.065H155.323C155.058 166.065 154.843 166.277 154.843 166.54V172.236C154.843 172.498 155.058 172.711 155.323 172.711H161.083C161.348 172.711 161.563 172.498 161.563 172.236V166.54C161.563 166.277 161.348 166.065 161.083 166.065Z" fill="#4E4E4E"/>
<path d="M161.083 166.065H155.323C155.058 166.065 154.843 166.277 154.843 166.54V172.236C154.843 172.498 155.058 172.711 155.323 172.711H161.083C161.348 172.711 161.563 172.498 161.563 172.236V166.54C161.563 166.277 161.348 166.065 161.083 166.065Z" stroke="#626C84" stroke-width="1.66667" stroke-linecap="round" stroke-linejoin="round"/>
</g>
<g style="mix-blend-mode:multiply" opacity="0.33">
<path d="M171.469 166.065H165.709C165.444 166.065 165.229 166.277 165.229 166.54V172.236C165.229 172.498 165.444 172.711 165.709 172.711H171.469C171.735 172.711 171.949 172.498 171.949 172.236V166.54C171.949 166.277 171.735 166.065 171.469 166.065Z" fill="#4E4E4E"/>
<path d="M171.469 166.065H165.709C165.444 166.065 165.229 166.277 165.229 166.54V172.236C165.229 172.498 165.444 172.711 165.709 172.711H171.469C171.735 172.711 171.949 172.498 171.949 172.236V166.54C171.949 166.277 171.735 166.065 171.469 166.065Z" stroke="#626C84" stroke-width="1.66667" stroke-linecap="round" stroke-linejoin="round"/>
</g>
<g style="mix-blend-mode:multiply" opacity="0.33">
<path d="M181.856 166.065H176.096C175.831 166.065 175.616 166.277 175.616 166.54V172.236C175.616 172.498 175.831 172.711 176.096 172.711H181.856C182.121 172.711 182.336 172.498 182.336 172.236V166.54C182.336 166.277 182.121 166.065 181.856 166.065Z" fill="#4E4E4E"/>
<path d="M181.856 166.065H176.096C175.831 166.065 175.616 166.277 175.616 166.54V172.236C175.616 172.498 175.831 172.711 176.096 172.711H181.856C182.121 172.711 182.336 172.498 182.336 172.236V166.54C182.336 166.277 182.121 166.065 181.856 166.065Z" stroke="#626C84" stroke-width="1.66667" stroke-linecap="round" stroke-linejoin="round"/>
</g>
<g style="mix-blend-mode:multiply" opacity="0.33">
<path d="M198.003 166.065H186.483C186.218 166.065 186.003 166.277 186.003 166.54V172.236C186.003 172.498 186.218 172.711 186.483 172.711H198.003C198.268 172.711 198.483 172.498 198.483 172.236V166.54C198.483 166.277 198.268 166.065 198.003 166.065Z" fill="#4E4E4E"/>
<path d="M198.003 166.065H186.483C186.218 166.065 186.003 166.277 186.003 166.54V172.236C186.003 172.498 186.218 172.711 186.483 172.711H198.003C198.268 172.711 198.483 172.498 198.483 172.236V166.54C198.483 166.277 198.268 166.065 198.003 166.065Z" stroke="#626C84" stroke-width="1.66667" stroke-linecap="round" stroke-linejoin="round"/>
</g>
<g style="mix-blend-mode:multiply" opacity="0.33">
<path d="M113.903 156.761H108.143C107.878 156.761 107.663 156.974 107.663 157.236V162.932C107.663 163.195 107.878 163.407 108.143 163.407H113.903C114.168 163.407 114.383 163.195 114.383 162.932V157.236C114.383 156.974 114.168 156.761 113.903 156.761Z" fill="#4E4E4E"/>
<path d="M113.903 156.761H108.143C107.878 156.761 107.663 156.974 107.663 157.236V162.932C107.663 163.195 107.878 163.407 108.143 163.407H113.903C114.168 163.407 114.383 163.195 114.383 162.932V157.236C114.383 156.974 114.168 156.761 113.903 156.761Z" stroke="#626C84" stroke-width="1.66667" stroke-linecap="round" stroke-linejoin="round"/>
</g>
<g style="mix-blend-mode:multiply" opacity="0.33">
<path d="M103.39 156.761H97.6301C97.365 156.761 97.1501 156.974 97.1501 157.236V162.932C97.1501 163.195 97.365 163.407 97.6301 163.407H103.39C103.655 163.407 103.87 163.195 103.87 162.932V157.236C103.87 156.974 103.655 156.761 103.39 156.761Z" fill="#4E4E4E"/>
<path d="M103.39 156.761H97.6301C97.365 156.761 97.1501 156.974 97.1501 157.236V162.932C97.1501 163.195 97.365 163.407 97.6301 163.407H103.39C103.655 163.407 103.87 163.195 103.87 162.932V157.236C103.87 156.974 103.655 156.761 103.39 156.761Z" stroke="#626C84" stroke-width="1.66667" stroke-linecap="round" stroke-linejoin="round"/>
</g>
<g style="mix-blend-mode:multiply" opacity="0.33">
<path d="M124.415 156.761H118.655C118.39 156.761 118.175 156.974 118.175 157.236V162.932C118.175 163.195 118.39 163.407 118.655 163.407H124.415C124.68 163.407 124.895 163.195 124.895 162.932V157.236C124.895 156.974 124.68 156.761 124.415 156.761Z" fill="#4E4E4E"/>
<path d="M124.415 156.761H118.655C118.39 156.761 118.175 156.974 118.175 157.236V162.932C118.175 163.195 118.39 163.407 118.655 163.407H124.415C124.68 163.407 124.895 163.195 124.895 162.932V157.236C124.895 156.974 124.68 156.761 124.415 156.761Z" stroke="#626C84" stroke-width="1.66667" stroke-linecap="round" stroke-linejoin="round"/>
</g>
<g style="mix-blend-mode:multiply" opacity="0.33">
<path d="M134.928 156.761H129.168C128.903 156.761 128.688 156.974 128.688 157.236V162.932C128.688 163.195 128.903 163.407 129.168 163.407H134.928C135.193 163.407 135.408 163.195 135.408 162.932V157.236C135.408 156.974 135.193 156.761 134.928 156.761Z" fill="#4E4E4E"/>
<path d="M134.928 156.761H129.168C128.903 156.761 128.688 156.974 128.688 157.236V162.932C128.688 163.195 128.903 163.407 129.168 163.407H134.928C135.193 163.407 135.408 163.195 135.408 162.932V157.236C135.408 156.974 135.193 156.761 134.928 156.761Z" stroke="#626C84" stroke-width="1.66667" stroke-linecap="round" stroke-linejoin="round"/>
</g>
<g style="mix-blend-mode:multiply" opacity="0.33">
<path d="M145.44 156.761H139.68C139.415 156.761 139.2 156.974 139.2 157.236V162.932C139.2 163.195 139.415 163.407 139.68 163.407H145.44C145.705 163.407 145.92 163.195 145.92 162.932V157.236C145.92 156.974 145.705 156.761 145.44 156.761Z" fill="#4E4E4E"/>
<path d="M145.44 156.761H139.68C139.415 156.761 139.2 156.974 139.2 157.236V162.932C139.2 163.195 139.415 163.407 139.68 163.407H145.44C145.705 163.407 145.92 163.195 145.92 162.932V157.236C145.92 156.974 145.705 156.761 145.44 156.761Z" stroke="#626C84" stroke-width="1.66667" stroke-linecap="round" stroke-linejoin="round"/>
</g>
<g style="mix-blend-mode:multiply" opacity="0.33">
<path d="M155.953 156.761H150.193C149.928 156.761 149.713 156.974 149.713 157.236V162.932C149.713 163.195 149.928 163.407 150.193 163.407H155.953C156.218 163.407 156.433 163.195 156.433 162.932V157.236C156.433 156.974 156.218 156.761 155.953 156.761Z" fill="#4E4E4E"/>
<path d="M155.953 156.761H150.193C149.928 156.761 149.713 156.974 149.713 157.236V162.932C149.713 163.195 149.928 163.407 150.193 163.407H155.953C156.218 163.407 156.433 163.195 156.433 162.932V157.236C156.433 156.974 156.218 156.761 155.953 156.761Z" stroke="#626C84" stroke-width="1.66667" stroke-linecap="round" stroke-linejoin="round"/>
</g>
<g style="mix-blend-mode:multiply" opacity="0.33">
<path d="M166.465 156.761H160.705C160.44 156.761 160.225 156.974 160.225 157.236V162.932C160.225 163.195 160.44 163.407 160.705 163.407H166.465C166.73 163.407 166.945 163.195 166.945 162.932V157.236C166.945 156.974 166.73 156.761 166.465 156.761Z" fill="#4E4E4E"/>
<path d="M166.465 156.761H160.705C160.44 156.761 160.225 156.974 160.225 157.236V162.932C160.225 163.195 160.44 163.407 160.705 163.407H166.465C166.73 163.407 166.945 163.195 166.945 162.932V157.236C166.945 156.974 166.73 156.761 166.465 156.761Z" stroke="#626C84" stroke-width="1.66667" stroke-linecap="round" stroke-linejoin="round"/>
</g>
<g style="mix-blend-mode:multiply" opacity="0.33">
<path d="M176.978 156.761H171.218C170.952 156.761 170.738 156.974 170.738 157.236V162.932C170.738 163.195 170.952 163.407 171.218 163.407H176.978C177.243 163.407 177.458 163.195 177.458 162.932V157.236C177.458 156.974 177.243 156.761 176.978 156.761Z" fill="#4E4E4E"/>
<path d="M176.978 156.761H171.218C170.952 156.761 170.738 156.974 170.738 157.236V162.932C170.738 163.195 170.952 163.407 171.218 163.407H176.978C177.243 163.407 177.458 163.195 177.458 162.932V157.236C177.458 156.974 177.243 156.761 176.978 156.761Z" stroke="#626C84" stroke-width="1.66667" stroke-linecap="round" stroke-linejoin="round"/>
</g>
<g style="mix-blend-mode:multiply" opacity="0.33">
<path d="M187.49 156.761H181.73C181.465 156.761 181.25 156.974 181.25 157.236V162.932C181.25 163.195 181.465 163.407 181.73 163.407H187.49C187.755 163.407 187.97 163.195 187.97 162.932V157.236C187.97 156.974 187.755 156.761 187.49 156.761Z" fill="#4E4E4E"/>
<path d="M187.49 156.761H181.73C181.465 156.761 181.25 156.974 181.25 157.236V162.932C181.25 163.195 181.465 163.407 181.73 163.407H187.49C187.755 163.407 187.97 163.195 187.97 162.932V157.236C187.97 156.974 187.755 156.761 187.49 156.761Z" stroke="#626C84" stroke-width="1.66667" stroke-linecap="round" stroke-linejoin="round"/>
</g>
<g style="mix-blend-mode:multiply" opacity="0.33">
<path d="M198.003 156.761H192.243C191.977 156.761 191.763 156.974 191.763 157.236V162.932C191.763 163.195 191.977 163.407 192.243 163.407H198.003C198.268 163.407 198.483 163.195 198.483 162.932V157.236C198.483 156.974 198.268 156.761 198.003 156.761Z" fill="#4E4E4E"/>
<path d="M198.003 156.761H192.243C191.977 156.761 191.763 156.974 191.763 157.236V162.932C191.763 163.195 191.977 163.407 192.243 163.407H198.003C198.268 163.407 198.483 163.195 198.483 162.932V157.236C198.483 156.974 198.268 156.761 198.003 156.761Z" stroke="#626C84" stroke-width="1.66667" stroke-linecap="round" stroke-linejoin="round"/>
</g>
<g style="mix-blend-mode:multiply" opacity="0.33">
<path d="M113.777 185.242H108.017C107.752 185.242 107.537 185.455 107.537 185.717V191.413C107.537 191.675 107.752 191.888 108.017 191.888H113.777C114.042 191.888 114.257 191.675 114.257 191.413V185.717C114.257 185.455 114.042 185.242 113.777 185.242Z" fill="#4E4E4E"/>
</g>
<g style="mix-blend-mode:multiply" opacity="0.33">
<path d="M103.39 185.242H97.6301C97.365 185.242 97.1501 185.455 97.1501 185.717V191.413C97.1501 191.675 97.365 191.888 97.6301 191.888H103.39C103.655 191.888 103.87 191.675 103.87 191.413V185.717C103.87 185.455 103.655 185.242 103.39 185.242Z" fill="#4E4E4E"/>
</g>
<g style="mix-blend-mode:multiply" opacity="0.33">
<path d="M165.709 185.242H118.403C118.138 185.242 117.923 185.455 117.923 185.717V191.413C117.923 191.675 118.138 191.888 118.403 191.888H165.709C165.974 191.888 166.189 191.675 166.189 191.413V185.717C166.189 185.455 165.974 185.242 165.709 185.242Z" fill="#4E4E4E"/>
</g>
<g style="mix-blend-mode:multiply" opacity="0.33">
<path d="M176.096 185.242H170.336C170.071 185.242 169.856 185.455 169.856 185.717V191.413C169.856 191.675 170.071 191.888 170.336 191.888H176.096C176.361 191.888 176.576 191.675 176.576 191.413V185.717C176.576 185.455 176.361 185.242 176.096 185.242Z" fill="#4E4E4E"/>
</g>
<g style="mix-blend-mode:multiply" opacity="0.33">
<path d="M191.283 188.98H187.443C187.178 188.98 186.963 189.193 186.963 189.455V191.413C186.963 191.675 187.178 191.888 187.443 191.888H191.283C191.548 191.888 191.763 191.675 191.763 191.413V189.455C191.763 189.193 191.548 188.98 191.283 188.98Z" fill="#4E4E4E"/>
</g>
<g style="mix-blend-mode:multiply" opacity="0.33">
<path d="M191.283 185.242H187.443C187.178 185.242 186.963 185.455 186.963 185.717V187.675C186.963 187.937 187.178 188.15 187.443 188.15H191.283C191.548 188.15 191.763 187.937 191.763 187.675V185.717C191.763 185.455 191.548 185.242 191.283 185.242Z" fill="#4E4E4E"/>
</g>
<g style="mix-blend-mode:multiply" opacity="0.33">
<path d="M198.003 188.98H194.163C193.898 188.98 193.683 189.193 193.683 189.455V191.413C193.683 191.675 193.898 191.888 194.163 191.888H198.003C198.268 191.888 198.483 191.675 198.483 191.413V189.455C198.483 189.193 198.268 188.98 198.003 188.98Z" fill="#4E4E4E"/>
</g>
<g style="mix-blend-mode:multiply" opacity="0.33">
<path d="M184.563 188.98H180.723C180.458 188.98 180.243 189.193 180.243 189.455V191.413C180.243 191.675 180.458 191.888 180.723 191.888H184.563C184.828 191.888 185.043 191.675 185.043 191.413V189.455C185.043 189.193 184.828 188.98 184.563 188.98Z" fill="#4E4E4E"/>
</g>
<g style="mix-blend-mode:multiply" opacity="0.33">
<path d="M112.817 175.786H97.6301C97.365 175.786 97.1501 175.999 97.1501 176.261V181.957C97.1501 182.219 97.365 182.432 97.6301 182.432H112.817C113.082 182.432 113.297 182.219 113.297 181.957V176.261C113.297 175.999 113.082 175.786 112.817 175.786Z" fill="#4E4E4E"/>
</g>
<g style="mix-blend-mode:multiply" opacity="0.33">
<path d="M123.29 175.786H117.53C117.265 175.786 117.05 175.999 117.05 176.261V181.957C117.05 182.219 117.265 182.432 117.53 182.432H123.29C123.555 182.432 123.77 182.219 123.77 181.957V176.261C123.77 175.999 123.555 175.786 123.29 175.786Z" fill="#4E4E4E"/>
</g>
<g style="mix-blend-mode:multiply" opacity="0.33">
<path d="M133.677 175.786H127.917C127.652 175.786 127.437 175.999 127.437 176.261V181.957C127.437 182.219 127.652 182.432 127.917 182.432H133.677C133.942 182.432 134.157 182.219 134.157 181.957V176.261C134.157 175.999 133.942 175.786 133.677 175.786Z" fill="#4E4E4E"/>
</g>
<g style="mix-blend-mode:multiply" opacity="0.33">
<path d="M144.063 175.786H138.303C138.038 175.786 137.823 175.999 137.823 176.261V181.957C137.823 182.219 138.038 182.432 138.303 182.432H144.063C144.328 182.432 144.543 182.219 144.543 181.957V176.261C144.543 175.999 144.328 175.786 144.063 175.786Z" fill="#4E4E4E"/>
</g>
<g style="mix-blend-mode:multiply" opacity="0.33">
<path d="M154.45 175.786H148.69C148.425 175.786 148.21 175.999 148.21 176.261V181.957C148.21 182.219 148.425 182.432 148.69 182.432H154.45C154.715 182.432 154.93 182.219 154.93 181.957V176.261C154.93 175.999 154.715 175.786 154.45 175.786Z" fill="#4E4E4E"/>
</g>
<g style="mix-blend-mode:multiply" opacity="0.33">
<path d="M164.836 175.786H159.076C158.811 175.786 158.596 175.999 158.596 176.261V181.957C158.596 182.219 158.811 182.432 159.076 182.432H164.836C165.101 182.432 165.316 182.219 165.316 181.957V176.261C165.316 175.999 165.101 175.786 164.836 175.786Z" fill="#4E4E4E"/>
</g>
<g style="mix-blend-mode:multiply" opacity="0.33">
<path d="M175.223 175.786H169.463C169.198 175.786 168.983 175.999 168.983 176.261V181.957C168.983 182.219 169.198 182.432 169.463 182.432H175.223C175.488 182.432 175.703 182.219 175.703 181.957V176.261C175.703 175.999 175.488 175.786 175.223 175.786Z" fill="#4E4E4E"/>
</g>
<g style="mix-blend-mode:multiply" opacity="0.33">
<path d="M198.003 175.786H180.723C180.458 175.786 180.243 175.999 180.243 176.261V181.957C180.243 182.219 180.458 182.432 180.723 182.432H198.003C198.268 182.432 198.483 182.219 198.483 181.957V176.261C198.483 175.999 198.268 175.786 198.003 175.786Z" fill="#4E4E4E"/>
</g>
<g style="mix-blend-mode:multiply" opacity="0.33">
<path d="M119.537 166.065H113.777C113.512 166.065 113.297 166.277 113.297 166.54V172.236C113.297 172.498 113.512 172.711 113.777 172.711H119.537C119.802 172.711 120.017 172.498 120.017 172.236V166.54C120.017 166.277 119.802 166.065 119.537 166.065Z" fill="#4E4E4E"/>
</g>
<g style="mix-blend-mode:multiply" opacity="0.33">
<path d="M109.15 166.065H97.6301C97.365 166.065 97.1501 166.277 97.1501 166.54V172.236C97.1501 172.498 97.365 172.711 97.6301 172.711H109.15C109.415 172.711 109.63 172.498 109.63 172.236V166.54C109.63 166.277 109.415 166.065 109.15 166.065Z" fill="#4E4E4E"/>
</g>
<g style="mix-blend-mode:multiply" opacity="0.33">
<path d="M129.923 166.065H124.163C123.898 166.065 123.683 166.277 123.683 166.54V172.236C123.683 172.498 123.898 172.711 124.163 172.711H129.923C130.188 172.711 130.403 172.498 130.403 172.236V166.54C130.403 166.277 130.188 166.065 129.923 166.065Z" fill="#4E4E4E"/>
</g>
<g style="mix-blend-mode:multiply" opacity="0.33">
<path d="M140.31 166.065H134.55C134.285 166.065 134.07 166.277 134.07 166.54V172.236C134.07 172.498 134.285 172.711 134.55 172.711H140.31C140.575 172.711 140.79 172.498 140.79 172.236V166.54C140.79 166.277 140.575 166.065 140.31 166.065Z" fill="#4E4E4E"/>
</g>
<g style="mix-blend-mode:multiply" opacity="0.33">
<path d="M150.696 166.065H144.936C144.671 166.065 144.456 166.277 144.456 166.54V172.236C144.456 172.498 144.671 172.711 144.936 172.711H150.696C150.961 172.711 151.176 172.498 151.176 172.236V166.54C151.176 166.277 150.961 166.065 150.696 166.065Z" fill="#4E4E4E"/>
</g>
<g style="mix-blend-mode:multiply" opacity="0.33">
<path d="M161.083 166.065H155.323C155.058 166.065 154.843 166.277 154.843 166.54V172.236C154.843 172.498 155.058 172.711 155.323 172.711H161.083C161.348 172.711 161.563 172.498 161.563 172.236V166.54C161.563 166.277 161.348 166.065 161.083 166.065Z" fill="#4E4E4E"/>
</g>
<g style="mix-blend-mode:multiply" opacity="0.33">
<path d="M171.469 166.065H165.709C165.444 166.065 165.229 166.277 165.229 166.54V172.236C165.229 172.498 165.444 172.711 165.709 172.711H171.469C171.735 172.711 171.949 172.498 171.949 172.236V166.54C171.949 166.277 171.735 166.065 171.469 166.065Z" fill="#4E4E4E"/>
</g>
<g style="mix-blend-mode:multiply" opacity="0.33">
<path d="M181.856 166.065H176.096C175.831 166.065 175.616 166.277 175.616 166.54V172.236C175.616 172.498 175.831 172.711 176.096 172.711H181.856C182.121 172.711 182.336 172.498 182.336 172.236V166.54C182.336 166.277 182.121 166.065 181.856 166.065Z" fill="#4E4E4E"/>
</g>
<g style="mix-blend-mode:multiply" opacity="0.33">
<path d="M198.003 166.065H186.483C186.218 166.065 186.003 166.277 186.003 166.54V172.236C186.003 172.498 186.218 172.711 186.483 172.711H198.003C198.268 172.711 198.483 172.498 198.483 172.236V166.54C198.483 166.277 198.268 166.065 198.003 166.065Z" fill="#4E4E4E"/>
</g>
<g style="mix-blend-mode:multiply" opacity="0.33">
<path d="M113.903 156.761H108.143C107.878 156.761 107.663 156.974 107.663 157.236V162.932C107.663 163.195 107.878 163.407 108.143 163.407H113.903C114.168 163.407 114.383 163.195 114.383 162.932V157.236C114.383 156.974 114.168 156.761 113.903 156.761Z" fill="#4E4E4E"/>
</g>
<g style="mix-blend-mode:multiply" opacity="0.33">
<path d="M103.39 156.761H97.6301C97.365 156.761 97.1501 156.974 97.1501 157.236V162.932C97.1501 163.195 97.365 163.407 97.6301 163.407H103.39C103.655 163.407 103.87 163.195 103.87 162.932V157.236C103.87 156.974 103.655 156.761 103.39 156.761Z" fill="#4E4E4E"/>
</g>
<g style="mix-blend-mode:multiply" opacity="0.33">
<path d="M124.415 156.761H118.655C118.39 156.761 118.175 156.974 118.175 157.236V162.932C118.175 163.195 118.39 163.407 118.655 163.407H124.415C124.68 163.407 124.895 163.195 124.895 162.932V157.236C124.895 156.974 124.68 156.761 124.415 156.761Z" fill="#4E4E4E"/>
</g>
<g style="mix-blend-mode:multiply" opacity="0.33">
<path d="M134.928 156.761H129.168C128.903 156.761 128.688 156.974 128.688 157.236V162.932C128.688 163.195 128.903 163.407 129.168 163.407H134.928C135.193 163.407 135.408 163.195 135.408 162.932V157.236C135.408 156.974 135.193 156.761 134.928 156.761Z" fill="#4E4E4E"/>
</g>
<g style="mix-blend-mode:multiply" opacity="0.33">
<path d="M145.44 156.761H139.68C139.415 156.761 139.2 156.974 139.2 157.236V162.932C139.2 163.195 139.415 163.407 139.68 163.407H145.44C145.705 163.407 145.92 163.195 145.92 162.932V157.236C145.92 156.974 145.705 156.761 145.44 156.761Z" fill="#4E4E4E"/>
</g>
<g style="mix-blend-mode:multiply" opacity="0.33">
<path d="M155.953 156.761H150.193C149.928 156.761 149.713 156.974 149.713 157.236V162.932C149.713 163.195 149.928 163.407 150.193 163.407H155.953C156.218 163.407 156.433 163.195 156.433 162.932V157.236C156.433 156.974 156.218 156.761 155.953 156.761Z" fill="#4E4E4E"/>
</g>
<g style="mix-blend-mode:multiply" opacity="0.33">
<path d="M166.465 156.761H160.705C160.44 156.761 160.225 156.974 160.225 157.236V162.932C160.225 163.195 160.44 163.407 160.705 163.407H166.465C166.73 163.407 166.945 163.195 166.945 162.932V157.236C166.945 156.974 166.73 156.761 166.465 156.761Z" fill="#4E4E4E"/>
</g>
<g style="mix-blend-mode:multiply" opacity="0.33">
<path d="M176.978 156.761H171.218C170.952 156.761 170.738 156.974 170.738 157.236V162.932C170.738 163.195 170.952 163.407 171.218 163.407H176.978C177.243 163.407 177.458 163.195 177.458 162.932V157.236C177.458 156.974 177.243 156.761 176.978 156.761Z" fill="#4E4E4E"/>
</g>
<g style="mix-blend-mode:multiply" opacity="0.33">
<path d="M187.49 156.761H181.73C181.465 156.761 181.25 156.974 181.25 157.236V162.932C181.25 163.195 181.465 163.407 181.73 163.407H187.49C187.755 163.407 187.97 163.195 187.97 162.932V157.236C187.97 156.974 187.755 156.761 187.49 156.761Z" fill="#4E4E4E"/>
</g>
<g style="mix-blend-mode:multiply" opacity="0.33">
<path d="M198.003 156.761H192.243C191.977 156.761 191.763 156.974 191.763 157.236V162.932C191.763 163.195 191.977 163.407 192.243 163.407H198.003C198.268 163.407 198.483 163.195 198.483 162.932V157.236C198.483 156.974 198.268 156.761 198.003 156.761Z" fill="#4E4E4E"/>
</g>
<g style="mix-blend-mode:multiply" opacity="0.33">
<path d="M107.016 141.617H188.616V148C188.616 148.503 188.414 148.986 188.054 149.342C187.694 149.698 187.205 149.898 186.696 149.898H108.936C108.427 149.898 107.939 149.698 107.578 149.342C107.218 148.986 107.016 148.503 107.016 148V141.617Z" fill="#4E4E4E"/>
</g>
<g style="mix-blend-mode:multiply" opacity="0.25">
<path d="M186.696 147.999H108.936C108.427 147.999 107.939 147.799 107.578 147.443C107.218 147.087 107.016 146.604 107.016 146.1V147.999C107.016 148.502 107.218 148.985 107.578 149.341C107.939 149.698 108.427 149.898 108.936 149.898H186.696C187.205 149.898 187.694 149.698 188.054 149.341C188.414 148.985 188.616 148.502 188.616 147.999V146.1C188.616 146.604 188.414 147.087 188.054 147.443C187.694 147.799 187.205 147.999 186.696 147.999Z" fill="#4E4E4E"/>
</g>
<g style="mix-blend-mode:multiply" opacity="0.33">
<path d="M107.016 141.617H188.616V148C188.616 148.503 188.414 148.986 188.054 149.342C187.694 149.698 187.205 149.898 186.696 149.898H108.936C108.427 149.898 107.939 149.698 107.578 149.342C107.218 148.986 107.016 148.503 107.016 148V141.617Z" fill="#4E4E4E"/>
<path d="M107.016 141.617H188.616V148C188.616 148.503 188.414 148.986 188.054 149.342C187.694 149.698 187.205 149.898 186.696 149.898H108.936C108.427 149.898 107.939 149.698 107.578 149.342C107.218 148.986 107.016 148.503 107.016 148V141.617Z" stroke="#46505C" stroke-width="3.33333" stroke-linecap="round" stroke-linejoin="round"/>
</g>
<g style="mix-blend-mode:multiply" opacity="0.33">
<path d="M164.617 198.296H131.017C130.486 198.296 130.057 198.721 130.057 199.246V221.556C130.057 222.08 130.486 222.505 131.017 222.505H164.617C165.147 222.505 165.577 222.08 165.577 221.556V199.246C165.577 198.721 165.147 198.296 164.617 198.296Z" fill="#4E4E4E"/>
</g>
<g style="mix-blend-mode:multiply" opacity="0.33">
<path d="M164.617 198.296H131.017C130.486 198.296 130.057 198.721 130.057 199.246V221.556C130.057 222.08 130.486 222.505 131.017 222.505H164.617C165.147 222.505 165.577 222.08 165.577 221.556V199.246C165.577 198.721 165.147 198.296 164.617 198.296Z" fill="#4E4E4E"/>
<path d="M164.617 198.296H131.017C130.486 198.296 130.057 198.721 130.057 199.246V221.556C130.057 222.08 130.486 222.505 131.017 222.505H164.617C165.147 222.505 165.577 222.08 165.577 221.556V199.246C165.577 198.721 165.147 198.296 164.617 198.296Z" stroke="#626C84" stroke-width="1.66667" stroke-linecap="round" stroke-linejoin="round"/>
</g>
</g>
<path d="M199.68 63.5623H88.3201C84.6088 63.5623 81.6001 66.5376 81.6001 70.2078V134.765C81.6001 138.435 84.6088 141.41 88.3201 141.41H199.68C203.392 141.41 206.4 138.435 206.4 134.765V70.2078C206.4 66.5376 203.392 63.5623 199.68 63.5623Z" stroke="black" stroke-width="1.66667" stroke-linecap="round" stroke-linejoin="round"/>
<path d="M199.68 63.5623H88.3201C84.6088 63.5623 81.6001 66.5376 81.6001 70.2078V134.765C81.6001 138.435 84.6088 141.41 88.3201 141.41H199.68C203.392 141.41 206.4 138.435 206.4 134.765V70.2078C206.4 66.5376 203.392 63.5623 199.68 63.5623Z" fill="#626C84"/>
<path d="M199.68 63.5623H88.3201C84.6088 63.5623 81.6001 66.5376 81.6001 70.2078V134.765C81.6001 138.435 84.6088 141.41 88.3201 141.41H199.68C203.392 141.41 206.4 138.435 206.4 134.765V70.2078C206.4 66.5376 203.392 63.5623 199.68 63.5623Z" fill="#626C84"/>
<g style="mix-blend-mode:multiply" opacity="0.17">
<path d="M199.68 63.5623H88.3201C84.6088 63.5623 81.6001 66.5376 81.6001 70.2078V130.5C81.6001 134.171 84.6088 137.146 88.3201 137.146H199.68C203.392 137.146 206.4 134.171 206.4 130.5V70.2078C206.4 66.5376 203.392 63.5623 199.68 63.5623Z" fill="#626C84"/>
</g>
<path opacity="0.1" d="M88.3201 65.459H199.68C201.462 65.459 203.172 66.1592 204.432 67.4055C205.692 68.6518 206.4 70.3421 206.4 72.1046V134.763V70.2059C206.4 68.4434 205.692 66.753 204.432 65.5068C203.172 64.2605 201.462 63.5603 199.68 63.5603H88.3201C86.5379 63.5603 84.8286 64.2605 83.5684 65.5068C82.3081 66.753 81.6001 68.4434 81.6001 70.2059V72.1046C81.6001 70.3421 82.3081 68.6518 83.5684 67.4055C84.8286 66.1592 86.5379 65.459 88.3201 65.459Z" fill="white"/>
<g opacity="0.1">
<path opacity="0.1" d="M119.629 141.41H127.342L184.536 63.5623H176.823L119.629 141.41Z" fill="white"/>
<path opacity="0.1" d="M131.792 141.41H134.165L191.359 63.5623H188.985L131.792 141.41Z" fill="white"/>
</g>
<path d="M199.68 63.5623H88.3201C84.6088 63.5623 81.6001 66.5376 81.6001 70.2078V134.765C81.6001 138.435 84.6088 141.41 88.3201 141.41H199.68C203.392 141.41 206.4 138.435 206.4 134.765V70.2078C206.4 66.5376 203.392 63.5623 199.68 63.5623Z" stroke="#46505C" stroke-width="6.66667" stroke-linecap="round" stroke-linejoin="round"/>
<path d="M197.76 132.144V72.334H90.2402V132.144H197.76Z" fill="#FD848E"/>
<g opacity="0.06">
<path opacity="0.06" d="M126.916 132.144H134.63L178.571 72.334H170.858L126.916 132.144Z" fill="white"/>
<path opacity="0.06" d="M139.079 132.144H141.453L185.394 72.334H183.021L139.079 132.144Z" fill="white"/>
</g>
<path d="M197.76 132.144V72.334H90.2402V132.144H197.76Z" stroke="#46505C" stroke-width="1.66667" stroke-linecap="round" stroke-linejoin="round"/>
<path d="M199.68 141.41H88.3201C84.6088 141.41 81.6001 144.386 81.6001 148.056V216.411C81.6001 220.081 84.6088 223.056 88.3201 223.056H199.68C203.392 223.056 206.4 220.081 206.4 216.411V148.056C206.4 144.386 203.392 141.41 199.68 141.41Z" fill="#E6F3FF"/>
<path d="M204.48 216.411V148.056C204.48 145.435 202.331 143.309 199.68 143.309H88.32C85.669 143.309 83.52 145.435 83.52 148.056V216.411C83.52 219.032 85.669 221.158 88.32 221.158H199.68C202.331 221.158 204.48 219.032 204.48 216.411Z" fill="white" stroke="#E6F3FF" stroke-width="3.33333" stroke-miterlimit="10"/>
<path d="M136.296 219.344H151.704C152.213 219.344 152.701 219.544 153.061 219.9C153.421 220.256 153.624 220.739 153.624 221.243V223.056H134.376V221.243C134.376 220.739 134.578 220.256 134.938 219.9C135.298 219.544 135.786 219.344 136.296 219.344Z" fill="#E6F3FF"/>
<path d="M199.68 141.41H88.3201C84.6088 141.41 81.6001 144.386 81.6001 148.056V216.411C81.6001 220.081 84.6088 223.056 88.3201 223.056H199.68C203.392 223.056 206.4 220.081 206.4 216.411V148.056C206.4 144.386 203.392 141.41 199.68 141.41Z" stroke="#46505C" stroke-width="6.66667" stroke-linecap="round" stroke-linejoin="round"/>
<path d="M197.76 147.78H90.24C89.4448 147.78 88.8 148.418 88.8 149.204V190.027C88.8 190.814 89.4448 191.451 90.24 191.451H197.76C198.555 191.451 199.2 190.814 199.2 190.027V149.204C199.2 148.418 198.555 147.78 197.76 147.78Z" fill="#E6F3FF"/>
<path d="M109.96 180.771H104.2C103.935 180.771 103.72 180.983 103.72 181.245V186.942C103.72 187.204 103.935 187.416 104.2 187.416H109.96C110.226 187.416 110.44 187.204 110.44 186.942V181.245C110.44 180.983 110.226 180.771 109.96 180.771Z" stroke="#626C84" stroke-width="1.66667" stroke-linecap="round" stroke-linejoin="round"/>
<path d="M99.5741 180.771H93.8141C93.549 180.771 93.3341 180.983 93.3341 181.245V186.942C93.3341 187.204 93.549 187.416 93.8141 187.416H99.5741C99.8392 187.416 100.054 187.204 100.054 186.942V181.245C100.054 180.983 99.8392 180.771 99.5741 180.771Z" stroke="#626C84" stroke-width="1.66667" stroke-linecap="round" stroke-linejoin="round"/>
<path d="M161.893 180.771H114.587C114.322 180.771 114.107 180.983 114.107 181.245V186.942C114.107 187.204 114.322 187.416 114.587 187.416H161.893C162.158 187.416 162.373 187.204 162.373 186.942V181.245C162.373 180.983 162.158 180.771 161.893 180.771Z" stroke="#626C84" stroke-width="1.66667" stroke-linecap="round" stroke-linejoin="round"/>
<path d="M172.28 180.771H166.52C166.255 180.771 166.04 180.983 166.04 181.245V186.942C166.04 187.204 166.255 187.416 166.52 187.416H172.28C172.545 187.416 172.76 187.204 172.76 186.942V181.245C172.76 180.983 172.545 180.771 172.28 180.771Z" stroke="#626C84" stroke-width="1.66667" stroke-linecap="round" stroke-linejoin="round"/>
<path d="M187.466 184.509H183.626C183.361 184.509 183.146 184.722 183.146 184.984V186.942C183.146 187.204 183.361 187.416 183.626 187.416H187.466C187.731 187.416 187.946 187.204 187.946 186.942V184.984C187.946 184.722 187.731 184.509 187.466 184.509Z" stroke="#626C84" stroke-width="1.66667" stroke-linecap="round" stroke-linejoin="round"/>
<path d="M187.466 180.771H183.626C183.361 180.771 183.146 180.983 183.146 181.245V183.203C183.146 183.466 183.361 183.678 183.626 183.678H187.466C187.731 183.678 187.946 183.466 187.946 183.203V181.245C187.946 180.983 187.731 180.771 187.466 180.771Z" stroke="#626C84" stroke-width="1.66667" stroke-linecap="round" stroke-linejoin="round"/>
<path d="M194.186 184.509H190.346C190.081 184.509 189.866 184.722 189.866 184.984V186.942C189.866 187.204 190.081 187.416 190.346 187.416H194.186C194.451 187.416 194.666 187.204 194.666 186.942V184.984C194.666 184.722 194.451 184.509 194.186 184.509Z" stroke="#626C84" stroke-width="1.66667" stroke-linecap="round" stroke-linejoin="round"/>
<path d="M180.746 184.509H176.906C176.641 184.509 176.426 184.722 176.426 184.984V186.942C176.426 187.204 176.641 187.416 176.906 187.416H180.746C181.011 187.416 181.226 187.204 181.226 186.942V184.984C181.226 184.722 181.011 184.509 180.746 184.509Z" stroke="#626C84" stroke-width="1.66667" stroke-linecap="round" stroke-linejoin="round"/>
<path d="M109.001 171.316H93.8141C93.549 171.316 93.3341 171.528 93.3341 171.79V177.487C93.3341 177.749 93.549 177.961 93.8141 177.961H109.001C109.266 177.961 109.481 177.749 109.481 177.487V171.79C109.481 171.528 109.266 171.316 109.001 171.316Z" stroke="#626C84" stroke-width="1.66667" stroke-linecap="round" stroke-linejoin="round"/>
<path d="M119.474 171.316H113.714C113.449 171.316 113.234 171.528 113.234 171.79V177.487C113.234 177.749 113.449 177.961 113.714 177.961H119.474C119.739 177.961 119.954 177.749 119.954 177.487V171.79C119.954 171.528 119.739 171.316 119.474 171.316Z" stroke="#626C84" stroke-width="1.66667" stroke-linecap="round" stroke-linejoin="round"/>
<path d="M129.86 171.316H124.1C123.835 171.316 123.62 171.528 123.62 171.79V177.487C123.62 177.749 123.835 177.961 124.1 177.961H129.86C130.125 177.961 130.34 177.749 130.34 177.487V171.79C130.34 171.528 130.125 171.316 129.86 171.316Z" stroke="#626C84" stroke-width="1.66667" stroke-linecap="round" stroke-linejoin="round"/>
<path d="M140.247 171.316H134.487C134.222 171.316 134.007 171.528 134.007 171.79V177.487C134.007 177.749 134.222 177.961 134.487 177.961H140.247C140.512 177.961 140.727 177.749 140.727 177.487V171.79C140.727 171.528 140.512 171.316 140.247 171.316Z" stroke="#626C84" stroke-width="1.66667" stroke-linecap="round" stroke-linejoin="round"/>
<path d="M150.633 171.316H144.873C144.608 171.316 144.393 171.528 144.393 171.79V177.487C144.393 177.749 144.608 177.961 144.873 177.961H150.633C150.898 177.961 151.113 177.749 151.113 177.487V171.79C151.113 171.528 150.898 171.316 150.633 171.316Z" stroke="#626C84" stroke-width="1.66667" stroke-linecap="round" stroke-linejoin="round"/>
<path d="M161.02 171.316H155.26C154.995 171.316 154.78 171.528 154.78 171.79V177.487C154.78 177.749 154.995 177.961 155.26 177.961H161.02C161.285 177.961 161.5 177.749 161.5 177.487V171.79C161.5 171.528 161.285 171.316 161.02 171.316Z" stroke="#626C84" stroke-width="1.66667" stroke-linecap="round" stroke-linejoin="round"/>
<path d="M171.406 171.316H165.646C165.381 171.316 165.166 171.528 165.166 171.79V177.487C165.166 177.749 165.381 177.961 165.646 177.961H171.406C171.671 177.961 171.886 177.749 171.886 177.487V171.79C171.886 171.528 171.671 171.316 171.406 171.316Z" stroke="#626C84" stroke-width="1.66667" stroke-linecap="round" stroke-linejoin="round"/>
<path d="M194.186 171.316H176.906C176.641 171.316 176.426 171.528 176.426 171.79V177.487C176.426 177.749 176.641 177.961 176.906 177.961H194.186C194.451 177.961 194.666 177.749 194.666 177.487V171.79C194.666 171.528 194.451 171.316 194.186 171.316Z" stroke="#626C84" stroke-width="1.66667" stroke-linecap="round" stroke-linejoin="round"/>
<path d="M115.72 161.594H109.96C109.695 161.594 109.48 161.807 109.48 162.069V167.765C109.48 168.027 109.695 168.24 109.96 168.24H115.72C115.986 168.24 116.2 168.027 116.2 167.765V162.069C116.2 161.807 115.986 161.594 115.72 161.594Z" stroke="#626C84" stroke-width="1.66667" stroke-linecap="round" stroke-linejoin="round"/>
<path d="M105.334 161.594H93.8141C93.549 161.594 93.3341 161.807 93.3341 162.069V167.765C93.3341 168.027 93.549 168.24 93.8141 168.24H105.334C105.599 168.24 105.814 168.027 105.814 167.765V162.069C105.814 161.807 105.599 161.594 105.334 161.594Z" stroke="#626C84" stroke-width="1.66667" stroke-linecap="round" stroke-linejoin="round"/>
<path d="M126.107 161.594H120.347C120.082 161.594 119.867 161.807 119.867 162.069V167.765C119.867 168.027 120.082 168.24 120.347 168.24H126.107C126.372 168.24 126.587 168.027 126.587 167.765V162.069C126.587 161.807 126.372 161.594 126.107 161.594Z" stroke="#626C84" stroke-width="1.66667" stroke-linecap="round" stroke-linejoin="round"/>
<path d="M136.493 161.594H130.733C130.468 161.594 130.253 161.807 130.253 162.069V167.765C130.253 168.027 130.468 168.24 130.733 168.24H136.493C136.758 168.24 136.973 168.027 136.973 167.765V162.069C136.973 161.807 136.758 161.594 136.493 161.594Z" stroke="#626C84" stroke-width="1.66667" stroke-linecap="round" stroke-linejoin="round"/>
<path d="M146.88 161.594H141.12C140.855 161.594 140.64 161.807 140.64 162.069V167.765C140.64 168.027 140.855 168.24 141.12 168.24H146.88C147.145 168.24 147.36 168.027 147.36 167.765V162.069C147.36 161.807 147.145 161.594 146.88 161.594Z" stroke="#626C84" stroke-width="1.66667" stroke-linecap="round" stroke-linejoin="round"/>
<path d="M157.267 161.594H151.507C151.242 161.594 151.027 161.807 151.027 162.069V167.765C151.027 168.027 151.242 168.24 151.507 168.24H157.267C157.532 168.24 157.747 168.027 157.747 167.765V162.069C157.747 161.807 157.532 161.594 157.267 161.594Z" stroke="#626C84" stroke-width="1.66667" stroke-linecap="round" stroke-linejoin="round"/>
<path d="M167.653 161.594H161.893C161.628 161.594 161.413 161.807 161.413 162.069V167.765C161.413 168.027 161.628 168.24 161.893 168.24H167.653C167.918 168.24 168.133 168.027 168.133 167.765V162.069C168.133 161.807 167.918 161.594 167.653 161.594Z" stroke="#626C84" stroke-width="1.66667" stroke-linecap="round" stroke-linejoin="round"/>
<path d="M178.04 161.594H172.28C172.015 161.594 171.8 161.807 171.8 162.069V167.765C171.8 168.027 172.015 168.24 172.28 168.24H178.04C178.305 168.24 178.52 168.027 178.52 167.765V162.069C178.52 161.807 178.305 161.594 178.04 161.594Z" stroke="#626C84" stroke-width="1.66667" stroke-linecap="round" stroke-linejoin="round"/>
<path d="M194.186 161.594H182.666C182.401 161.594 182.186 161.807 182.186 162.069V167.765C182.186 168.027 182.401 168.24 182.666 168.24H194.186C194.451 168.24 194.666 168.027 194.666 167.765V162.069C194.666 161.807 194.451 161.594 194.186 161.594Z" stroke="#626C84" stroke-width="1.66667" stroke-linecap="round" stroke-linejoin="round"/>
<path d="M110.087 152.29H104.327C104.062 152.29 103.847 152.502 103.847 152.764V158.46C103.847 158.723 104.062 158.935 104.327 158.935H110.087C110.352 158.935 110.567 158.723 110.567 158.46V152.764C110.567 152.502 110.352 152.29 110.087 152.29Z" stroke="#626C84" stroke-width="1.66667" stroke-linecap="round" stroke-linejoin="round"/>
<path d="M99.5741 152.29H93.8141C93.549 152.29 93.3341 152.502 93.3341 152.764V158.46C93.3341 158.723 93.549 158.935 93.8141 158.935H99.5741C99.8392 158.935 100.054 158.723 100.054 158.46V152.764C100.054 152.502 99.8392 152.29 99.5741 152.29Z" stroke="#626C84" stroke-width="1.66667" stroke-linecap="round" stroke-linejoin="round"/>
<path d="M120.599 152.29H114.839C114.574 152.29 114.359 152.502 114.359 152.764V158.46C114.359 158.723 114.574 158.935 114.839 158.935H120.599C120.864 158.935 121.079 158.723 121.079 158.46V152.764C121.079 152.502 120.864 152.29 120.599 152.29Z" stroke="#626C84" stroke-width="1.66667" stroke-linecap="round" stroke-linejoin="round"/>
<path d="M131.111 152.29H125.351C125.086 152.29 124.871 152.502 124.871 152.764V158.46C124.871 158.723 125.086 158.935 125.351 158.935H131.111C131.377 158.935 131.591 158.723 131.591 158.46V152.764C131.591 152.502 131.377 152.29 131.111 152.29Z" stroke="#626C84" stroke-width="1.66667" stroke-linecap="round" stroke-linejoin="round"/>
<path d="M141.624 152.29H135.864C135.599 152.29 135.384 152.502 135.384 152.764V158.46C135.384 158.723 135.599 158.935 135.864 158.935H141.624C141.889 158.935 142.104 158.723 142.104 158.46V152.764C142.104 152.502 141.889 152.29 141.624 152.29Z" stroke="#626C84" stroke-width="1.66667" stroke-linecap="round" stroke-linejoin="round"/>
<path d="M152.136 152.29H146.376C146.111 152.29 145.896 152.502 145.896 152.764V158.46C145.896 158.723 146.111 158.935 146.376 158.935H152.136C152.401 158.935 152.616 158.723 152.616 158.46V152.764C152.616 152.502 152.401 152.29 152.136 152.29Z" stroke="#626C84" stroke-width="1.66667" stroke-linecap="round" stroke-linejoin="round"/>
<path d="M162.648 152.29H156.889C156.623 152.29 156.409 152.502 156.409 152.764V158.46C156.409 158.723 156.623 158.935 156.889 158.935H162.648C162.914 158.935 163.128 158.723 163.128 158.46V152.764C163.128 152.502 162.914 152.29 162.648 152.29Z" stroke="#626C84" stroke-width="1.66667" stroke-linecap="round" stroke-linejoin="round"/>
<path d="M173.161 152.29H167.401C167.136 152.29 166.921 152.502 166.921 152.764V158.46C166.921 158.723 167.136 158.935 167.401 158.935H173.161C173.426 158.935 173.641 158.723 173.641 158.46V152.764C173.641 152.502 173.426 152.29 173.161 152.29Z" stroke="#626C84" stroke-width="1.66667" stroke-linecap="round" stroke-linejoin="round"/>
<path d="M183.673 152.29H177.913C177.648 152.29 177.433 152.502 177.433 152.764V158.46C177.433 158.723 177.648 158.935 177.913 158.935H183.673C183.939 158.935 184.153 158.723 184.153 158.46V152.764C184.153 152.502 183.939 152.29 183.673 152.29Z" stroke="#626C84" stroke-width="1.66667" stroke-linecap="round" stroke-linejoin="round"/>
<path d="M194.186 152.29H188.426C188.161 152.29 187.946 152.502 187.946 152.764V158.46C187.946 158.723 188.161 158.935 188.426 158.935H194.186C194.451 158.935 194.666 158.723 194.666 158.46V152.764C194.666 152.502 194.451 152.29 194.186 152.29Z" stroke="#626C84" stroke-width="1.66667" stroke-linecap="round" stroke-linejoin="round"/>
<path d="M109.96 180.771H104.2C103.935 180.771 103.72 180.983 103.72 181.245V186.942C103.72 187.204 103.935 187.416 104.2 187.416H109.96C110.226 187.416 110.44 187.204 110.44 186.942V181.245C110.44 180.983 110.226 180.771 109.96 180.771Z" fill="#626C84"/>
<path d="M99.5741 180.771H93.8141C93.549 180.771 93.3341 180.983 93.3341 181.245V186.942C93.3341 187.204 93.549 187.416 93.8141 187.416H99.5741C99.8392 187.416 100.054 187.204 100.054 186.942V181.245C100.054 180.983 99.8392 180.771 99.5741 180.771Z" fill="#626C84"/>
<path d="M161.893 180.771H114.587C114.322 180.771 114.107 180.983 114.107 181.245V186.942C114.107 187.204 114.322 187.416 114.587 187.416H161.893C162.158 187.416 162.373 187.204 162.373 186.942V181.245C162.373 180.983 162.158 180.771 161.893 180.771Z" fill="#626C84"/>
<path d="M172.28 180.771H166.52C166.255 180.771 166.04 180.983 166.04 181.245V186.942C166.04 187.204 166.255 187.416 166.52 187.416H172.28C172.545 187.416 172.76 187.204 172.76 186.942V181.245C172.76 180.983 172.545 180.771 172.28 180.771Z" fill="#626C84"/>
<path d="M187.466 184.509H183.626C183.361 184.509 183.146 184.722 183.146 184.984V186.942C183.146 187.204 183.361 187.416 183.626 187.416H187.466C187.731 187.416 187.946 187.204 187.946 186.942V184.984C187.946 184.722 187.731 184.509 187.466 184.509Z" fill="#626C84"/>
<path d="M187.466 180.771H183.626C183.361 180.771 183.146 180.983 183.146 181.245V183.203C183.146 183.466 183.361 183.678 183.626 183.678H187.466C187.731 183.678 187.946 183.466 187.946 183.203V181.245C187.946 180.983 187.731 180.771 187.466 180.771Z" fill="#626C84"/>
<path d="M194.186 184.509H190.346C190.081 184.509 189.866 184.722 189.866 184.984V186.942C189.866 187.204 190.081 187.416 190.346 187.416H194.186C194.451 187.416 194.666 187.204 194.666 186.942V184.984C194.666 184.722 194.451 184.509 194.186 184.509Z" fill="#626C84"/>
<path d="M180.746 184.509H176.906C176.641 184.509 176.426 184.722 176.426 184.984V186.942C176.426 187.204 176.641 187.416 176.906 187.416H180.746C181.011 187.416 181.226 187.204 181.226 186.942V184.984C181.226 184.722 181.011 184.509 180.746 184.509Z" fill="#626C84"/>
<path d="M109.001 171.316H93.8141C93.549 171.316 93.3341 171.528 93.3341 171.79V177.487C93.3341 177.749 93.549 177.961 93.8141 177.961H109.001C109.266 177.961 109.481 177.749 109.481 177.487V171.79C109.481 171.528 109.266 171.316 109.001 171.316Z" fill="#626C84"/>
<path d="M119.474 171.316H113.714C113.449 171.316 113.234 171.528 113.234 171.79V177.487C113.234 177.749 113.449 177.961 113.714 177.961H119.474C119.739 177.961 119.954 177.749 119.954 177.487V171.79C119.954 171.528 119.739 171.316 119.474 171.316Z" fill="#626C84"/>
<path d="M129.86 171.316H124.1C123.835 171.316 123.62 171.528 123.62 171.79V177.487C123.62 177.749 123.835 177.961 124.1 177.961H129.86C130.125 177.961 130.34 177.749 130.34 177.487V171.79C130.34 171.528 130.125 171.316 129.86 171.316Z" fill="#626C84"/>
<path d="M140.247 171.316H134.487C134.222 171.316 134.007 171.528 134.007 171.79V177.487C134.007 177.749 134.222 177.961 134.487 177.961H140.247C140.512 177.961 140.727 177.749 140.727 177.487V171.79C140.727 171.528 140.512 171.316 140.247 171.316Z" fill="#626C84"/>
<path d="M150.633 171.316H144.873C144.608 171.316 144.393 171.528 144.393 171.79V177.487C144.393 177.749 144.608 177.961 144.873 177.961H150.633C150.898 177.961 151.113 177.749 151.113 177.487V171.79C151.113 171.528 150.898 171.316 150.633 171.316Z" fill="#626C84"/>
<path d="M161.02 171.316H155.26C154.995 171.316 154.78 171.528 154.78 171.79V177.487C154.78 177.749 154.995 177.961 155.26 177.961H161.02C161.285 177.961 161.5 177.749 161.5 177.487V171.79C161.5 171.528 161.285 171.316 161.02 171.316Z" fill="#626C84"/>
<path d="M171.406 171.316H165.646C165.381 171.316 165.166 171.528 165.166 171.79V177.487C165.166 177.749 165.381 177.961 165.646 177.961H171.406C171.671 177.961 171.886 177.749 171.886 177.487V171.79C171.886 171.528 171.671 171.316 171.406 171.316Z" fill="#626C84"/>
<path d="M194.186 171.316H176.906C176.641 171.316 176.426 171.528 176.426 171.79V177.487C176.426 177.749 176.641 177.961 176.906 177.961H194.186C194.451 177.961 194.666 177.749 194.666 177.487V171.79C194.666 171.528 194.451 171.316 194.186 171.316Z" fill="#626C84"/>
<path d="M115.72 161.594H109.96C109.695 161.594 109.48 161.807 109.48 162.069V167.765C109.48 168.027 109.695 168.24 109.96 168.24H115.72C115.986 168.24 116.2 168.027 116.2 167.765V162.069C116.2 161.807 115.986 161.594 115.72 161.594Z" fill="#626C84"/>
<path d="M105.334 161.594H93.8141C93.549 161.594 93.3341 161.807 93.3341 162.069V167.765C93.3341 168.027 93.549 168.24 93.8141 168.24H105.334C105.599 168.24 105.814 168.027 105.814 167.765V162.069C105.814 161.807 105.599 161.594 105.334 161.594Z" fill="#626C84"/>
<path d="M126.107 161.594H120.347C120.082 161.594 119.867 161.807 119.867 162.069V167.765C119.867 168.027 120.082 168.24 120.347 168.24H126.107C126.372 168.24 126.587 168.027 126.587 167.765V162.069C126.587 161.807 126.372 161.594 126.107 161.594Z" fill="#626C84"/>
<path d="M136.493 161.594H130.733C130.468 161.594 130.253 161.807 130.253 162.069V167.765C130.253 168.027 130.468 168.24 130.733 168.24H136.493C136.758 168.24 136.973 168.027 136.973 167.765V162.069C136.973 161.807 136.758 161.594 136.493 161.594Z" fill="#626C84"/>
<path d="M146.88 161.594H141.12C140.855 161.594 140.64 161.807 140.64 162.069V167.765C140.64 168.027 140.855 168.24 141.12 168.24H146.88C147.145 168.24 147.36 168.027 147.36 167.765V162.069C147.36 161.807 147.145 161.594 146.88 161.594Z" fill="#626C84"/>
<path d="M157.267 161.594H151.507C151.242 161.594 151.027 161.807 151.027 162.069V167.765C151.027 168.027 151.242 168.24 151.507 168.24H157.267C157.532 168.24 157.747 168.027 157.747 167.765V162.069C157.747 161.807 157.532 161.594 157.267 161.594Z" fill="#626C84"/>
<path d="M167.653 161.594H161.893C161.628 161.594 161.413 161.807 161.413 162.069V167.765C161.413 168.027 161.628 168.24 161.893 168.24H167.653C167.918 168.24 168.133 168.027 168.133 167.765V162.069C168.133 161.807 167.918 161.594 167.653 161.594Z" fill="#626C84"/>
<path d="M178.04 161.594H172.28C172.015 161.594 171.8 161.807 171.8 162.069V167.765C171.8 168.027 172.015 168.24 172.28 168.24H178.04C178.305 168.24 178.52 168.027 178.52 167.765V162.069C178.52 161.807 178.305 161.594 178.04 161.594Z" fill="#626C84"/>
<path d="M194.186 161.594H182.666C182.401 161.594 182.186 161.807 182.186 162.069V167.765C182.186 168.027 182.401 168.24 182.666 168.24H194.186C194.451 168.24 194.666 168.027 194.666 167.765V162.069C194.666 161.807 194.451 161.594 194.186 161.594Z" fill="#626C84"/>
<path d="M110.087 152.29H104.327C104.062 152.29 103.847 152.502 103.847 152.764V158.46C103.847 158.723 104.062 158.935 104.327 158.935H110.087C110.352 158.935 110.567 158.723 110.567 158.46V152.764C110.567 152.502 110.352 152.29 110.087 152.29Z" fill="#626C84"/>
<path d="M99.5741 152.29H93.8141C93.549 152.29 93.3341 152.502 93.3341 152.764V158.46C93.3341 158.723 93.549 158.935 93.8141 158.935H99.5741C99.8392 158.935 100.054 158.723 100.054 158.46V152.764C100.054 152.502 99.8392 152.29 99.5741 152.29Z" fill="#626C84"/>
<path d="M120.599 152.29H114.839C114.574 152.29 114.359 152.502 114.359 152.764V158.46C114.359 158.723 114.574 158.935 114.839 158.935H120.599C120.864 158.935 121.079 158.723 121.079 158.46V152.764C121.079 152.502 120.864 152.29 120.599 152.29Z" fill="#626C84"/>
<path d="M131.111 152.29H125.351C125.086 152.29 124.871 152.502 124.871 152.764V158.46C124.871 158.723 125.086 158.935 125.351 158.935H131.111C131.377 158.935 131.591 158.723 131.591 158.46V152.764C131.591 152.502 131.377 152.29 131.111 152.29Z" fill="#626C84"/>
<path d="M141.624 152.29H135.864C135.599 152.29 135.384 152.502 135.384 152.764V158.46C135.384 158.723 135.599 158.935 135.864 158.935H141.624C141.889 158.935 142.104 158.723 142.104 158.46V152.764C142.104 152.502 141.889 152.29 141.624 152.29Z" fill="#626C84"/>
<path d="M152.136 152.29H146.376C146.111 152.29 145.896 152.502 145.896 152.764V158.46C145.896 158.723 146.111 158.935 146.376 158.935H152.136C152.401 158.935 152.616 158.723 152.616 158.46V152.764C152.616 152.502 152.401 152.29 152.136 152.29Z" fill="#626C84"/>
<path d="M162.648 152.29H156.889C156.623 152.29 156.409 152.502 156.409 152.764V158.46C156.409 158.723 156.623 158.935 156.889 158.935H162.648C162.914 158.935 163.128 158.723 163.128 158.46V152.764C163.128 152.502 162.914 152.29 162.648 152.29Z" fill="#626C84"/>
<path d="M173.161 152.29H167.401C167.136 152.29 166.921 152.502 166.921 152.764V158.46C166.921 158.723 167.136 158.935 167.401 158.935H173.161C173.426 158.935 173.641 158.723 173.641 158.46V152.764C173.641 152.502 173.426 152.29 173.161 152.29Z" fill="#626C84"/>
<path d="M183.673 152.29H177.913C177.648 152.29 177.433 152.502 177.433 152.764V158.46C177.433 158.723 177.648 158.935 177.913 158.935H183.673C183.939 158.935 184.153 158.723 184.153 158.46V152.764C184.153 152.502 183.939 152.29 183.673 152.29Z" fill="#626C84"/>
<path d="M194.186 152.29H188.426C188.161 152.29 187.946 152.502 187.946 152.764V158.46C187.946 158.723 188.161 158.935 188.426 158.935H194.186C194.451 158.935 194.666 158.723 194.666 158.46V152.764C194.666 152.502 194.451 152.29 194.186 152.29Z" fill="#626C84"/>
<path d="M103.2 137.146H184.8V143.529C184.8 144.032 184.598 144.515 184.238 144.871C183.878 145.227 183.389 145.427 182.88 145.427H105.12C104.611 145.427 104.123 145.227 103.763 144.871C103.402 144.515 103.2 144.032 103.2 143.529V137.146Z" fill="#626C84"/>
<path opacity="0.12" d="M184.8 137.146H103.2V138.095H184.8V137.146Z" fill="white"/>
<g style="mix-blend-mode:multiply" opacity="0.25">
<path d="M182.88 143.528H105.12C104.611 143.528 104.123 143.328 103.763 142.972C103.402 142.616 103.2 142.133 103.2 141.629V143.528C103.2 144.032 103.402 144.515 103.763 144.871C104.123 145.227 104.611 145.427 105.12 145.427H182.88C183.389 145.427 183.878 145.227 184.238 144.871C184.598 144.515 184.8 144.032 184.8 143.528V141.629C184.8 142.133 184.598 142.616 184.238 142.972C183.878 143.328 183.389 143.528 182.88 143.528Z" fill="#626C84"/>
</g>
<path d="M103.2 137.146H184.8V143.529C184.8 144.032 184.598 144.515 184.238 144.871C183.878 145.227 183.389 145.427 182.88 145.427H105.12C104.611 145.427 104.123 145.227 103.763 144.871C103.402 144.515 103.2 144.032 103.2 143.529V137.146Z" stroke="#46505C" stroke-width="3.33333" stroke-linecap="round" stroke-linejoin="round"/>
<path d="M160.8 193.825H127.2C126.67 193.825 126.24 194.25 126.24 194.774V217.084C126.24 217.609 126.67 218.034 127.2 218.034H160.8C161.33 218.034 161.76 217.609 161.76 217.084V194.774C161.76 194.25 161.33 193.825 160.8 193.825Z" fill="#E6F3FF"/>
<path d="M160.8 193.825H127.2C126.67 193.825 126.24 194.25 126.24 194.774V217.084C126.24 217.609 126.67 218.034 127.2 218.034H160.8C161.33 218.034 161.76 217.609 161.76 217.084V194.774C161.76 194.25 161.33 193.825 160.8 193.825Z" stroke="#626C84" stroke-width="1.66667" stroke-linecap="round" stroke-linejoin="round"/>
<path opacity="0.52" d="M144 69.8032C144.795 69.8032 145.44 69.1656 145.44 68.3791C145.44 67.5927 144.795 66.9551 144 66.9551C143.205 66.9551 142.56 67.5927 142.56 68.3791C142.56 69.1656 143.205 69.8032 144 69.8032Z" fill="white"/>
<path d="M144 69.8032C144.795 69.8032 145.44 69.1656 145.44 68.3791C145.44 67.5927 144.795 66.9551 144 66.9551C143.205 66.9551 142.56 67.5927 142.56 68.3791C142.56 69.1656 143.205 69.8032 144 69.8032Z" stroke="#46505C" stroke-width="1.66667" stroke-linecap="round" stroke-linejoin="round"/>
<path d="M173.933 78.384H168.173C167.908 78.384 167.693 78.5966 167.693 78.8587C167.693 79.1209 167.908 79.3334 168.173 79.3334H173.933C174.198 79.3334 174.413 79.1209 174.413 78.8587C174.413 78.5966 174.198 78.384 173.933 78.384Z" fill="white"/>
<path d="M186.4 78.384H180.64C180.375 78.384 180.16 78.5966 180.16 78.8587C180.16 79.1209 180.375 79.3334 180.64 79.3334H186.4C186.665 79.3334 186.88 79.1209 186.88 78.8587C186.88 78.5966 186.665 78.384 186.4 78.384Z" fill="white"/>
<path d="M161.466 78.384H155.706C155.441 78.384 155.226 78.5966 155.226 78.8587C155.226 79.1209 155.441 79.3334 155.706 79.3334H161.466C161.731 79.3334 161.946 79.1209 161.946 78.8587C161.946 78.5966 161.731 78.384 161.466 78.384Z" fill="white"/>
<path d="M99.4719 81.4024C100.754 81.4024 101.794 80.3744 101.794 79.1063C101.794 77.8383 100.754 76.8103 99.4719 76.8103C98.1896 76.8103 97.1501 77.8383 97.1501 79.1063C97.1501 80.3744 98.1896 81.4024 99.4719 81.4024Z" fill="white"/>
<g opacity="0.72">
<path opacity="0.72" d="M168.268 104.245H119.676V105.976H168.268V104.245Z" fill="white"/>
<path opacity="0.72" d="M162.123 98.5029H125.821V100.258H162.123V98.5029Z" fill="white"/>
</g>
<path d="M152.355 117.696H138.525C137.072 117.696 135.894 118.861 135.894 120.298C135.894 121.734 137.072 122.899 138.525 122.899H152.355C153.808 122.899 154.985 121.734 154.985 120.298C154.985 118.861 153.808 117.696 152.355 117.696Z" stroke="white" stroke-width="1.66667" stroke-miterlimit="10"/>
<path d="M20 1H268V-1H20V1ZM287 20V265H289V20H287ZM268 284H20V286H268V284ZM1 265V20H-1V265H1ZM20 284C9.50658 284 1 275.493 1 265H-1C-1 276.598 8.40201 286 20 286V284ZM287 265C287 275.493 278.493 284 268 284V286C279.598 286 289 276.598 289 265H287ZM268 1C278.493 1 287 9.50659 287 20H289C289 8.40202 279.598 -1 268 -1V1ZM20 -1C8.40202 -1 -1 8.40201 -1 20H1C1 9.50658 9.50659 1 20 1V-1Z" fill="black"/>
</svg>
