<svg width="80" height="66" viewBox="0 0 80 66" fill="none" xmlns="http://www.w3.org/2000/svg">
<path fill-rule="evenodd" clip-rule="evenodd" d="M20.5885 1.42469L20.0781 1.88062V11.9844V22.0881L20.5885 22.5441L21.0988 23H40H58.9013L59.4116 22.5441L59.9219 22.0881V11.9844V1.88062L59.4116 1.42469L58.9013 0.96875H55.253C51.7986 0.96875 51.5828 0.985938 51.193 1.29266C50.8944 1.5275 50.7813 1.76047 50.7813 2.14062C50.7813 2.52078 50.8944 2.75375 51.193 2.98859C51.5764 3.29031 51.8069 3.3125 54.5524 3.3125H57.5V11.9844V20.6562H40H22.5V11.9844V3.3125H34.5966C41.2497 3.3125 46.807 3.26875 46.9461 3.21547C47.0853 3.16203 47.3075 2.90875 47.44 2.6525C47.6381 2.26922 47.6472 2.10531 47.491 1.72797C47.3864 1.47578 47.1745 1.20172 47.0202 1.11906C46.8469 1.02625 41.8275 0.96875 33.9191 0.96875H21.0988L20.5885 1.42469ZM30.9375 6.84484C28.8627 7.59797 27.6145 9.35125 27.6077 11.5228C27.6016 13.4334 28.5763 14.9947 30.3567 15.9267C31.47 16.5094 33.2638 16.5339 34.4953 15.9833C35.5288 15.5211 36.7499 14.2184 37.0928 13.212C37.4139 12.2698 37.4139 10.7614 37.0928 9.81922C36.7456 8.80047 35.5269 7.50609 34.4953 7.06062C33.4208 6.59656 31.8791 6.50297 30.9375 6.84484ZM45.7031 6.73484C45.2424 6.93719 44.9319 7.32906 42.7816 10.4219C40.4656 13.753 40.4672 13.7503 40.4742 14.5131C40.4811 15.2505 40.7425 15.7403 41.3386 16.1334C41.7653 16.4145 42.1128 16.4355 46.375 16.4364C50.0685 16.4373 51.0377 16.3937 51.3908 16.2111C52.1721 15.8072 52.5992 14.8283 52.3594 13.9919C52.2099 13.4703 48.1939 7.64094 47.5994 7.0825C47.1842 6.69234 46.2075 6.51328 45.7031 6.73484ZM33.8788 9.35969C34.6155 9.90531 35 10.6284 35 11.4684C35 13.7767 32.4905 14.9161 30.79 13.38C29.4124 12.1353 29.7717 9.94641 31.4844 9.15031C32.11 8.85953 33.3499 8.96797 33.8788 9.35969ZM48.1264 11.75L49.7047 14.0156L48.0555 14.06C47.1485 14.0844 45.6694 14.0844 44.7686 14.06L43.131 14.0156L44.7296 11.7167C45.6088 10.4523 46.3777 9.43281 46.4383 9.45109C46.4988 9.46938 47.2585 10.5039 48.1264 11.75ZM66.1088 14.7602C65.2958 15.178 65.196 15.52 64.2171 21.2416C63.6989 24.2705 63.3172 26.917 63.3689 27.1228C63.4205 27.3286 63.6725 27.6981 63.9288 27.9437C64.3872 28.3836 64.4275 28.3914 66.4942 28.4417L68.5938 28.493V41.2009V53.9091L66.9796 53.9623C65.4933 54.0114 65.3197 54.0503 64.7919 54.4534C64.0247 55.0391 63.7742 55.5752 63.6517 56.8942L63.5489 58H59.1963H54.8438V57.1406V56.2812H56.4894C58.7925 56.2812 59.7185 55.8322 60.5166 54.3281C60.8055 53.7836 60.8481 53.4417 60.8481 51.6719C60.8481 49.902 60.8055 49.5602 60.5166 49.0156C59.748 47.5673 58.7713 47.0625 56.7372 47.0625H55.3394L55.2869 42.9609C55.2352 38.9227 55.2286 38.8512 54.8596 38.3339C54.1464 37.3341 54.7827 37.375 39.966 37.3753C27.4397 37.3755 26.4464 37.3948 25.9486 37.6488C25.6539 37.7989 25.2672 38.1203 25.0892 38.3628C24.7847 38.7777 24.7625 39.0473 24.7131 42.9331L24.6606 47.0625L23.2288 47.0659C21.501 47.07 20.7888 47.342 19.9545 48.3167C19.2638 49.1238 19.1414 49.6281 19.1414 51.6719C19.1414 53.7156 19.2638 54.22 19.9545 55.027C20.8219 56.0403 21.4791 56.2737 23.4766 56.2778L25.1563 56.2812V57.1406V58H20.2555H15.3545L16.1925 53.1172C16.6535 50.4317 16.992 48.0509 16.9452 47.8267C16.8983 47.6023 16.6663 47.2334 16.4295 47.0067L15.9992 46.5944L16.6695 45.2269C17.9877 42.5377 18.5917 39.5309 18.5922 35.6562C18.5925 32.8662 18.3308 30.9594 17.638 28.7031C15.867 22.9366 12.0703 20.0931 8.40767 21.7906C7.43283 22.2423 6.13017 23.3525 5.91705 23.9131C5.64251 24.6353 6.29111 25.5 7.1072 25.5C7.22689 25.5 7.66298 25.207 8.07642 24.8491C9.08939 23.972 10.0333 23.5673 10.82 23.6728C12.8891 23.9505 14.8655 26.7752 15.8085 30.8025C16.2616 32.7381 16.3789 37.3683 16.0263 39.4062C15.5666 42.0633 14.8817 43.9805 13.822 45.577L13.251 46.4375H10.5469H7.84283L7.27173 45.577C6.21205 43.9805 5.5272 42.0633 5.06751 39.4062C4.70939 37.3364 4.83189 32.7408 5.29861 30.7423C5.70345 29.0081 5.70517 28.7052 5.31251 28.3125C4.92001 27.92 4.04533 27.8987 3.71017 28.2734C3.05736 29.0031 2.50111 32.4011 2.50158 35.6562C2.50205 39.4725 3.09173 42.452 4.38564 45.1745L5.01064 46.4897L4.54736 46.9714C4.29267 47.2364 4.04361 47.6289 3.99392 47.8438C3.94439 48.0586 4.28158 50.4317 4.7433 53.1172L5.58298 58L4.31486 58.0009C2.5633 58.002 1.93501 58.2097 1.07236 59.0723C0.0679832 60.0766 -0.215298 61.1908 0.172671 62.6094C0.392046 63.4111 1.62892 64.6358 2.44955 64.8636C2.86033 64.9777 11.5764 65.0298 30.3586 65.0303L57.6705 65.0312L58.0539 64.6477C58.2649 64.4367 58.4375 64.082 58.4375 63.8594C58.4375 63.6367 58.2649 63.282 58.0539 63.0711L57.6705 62.6875H30.3906H3.1108L2.72736 62.3039C2.23845 61.8152 2.23845 61.2161 2.72736 60.7273L3.1108 60.3438H40H76.8892L77.2727 60.7273C77.7616 61.2161 77.7616 61.8152 77.2727 62.3039L76.8892 62.6875H69.7156C62.695 62.6875 62.5335 62.6944 62.1305 63.0114C61.8319 63.2462 61.7188 63.4792 61.7188 63.8594C61.7188 64.2395 61.8319 64.4725 62.1305 64.7073C62.5335 65.0244 62.6949 65.0312 69.7296 65.0312C74.9377 65.0312 77.0939 64.9786 77.56 64.8403C78.8294 64.4633 80 62.8683 80 61.5156C80 59.7175 78.3166 58.0047 76.546 58.0009C76.1552 58 76.1344 57.955 76.0358 56.8942C75.9133 55.5752 75.6628 55.0391 74.8956 54.4534C74.3678 54.0503 74.1942 54.0114 72.708 53.9623L71.0938 53.9091V41.2009V28.493L73.1933 28.4417C75.26 28.3914 75.3003 28.3836 75.7588 27.9437C76.015 27.6981 76.2671 27.3286 76.3186 27.1228C76.471 26.5161 74.5825 15.8081 74.2413 15.3438C73.708 14.618 73.4203 14.567 69.8438 14.567C67.4846 14.567 66.3725 14.6245 66.1088 14.7602ZM72.4097 17.3359C72.5033 17.7784 73.9063 25.9641 73.9063 26.0673C73.9063 26.0991 72.0781 26.125 69.8438 26.125C67.6094 26.125 65.7813 26.0991 65.7813 26.0673C65.7813 25.9641 67.1842 17.7784 67.2778 17.3359L67.3686 16.9062H69.8438H72.3189L72.4097 17.3359ZM52.8125 43.3906V47.0625H40H27.1875V43.3906V39.7188H40H52.8125V43.3906ZM14.5313 48.8389C14.5313 48.9422 13.1283 57.1278 13.0347 57.5703L12.9439 58H10.4688H7.99361L7.90283 57.5703C7.80923 57.1278 6.40627 48.9422 6.40627 48.8389C6.40627 48.8072 8.23439 48.7812 10.4688 48.7812C12.7031 48.7812 14.5313 48.8072 14.5313 48.8389ZM58.0902 49.6495C58.4146 49.8766 58.4375 50.0105 58.4375 51.6719C58.4375 53.3333 58.4146 53.4672 58.0902 53.6942C57.781 53.9109 55.806 53.9375 40 53.9375C24.1941 53.9375 22.2191 53.9109 21.9099 53.6942C21.5855 53.4672 21.5625 53.3333 21.5625 51.6719C21.5625 50.0105 21.5855 49.8766 21.9099 49.6495C22.2191 49.4328 24.1941 49.4062 40 49.4062C55.806 49.4062 57.781 49.4328 58.0902 49.6495ZM29.8438 57.1406V58H28.6719H27.5V57.1406V56.2812H28.6719H29.8438V57.1406ZM47.8125 57.1406V58H40H32.1875V57.1406V56.2812H40H47.8125V57.1406ZM52.5 57.1406V58H51.3281H50.1563V57.1406V56.2812H51.3281H52.5V57.1406ZM73.5938 57.1406V58H69.8438H66.0938V57.1406V56.2812H69.8438H73.5938V57.1406Z" 
fill="#F7F6F5"/></svg>
