<svg width="86" height="86" viewBox="0 0 86 86" fill="none" xmlns="http://www.w3.org/2000/svg">
<path fill-rule="evenodd" clip-rule="evenodd" d="M0.439854 0.439854L0 0.879529V24.3667V47.8538L0.439854 48.2935L0.879529 48.7333H10.0333H19.1871L19.6268 48.2935C20.2087 47.7117 20.2087 46.8883 19.6268 46.3065C19.2658 45.9453 19.0096 45.8667 18.1935 45.8667H17.2V43.4399C17.2 41.1019 17.1839 40.9967 16.7601 40.5732C16.1784 39.9913 15.3549 39.9913 14.7732 40.5732C14.3495 40.9967 14.3333 41.1019 14.3333 43.4399V45.8667H8.6H2.86667V41.5667V37.2667H7.44348H12.0205L12.4601 36.8268C13.0421 36.2451 13.0421 35.4216 12.4601 34.8399L12.0205 34.4H7.44348H2.86667V30.1V25.8H6.01015C9.10901 25.8 9.16008 25.7937 9.59348 25.3601C10.1754 24.7784 10.1754 23.9549 9.59348 23.3732C9.16008 22.9396 9.10901 22.9333 6.01015 22.9333H2.86667V18.6333V14.3333H5.73333H8.6V17.5664C8.6 20.7602 8.60538 20.805 9.03985 21.2393C9.62161 21.8212 10.4451 21.8212 11.0268 21.2393C11.4613 20.805 11.4667 20.7602 11.4667 17.5664V14.3333H12.4421C13.2067 14.3333 13.523 14.2427 13.9053 13.9137C14.5745 13.3381 14.5745 12.4619 13.9053 11.8863C13.4176 11.4668 13.4158 11.4667 8.14205 11.4667H2.86667V7.16667V2.86667H8.6H14.3333V5.90247C14.3333 8.82772 14.3486 8.95618 14.7529 9.42614C15.3286 10.0953 16.2047 10.0953 16.7804 9.42614C17.1848 8.95618 17.2 8.82772 17.2 5.90247V2.86667H21.0601C24.9199 2.86667 24.9205 2.86667 25.3601 2.42681C25.9421 1.84506 25.9421 1.02161 25.3601 0.439854L24.9205 0H12.9H0.879529L0.439854 0.439854ZM31.5719 0.225212C30.386 0.605225 29.2626 1.89666 28.7842 3.43032C28.7335 3.59283 28.2643 3.86552 27.7388 4.03788C22.9944 5.59358 18.6464 9.47039 16.3314 14.209C15.1862 16.5532 14.3333 19.9765 14.3333 22.2296C14.3333 22.7613 14.2618 22.9333 14.0406 22.9333C12.1142 22.9333 10.0333 25.1663 10.0333 27.2333C10.0333 29.2868 12.1142 31.5333 14.0162 31.5333C14.1984 31.5333 14.3201 31.7919 14.395 32.3385C14.6365 34.1006 15.97 35.8873 17.6114 36.6478C18.6172 37.1138 18.8059 37.3278 18.8098 38.0081C18.8143 38.7978 19.6859 41.5507 20.3575 42.8963C21.6419 45.47 23.9569 47.9697 26.2927 49.3049L27.2333 49.8426V52.1391V54.4355L21.724 54.5063C16.3262 54.5756 16.1856 54.5867 14.7813 55.0547C12.7181 55.7423 11.2194 56.6837 9.58488 58.3182C7.95608 59.947 7.01599 61.4407 6.31419 63.5146L5.82901 64.9479L5.77168 75.0246L5.71416 85.1013L6.16351 85.5506L6.61286 86H34.4H62.1871L62.6365 85.5506L63.0858 85.1013L63.0283 75.0246L62.971 64.9479L62.4858 63.5146C61.784 61.4407 60.8439 59.947 59.2151 58.3182C57.5806 56.6837 56.0819 55.7423 54.0188 55.0547C52.6144 54.5867 52.4738 54.5756 47.076 54.5063L41.5667 54.4355V52.1638V49.892L42.5073 49.3257C46.4303 46.9632 49.4317 42.4487 49.9637 38.1102C50.0758 37.195 50.0875 37.1805 51.0899 36.7C52.8655 35.8489 54.1087 34.1913 54.393 32.296C54.4762 31.7408 54.5907 31.5333 54.8134 31.5333C55.6535 31.5333 56.8286 30.9224 57.5661 30.1021C59.1727 28.3153 59.1727 26.1513 57.5661 24.3645C56.8304 23.5463 55.6538 22.9333 54.8187 22.9333C54.5692 22.9333 54.498 22.6666 54.3995 21.3628C53.9573 15.5045 50.8497 10.0102 46.0458 6.59405C44.7695 5.68639 42.5562 4.54295 41.0517 4.01423C40.5221 3.82807 40.0516 3.55413 40.0063 3.4056C39.5322 1.85294 38.3934 0.591608 37.1221 0.2107C36.2657 -0.0458666 32.3863 -0.0358333 31.5719 0.225212ZM49.1732 0.439854C48.745 0.867883 48.7333 0.951554 48.7333 3.58333C48.7333 6.21511 48.745 6.29878 49.1732 6.72681C49.7549 7.30875 50.5784 7.30875 51.1601 6.72681C51.5658 6.32136 51.6 6.15384 51.6 4.57681V2.86667H58.7667H65.9333V7.16667V11.4667H60.5503H55.167L54.7274 11.9065C54.1454 12.4883 54.1454 13.3117 54.7274 13.8935C55.0972 14.2635 55.339 14.3333 56.2503 14.3333H57.3333V17.2654C57.3333 19.9604 57.3634 20.2356 57.7047 20.6696C58.2292 21.3364 59.3042 21.3364 59.8286 20.6696C60.1699 20.2356 60.2 19.9604 60.2 17.2654V14.3333H67.3667H74.5333V18.6333V22.9333H67.8065H61.0795L60.6399 23.3732C60.3625 23.6504 60.2 24.0176 60.2 24.3667C60.2 24.9645 60.874 25.8 61.3565 25.8C61.5986 25.8 61.6333 26.3411 61.6333 30.1V34.4H59.2065C56.8686 34.4 56.7634 34.4161 56.3399 34.8399L55.9 35.2795V40.5732V45.8667H52.7565C49.6577 45.8667 49.6066 45.8729 49.1732 46.3065C48.5913 46.8883 48.5913 47.7117 49.1732 48.2935L49.6129 48.7333H53.75H57.8871L58.3268 48.2935L58.7667 47.8538V42.5601V37.2667H61.1935C63.5314 37.2667 63.6366 37.2505 64.0601 36.8268L64.5 36.3871V31.0935V25.8H73.8167H83.1333V30.1V34.4H81.4232C79.8462 34.4 79.6786 34.4342 79.2732 34.8399C78.9958 35.117 78.8333 35.4843 78.8333 35.8333C78.8333 36.1823 78.9958 36.5496 79.2732 36.8268C79.6786 37.2324 79.8462 37.2667 81.4232 37.2667H83.1333V42.5601V47.8538L83.5732 48.2935C83.8504 48.5708 84.2177 48.7333 84.5667 48.7333C84.9157 48.7333 85.283 48.5708 85.5602 48.2935L86 47.8538V24.3667V0.879529L85.5602 0.439854L85.1205 0H67.3667H49.6129L49.1732 0.439854ZM36.8268 3.30652L37.2667 3.7462V10.0333V16.3205L37.7065 16.7601C37.9837 17.0375 38.351 17.2 38.7 17.2C39.049 17.2 39.4163 17.0375 39.6935 16.7601L40.1333 16.3205V11.5643C40.1333 8.36314 40.1948 6.80833 40.3215 6.80833C40.4248 6.80833 40.7473 6.93142 41.0381 7.08174L41.5667 7.35497V10.4044C41.5667 13.4031 41.574 13.4611 42.0065 13.8935C42.5401 14.4272 43.3316 14.4677 43.9207 13.9915C44.3176 13.6708 44.3493 13.5015 44.4333 11.2592L44.5229 8.86875L46.332 10.6604C50.0791 14.3717 51.6 18.2087 51.6 23.9503C51.6 26.2633 51.6165 26.3703 52.0399 26.7935C52.317 27.0708 52.6843 27.2333 53.0333 27.2333C53.6312 27.2333 54.4667 26.5593 54.4667 26.0768C54.4667 25.6617 54.9637 25.7432 55.4602 26.2399C56.0421 26.8216 56.0421 27.6451 55.4602 28.2268L55.0205 28.6667H34.4H13.7795L13.3399 28.2268C12.7579 27.6451 12.7579 26.8216 13.3399 26.2399C13.8363 25.7432 14.3333 25.6617 14.3333 26.0768C14.3333 26.2291 14.5313 26.5516 14.7732 26.7935C15.3549 27.3754 16.1784 27.3754 16.7601 26.7935C17.1835 26.3703 17.2 26.2633 17.2 23.9503C17.2 18.2087 18.7209 14.3717 22.468 10.6604L24.2771 8.86875L24.3667 11.2592C24.4507 13.5015 24.4824 13.6708 24.8793 13.9915C25.4684 14.4677 26.2599 14.4272 26.7935 13.8935C27.226 13.4611 27.2333 13.4031 27.2333 10.4044V7.35497L27.7619 7.08174C28.0527 6.93142 28.3752 6.80833 28.4785 6.80833C28.6052 6.80833 28.6667 8.36314 28.6667 11.5643V16.3205L29.1065 16.7601C29.6883 17.3421 30.5117 17.3421 31.0935 16.7601L31.5333 16.3205V10.0333V3.7462L31.9732 3.30652C32.3872 2.89247 32.5291 2.86667 34.4 2.86667C36.2709 2.86667 36.4128 2.89247 36.8268 3.30652ZM83.1333 7.16667V11.4667H75.9667H68.8V7.16667V2.86667H75.9667H83.1333V7.16667ZM83.1333 18.6333V22.9333H80.2667H77.4V18.6333V14.3333H80.2667H83.1333V18.6333ZM30.5399 20.5065C30.1787 20.8675 30.1 21.1237 30.1 21.9399V22.9333H25.5232H20.9462L20.5065 23.3732C19.9246 23.9549 19.9246 24.7784 20.5065 25.3601L20.9462 25.8H26.5167H32.0871L32.5268 25.3601C32.888 24.9991 32.9667 24.7429 32.9667 23.9268V22.9333H34.4H35.8333V23.9268C35.8333 24.7429 35.912 24.9991 36.2732 25.3601L36.7129 25.8H42.2833H47.8538L48.2935 25.3601C48.5708 25.083 48.7333 24.7157 48.7333 24.3667C48.7333 24.0176 48.5708 23.6504 48.2935 23.3732L47.8538 22.9333H43.2768H38.7V21.9399C38.7 21.1237 38.6213 20.8675 38.2601 20.5065C37.8241 20.0702 37.7927 20.0667 34.4 20.0667C31.0073 20.0667 30.9759 20.0702 30.5399 20.5065ZM70.0961 29.1273C69.5478 29.4005 69.0234 29.828 68.807 30.1785C68.6061 30.5033 66.5767 35.5569 64.2968 41.4085C60.6911 50.664 60.1516 52.176 60.1502 53.0333C60.1471 54.6725 60.9848 56.0822 62.4174 56.8485C63.0946 57.2108 63.4517 57.2486 66.6948 57.302L70.2333 57.3602V60.2134C70.2333 62.7341 70.1993 63.0667 69.9406 63.0667C68.5743 63.0667 66.5642 64.6458 66.1512 66.0437C65.843 67.0868 65.843 81.9799 66.1512 83.023C66.442 84.0071 67.9262 85.4913 68.9104 85.7821C69.316 85.902 70.5564 86 71.6667 86C72.777 86 74.0173 85.902 74.423 85.7821C75.4071 85.4913 76.8913 84.0071 77.1821 83.023C77.4903 81.9799 77.4903 67.0868 77.1821 66.0437C76.7692 64.6458 74.7591 63.0667 73.3928 63.0667C73.134 63.0667 73.1 62.7341 73.1 60.2134V57.3602L76.6385 57.302C79.8816 57.2486 80.2387 57.2108 80.916 56.8485C82.3488 56.082 83.1864 54.6722 83.183 53.0333C83.181 52.1782 82.6555 50.6974 79.2087 41.8354C77.0241 36.2185 75.0406 31.2166 74.8007 30.7197C73.8891 28.8322 71.9831 28.1869 70.0961 29.1273ZM18.6333 32.8187V34.1042L18.1623 33.6697C17.6795 33.2245 17.2 32.2968 17.2 31.8078C17.2 31.607 17.3924 31.5333 17.9167 31.5333H18.6333V32.8187ZM26.2399 31.9732C25.6579 32.5549 25.6579 33.3784 26.2399 33.9601C26.624 34.3445 26.8401 34.4 27.95 34.4C29.0599 34.4 29.276 34.3445 29.6601 33.9601C29.9375 33.683 30.1 33.3157 30.1 32.9667C30.1 32.6176 29.9375 32.2504 29.6601 31.9732L29.2205 31.5333H34.4H39.5795L39.1399 31.9732C38.8625 32.2504 38.7 32.6176 38.7 32.9667C38.7 33.3157 38.8625 33.683 39.1399 33.9601C39.524 34.3445 39.7401 34.4 40.85 34.4C41.9599 34.4 42.176 34.3445 42.5601 33.9601C42.8375 33.683 43 33.3157 43 32.9667C43 32.6176 42.8375 32.2504 42.5601 31.9732L42.1205 31.5333H44.7318H47.3432L47.2581 34.8927C47.183 37.8574 47.1201 38.4135 46.7227 39.6258C46.0256 41.753 45.0825 43.2782 43.4637 44.897C41.8492 46.5115 40.3295 47.4527 38.1924 48.1614C36.9933 48.5592 36.5113 48.6171 34.4 48.6171C32.2887 48.6171 31.8067 48.5592 30.6076 48.1614C28.4705 47.4527 26.9508 46.5115 25.3363 44.897C23.7175 43.2782 22.7744 41.753 22.0773 39.6258C21.6799 38.4135 21.617 37.8574 21.5419 34.8927L21.4568 31.5333H24.0682H26.6795L26.2399 31.9732ZM51.6 31.8078C51.6 32.2968 51.1206 33.2245 50.6377 33.6697L50.1667 34.1042V32.8187V31.5333H50.8833C51.4076 31.5333 51.6 31.607 51.6 31.8078ZM72.1508 31.7573C72.5209 32.2464 80.3195 52.6196 80.3229 53.1064C80.3253 53.4544 80.1642 53.767 79.8386 54.0471C79.3674 54.4523 79.2445 54.4667 76.2254 54.4667H73.1V50.6065C73.1 46.7467 73.1 46.7462 72.6602 46.3065C72.383 46.0292 72.0157 45.8667 71.6667 45.8667C71.3177 45.8667 70.9504 46.0292 70.6732 46.3065C70.2333 46.7462 70.2333 46.7467 70.2333 50.6065V54.4667H67.108C64.0888 54.4667 63.9659 54.4523 63.4947 54.0471C63.1692 53.767 63.0081 53.4544 63.0104 53.1064C63.0138 52.6196 70.8124 32.2464 71.1826 31.7573C71.2759 31.6342 71.4938 31.5333 71.6667 31.5333C71.8396 31.5333 72.0574 31.6342 72.1508 31.7573ZM29.1065 40.5732C28.4013 41.2782 28.5095 42.0151 29.4512 42.9174C31.0336 44.4335 33.4243 45.181 35.5135 44.813C37.7649 44.4163 40.1333 42.7637 40.1333 41.5892C40.1333 40.8427 39.4473 40.1333 38.7251 40.1333C38.3788 40.1333 37.928 40.3585 37.4181 40.7864C36.3664 41.6686 35.687 41.925 34.4 41.925C33.113 41.925 32.4336 41.6686 31.3819 40.7864C30.4436 39.9991 29.7458 39.9337 29.1065 40.5732ZM32.25 51.4303C33.9756 51.7238 35.7676 51.6351 38.1177 51.1403L38.7 51.0177V53.7516C38.7 55.3743 38.6115 56.7853 38.4821 57.223C38.1913 58.2071 36.7071 59.6913 35.723 59.9821C34.0431 60.4784 32.7038 60.1285 31.4377 58.8623C30.2476 57.6723 30.1 57.1083 30.1 53.7516V51.0177L30.6823 51.1403C31.0025 51.2078 31.708 51.3382 32.25 51.4303ZM22.9333 64.0601V70.7871L23.3732 71.2268L23.8129 71.6667H34.4H44.9871L45.4268 71.2268L45.8667 70.7871V64.0601V57.3333H47.3H48.7333V70.2333V83.1333H47.3H45.8667V79.2732C45.8667 75.4134 45.8667 75.4129 45.4268 74.9732L44.9871 74.5333H34.4H23.8129L23.3732 74.9732C22.9333 75.4129 22.9333 75.4134 22.9333 79.2732V83.1333H21.5H20.0667V70.2333V57.3333H21.5H22.9333V64.0601ZM27.4125 57.5781C27.4125 57.7126 27.6956 58.3884 28.0414 59.0798C28.8057 60.6074 29.8809 61.6425 31.5011 62.41C32.5834 62.9228 32.8608 62.9771 34.4 62.9771C35.9392 62.9771 36.2166 62.9228 37.2989 62.41C38.9191 61.6425 39.9943 60.6074 40.7586 59.0798C41.1044 58.3884 41.3875 57.7126 41.3875 57.5781C41.3875 57.4075 41.6317 57.3333 42.1938 57.3333H43V63.0667V68.8H34.4H25.8V63.0667V57.3333H26.6063C27.1683 57.3333 27.4125 57.4075 27.4125 57.5781ZM17.2 70.3229V83.1333H12.8907H8.58155L8.63691 74.2198L8.69209 65.3062L9.15291 64.1202C9.81511 62.4152 10.4148 61.4699 11.5616 60.3231C12.9772 58.9075 15.4836 57.5682 16.7969 57.5256L17.2 57.5125V70.3229ZM53.3521 57.8857C55.437 58.5896 57.6707 60.3627 58.7238 62.1493C58.9783 62.5811 59.3938 63.468 59.6471 64.1202L60.1079 65.3062L60.1631 74.2198L60.2185 83.1333H55.9093H51.6V70.3229C51.6 55.7142 51.3875 57.2222 53.3521 57.8857ZM74.0935 66.3732L74.5333 66.8129V74.5333V82.2538L74.0935 82.6935C73.6794 83.1075 73.5375 83.1333 71.6667 83.1333C69.7958 83.1333 69.6539 83.1075 69.2399 82.6935L68.8 82.2538V74.5333V66.8129L69.2399 66.3732C69.6539 65.9591 69.7958 65.9333 71.6667 65.9333C73.5375 65.9333 73.6794 65.9591 74.0935 66.3732ZM43 80.2667V83.1333H34.4H25.8V80.2667V77.4H34.4H43V80.2667Z" fill="#F7F6F5"/>
</svg>
