<svg width="63" height="65" viewBox="0 0 63 65" fill="none" xmlns="http://www.w3.org/2000/svg">
<path fill-rule="evenodd" clip-rule="evenodd" d="M16.3772 0.0446854C14.0494 0.422467 12.2057 1.37068 10.5718 3.03009C9.63043 3.98627 9.2344 4.52949 8.75495 5.52131C7.92577 7.23712 7.69332 8.24263 7.59031 10.5604C7.48209 12.9966 7.65636 13.8742 8.41874 14.7309C9.79817 16.2812 11.8928 16.263 13.2225 14.6891C13.8961 13.8918 14.0764 13.0941 14.0764 10.9133C14.0764 9.45192 14.119 9.17625 14.4453 8.52371C15.5436 6.32801 18.4487 5.87683 20.1883 7.63189C21.3079 8.76148 21.3499 9.03353 21.3499 15.1639V20.4002H11.0499C1.13001 20.4002 0.736946 20.4109 0.399547 20.6878L0.0490865 20.9752L0.00989899 42.3816C-0.0194916 58.46 0.014055 63.8939 0.144383 64.2141C0.239977 64.4486 0.478962 64.7023 0.675641 64.7781C1.16801 64.9677 61.4373 64.962 61.9299 64.7722C62.1821 64.6751 62.3554 64.4439 62.4659 64.0579C62.5818 63.6518 62.6162 57.3534 62.5851 42.2312L62.5413 20.9752L62.1908 20.6878C61.8622 20.4181 61.5463 20.4002 57.1068 20.4002H52.3733L52.3708 14.723C52.3678 8.39603 52.2966 7.72574 51.4307 5.89187C50.1643 3.20921 48.0897 1.35985 45.3225 0.446981C44.3571 0.128453 43.8297 0.0523554 42.5022 0.0394218C40.5265 0.0203222 39.6743 0.215078 37.8396 1.10464C35.5304 2.22445 33.7352 4.29021 32.8122 6.88987C32.4554 7.89508 32.4156 8.23481 32.3636 10.7163C32.2994 13.7841 32.3955 14.1807 33.426 15.0973C34.8889 16.3986 37.2307 15.9942 38.2293 14.2679C38.6164 13.5988 38.6446 13.4264 38.7157 11.2895C38.789 9.08918 38.8046 8.99955 39.2404 8.28564C39.8695 7.25531 40.8431 6.66984 42.0579 6.59134C42.5723 6.55825 43.2413 6.61435 43.546 6.71616C44.2511 6.95198 45.1772 7.79717 45.593 8.58432C45.9059 9.17655 45.9176 9.37537 45.9602 14.7982L46.004 20.4002H36.8788H27.7536L27.6991 14.347C27.6467 8.5216 27.6319 8.25406 27.3044 7.24103C26.7442 5.50763 26.0215 4.34811 24.6305 2.95098C23.249 1.56363 21.9405 0.780848 20.2366 0.322758C19.3124 0.0743128 17.1529 -0.0813419 16.3772 0.0446854ZM19.3099 2.27317C21.5186 2.74736 23.614 4.35969 24.6716 6.39884C25.6967 8.37527 25.6491 7.18463 25.652 30.9396L25.6546 52.3823L24.5423 52.0695L23.4301 51.7567L23.429 30.8221C23.4283 15.8984 23.38 9.65886 23.2612 9.09068C22.7596 6.69571 20.9332 4.89689 18.564 4.46407C16.1186 4.01756 13.5628 5.4013 12.4628 7.76739C12.1199 8.50521 12.0696 8.83607 11.9971 10.8293C11.9167 13.0423 11.9118 13.0678 11.5036 13.4236C10.9817 13.8785 10.6385 13.8773 10.114 13.4191L9.69752 13.0551L9.70539 10.9752C9.71177 9.28589 9.77352 8.69651 10.0342 7.83627C10.7989 5.31377 12.8178 3.26635 15.3381 2.45755C16.7367 2.00879 17.8399 1.9575 19.3099 2.27317ZM43.955 2.27408C47.0025 2.92828 49.512 5.45318 50.1323 8.48912C50.2462 9.04662 50.2952 16.0014 50.2952 31.6285V53.9709L49.7385 53.8692C49.4325 53.8134 48.9315 53.6935 48.6253 53.603L48.0686 53.4385L48.0698 51.6201L48.0708 49.8016L48.6514 49.4658C49.4377 49.011 50.0673 47.7436 49.9648 46.8222C49.8571 45.8544 49.4215 45.0701 48.709 44.5614L48.0686 44.104V41.0752V38.0463L48.6205 37.6828C49.7127 36.9632 50.2242 35.5931 49.8603 34.3622C49.6676 33.7108 48.8071 32.6486 48.3539 32.5029C48.0845 32.4163 48.0686 32.2367 48.0686 29.2632C48.0686 27.2708 48.1229 26.1151 48.2166 26.1151C48.5453 26.1151 49.5514 25.0014 49.7866 24.3773C50.2385 23.1785 49.8016 21.7461 48.7486 20.9736L48.1428 20.5292L48.0668 14.7123C47.9932 9.07835 47.98 8.8681 47.6481 8.03103C47.2516 7.03093 46.0948 5.67426 45.1705 5.12548C44.8229 4.91915 44.0621 4.64965 43.4798 4.52663C40.6132 3.921 37.8871 5.50793 36.9495 8.3279C36.7059 9.0603 36.6389 9.63434 36.6389 10.9889C36.6389 12.8572 36.5073 13.3577 35.9477 13.6161C35.439 13.8508 35.2497 13.8269 34.8035 13.4713C34.4137 13.1607 34.4124 13.1526 34.4124 11.0172C34.4124 7.83101 34.9895 6.23236 36.7862 4.44106C38.7508 2.48252 41.3152 1.7074 43.955 2.27408ZM21.3499 23.4091V24.3126L11.7385 24.2738L2.12721 24.2352L2.08268 23.3704L2.03815 22.5057H11.694H21.3499V23.4091ZM47.6891 22.84C48 23.2898 47.98 23.6482 47.6233 24.0096C47.3324 24.3043 47.1286 24.3104 37.5296 24.3104H27.7327V23.408V22.5057H37.5953H47.4581L47.6891 22.84ZM60.5077 23.3704L60.4631 24.2352L56.4182 24.2752L52.3733 24.3152V23.4104V22.5057H56.4628H60.5522L60.5077 23.3704ZM21.3499 38.9614V51.5072L20.3479 51.5984C18.8493 51.7351 17.2193 52.1973 15.5997 52.9449C13.7359 53.8051 12.7478 53.9928 10.5553 53.9032C8.69706 53.8272 8.43788 53.7537 5.68645 52.5235C5.03139 52.2307 3.96264 51.9 3.31145 51.7885L2.12721 51.5858L2.08921 39.0008L2.05136 26.4158H11.7005H21.3499V38.9614ZM45.9905 29.2733V32.1307H36.8616H27.7327V29.2733V26.4158H36.8616H45.9905V29.2733ZM60.5012 39.0008L60.4631 51.5858L59.2789 51.7885C58.6277 51.9 57.559 52.2325 56.9039 52.5274C55.2315 53.2806 53.9015 53.7465 53.0784 53.8677L52.3733 53.9715V40.1937V26.4158H56.4562H60.539L60.5012 39.0008ZM47.529 34.5479C47.9761 34.9042 48.0314 35.3663 47.6745 35.7658C47.4412 36.027 46.9329 36.0408 37.5808 36.0408H27.7327V35.1385V34.2361H37.4353C47.0264 34.2361 47.1425 34.2398 47.529 34.5479ZM45.9905 41.0789V44.0115H36.8616H27.7327V41.0789V38.1463H36.8616H45.9905V41.0789ZM47.6891 46.4513C48 46.9011 47.98 47.2595 47.6233 47.6209C47.3324 47.9157 47.1286 47.9217 37.5296 47.9217H27.7327V47.0193V46.117H37.5953H47.4581L47.6891 46.4513ZM45.9905 51.2464C45.9905 52.3469 45.9653 52.4555 45.7307 52.3615C45.5879 52.3042 45.0034 52.135 44.4319 51.9854C41.4648 51.2091 38.6948 51.5317 35.5999 53.0139C33.9736 53.7928 32.9669 53.9806 30.8558 53.899C29.7516 53.8561 28.7529 53.7362 28.4006 53.6041L27.8069 53.3812L27.7649 51.7042L27.7229 50.0272H36.8567H45.9905V51.2464ZM23.8962 54.0334C24.3303 54.164 25.321 54.5593 26.0978 54.9121C27.9662 55.7607 29.2634 56.0428 31.2952 56.0428C33.3377 56.0428 34.6389 55.7587 36.4905 54.9085C38.6373 53.9227 39.4337 53.7292 41.3147 53.7362C43.2759 53.7438 43.9271 53.8904 45.9366 54.7769C48.3002 55.8196 48.6821 55.9124 50.9715 55.9995C53.4364 56.0933 54.6658 55.848 56.8575 54.8252C58.2689 54.1665 59.4538 53.7916 60.1342 53.7887L60.5475 53.7869L60.5053 55.3878L60.4631 56.9889L59.2014 57.254C57.8128 57.5458 57.2446 57.7405 55.7491 58.437C54.3422 59.0923 53.1306 59.3466 51.4025 59.3491C49.6372 59.3518 48.7427 59.1395 46.6727 58.2263C44.5901 57.3076 43.4717 57.0665 41.3147 57.0715C39.2023 57.0763 37.8701 57.3799 35.9393 58.2967C34.1504 59.1461 33.2462 59.3514 31.2952 59.3514C29.3441 59.3514 28.44 59.1461 26.651 58.2967C24.6861 57.3638 23.3925 57.0734 21.2014 57.0734C19.0209 57.0734 17.8181 57.3435 15.8069 58.2848C13.9828 59.1387 13.0549 59.3514 11.1546 59.3514C9.27685 59.3514 8.3083 59.1338 6.50612 58.3071C4.99235 57.6127 4.47713 57.4419 3.14401 57.193L2.12721 57.0032L2.08506 55.3951L2.0429 53.7869H2.46639C3.09502 53.7869 4.3416 54.1877 5.77788 54.8518C7.69644 55.7388 9.05865 56.0432 11.0943 56.0402C13.2902 56.0368 14.4374 55.7846 16.5259 54.846C18.0577 54.1575 18.8126 53.9209 20.0881 53.7298C20.8726 53.6122 23.0815 53.7883 23.8962 54.0334ZM3.56824 59.4215C4.02766 59.5427 5.06034 59.9399 5.86309 60.304C7.92384 61.2389 8.91971 61.4568 11.1305 61.4568C13.3589 61.4568 14.6512 61.1658 16.7437 60.193C18.5769 59.3406 19.2049 59.201 21.2086 59.201C23.1523 59.201 24.0439 59.404 25.8854 60.2661C27.8632 61.1917 29.0674 61.4568 31.2952 61.4568C33.5229 61.4568 34.7272 61.1917 36.705 60.2661C38.5567 59.3992 39.4353 59.2007 41.4103 59.2028C43.3525 59.2049 44.0617 59.3658 45.9742 60.2382C48.1445 61.2283 49.5275 61.5032 51.928 61.4214C54.0866 61.3478 54.6897 61.1898 57.7171 59.9044C58.411 59.6098 59.3316 59.3219 59.763 59.2648L60.5472 59.161L60.5052 60.9481L60.4631 62.7352H31.2952H2.12721L2.08535 60.9681C2.03726 58.9336 1.97313 59.0005 3.56824 59.4215Z" 
fill="#F7F6F5"/>
</svg>
