<svg width="170" height="123" viewBox="0 0 170 123" fill="none" xmlns="http://www.w3.org/2000/svg">
<g clip-path="url(#clip0_870_417)">
<path d="M72.8571 115.031C104.723 115.031 130.555 89.2805 130.555 57.5155C130.555 25.7506 104.723 0 72.8571 0C40.9914 0 15.1592 25.7506 15.1592 57.5155C15.1592 89.2805 40.9914 115.031 72.8571 115.031Z" fill="#F2F2F2"/>
<path d="M22.8935 123C35.5373 123 45.7871 121.365 45.7871 119.349C45.7871 117.332 35.5373 115.697 22.8935 115.697C10.2498 115.697 0 117.332 0 119.349C0 121.365 10.2498 123 22.8935 123Z" fill="#00265C"/>
<path d="M134.577 119.288C154.141 119.288 170 116.759 170 113.639C170 110.518 154.141 107.989 134.577 107.989C115.013 107.989 99.1538 110.518 99.1538 113.639C99.1538 116.759 115.013 119.288 134.577 119.288Z" fill="#00265C"/>
<path d="M126.707 59.3327C126.707 59.3327 127.008 60.3348 125.299 61.2367C123.59 62.1386 123.088 65.5457 125.098 66.5478C127.109 67.5499 127.712 68.8526 126.707 69.7545C125.701 70.6563 123.892 73.0614 126.304 73.6626C128.717 74.2639 129.019 75.4664 128.315 75.9674C127.611 76.4685 129.923 75.0655 129.923 75.0655C129.923 75.0655 130.326 77.4706 132.437 76.8693C134.548 76.2681 140.479 64.8442 137.463 63.2409C134.447 61.6375 126.707 59.3327 126.707 59.3327Z" fill="#00265C"/>
<path d="M130.35 69.0089C130.35 69.0089 131.393 72.647 129.568 72.9069C128.436 73.0829 127.362 73.5286 126.44 74.2062L129.829 78.624H136.085L139.996 74.726C139.996 74.726 134.782 70.828 135.825 68.4892C136.867 66.1504 130.35 69.0089 130.35 69.0089Z" fill="#FFB9B9"/>
<path opacity="0.1" d="M130.35 69.0089C130.35 69.0089 131.393 72.647 129.568 72.9069C128.436 73.0829 127.362 73.5286 126.44 74.2062L129.829 78.624H136.085L139.996 74.726C139.996 74.726 134.782 70.828 135.825 68.4892C136.867 66.1504 130.35 69.0089 130.35 69.0089Z" fill="black"/>
<path d="M131.914 114.226L137.91 116.305L142.081 116.565L141.82 112.926L133.217 110.39L131.914 114.226Z" fill="#FFB9B9"/>
<path d="M139.605 113.446C139.605 113.446 139.605 117.084 140.126 117.084C140.648 117.084 147.686 116.305 149.772 117.084C151.857 117.864 154.986 115.006 153.421 113.446C151.857 111.887 149.306 109.548 147.714 110.068C146.122 110.588 139.605 111.887 139.605 111.887V113.446Z" fill="#575A89"/>
<path d="M120.444 110.068C120.444 110.068 117.315 116.305 119.401 116.825C121.487 117.344 123.833 116.565 124.093 116.305C124.354 116.045 128.004 115.006 128.525 115.525C129.047 116.045 129.047 113.446 129.047 113.446L120.444 110.068Z" fill="#575A89"/>
<path d="M123.051 101.492C123.051 101.492 118.098 108.249 121.747 110.068C125.397 111.887 142.863 111.887 144.167 110.068C145.47 108.249 145.992 102.532 144.167 102.012C142.342 101.492 123.051 101.492 123.051 101.492Z" fill="#00265C"/>
<path opacity="0.2" d="M123.051 101.492C123.051 101.492 118.098 108.249 121.747 110.068C125.397 111.887 142.863 111.887 144.167 110.068C145.47 108.249 145.992 102.532 144.167 102.012C142.342 101.492 123.051 101.492 123.051 101.492Z" fill="black"/>
<path d="M132.436 70.828C135.747 70.828 138.432 68.152 138.432 64.851C138.432 61.5501 135.747 58.8741 132.436 58.8741C129.124 58.8741 126.44 61.5501 126.44 64.851C126.44 68.152 129.124 70.828 132.436 70.828Z" fill="#FFB9B9"/>
<path d="M123.051 74.2063L128.265 73.1668C128.265 73.1668 129.568 77.3247 133.739 76.5451C137.91 75.7655 138.953 73.1668 138.953 73.1668C138.953 73.1668 142.081 74.4661 142.342 74.4661C142.603 74.4661 145.992 75.7655 145.992 76.5451C145.992 77.3247 142.081 85.1207 142.081 85.1207L142.603 99.1536L123.311 98.6338L124.615 84.8609L123.051 74.2063Z" fill="#F25A00"/>
<path d="M120.183 80.9628C120.183 80.9628 118.619 94.7358 119.662 95.7753C120.704 96.8148 124.876 99.6733 124.876 99.6733V96.5549L122.79 92.6569L124.876 83.5615L120.183 80.9628Z" fill="#FFB9B9"/>
<path d="M147.165 80.573C147.165 80.573 146.252 94.7358 146.252 95.2555C146.252 95.7753 143.906 97.5943 143.124 97.5943C142.342 97.5943 141.821 96.295 141.821 96.295L143.645 94.2161L142.342 83.5615L147.165 80.573Z" fill="#FFB9B9"/>
<path d="M144.688 100.453C144.688 100.453 156.419 93.9562 156.68 100.453C156.941 106.95 150.684 109.548 150.684 109.548C150.684 109.548 134.521 114.38 133.869 112.614C133.218 110.848 131.914 107.989 132.957 107.729C134 107.469 135.303 106.95 135.825 107.469C136.346 107.989 142.863 103.571 142.863 103.571L144.688 100.453Z" fill="#00265C"/>
<path opacity="0.2" d="M150.163 99.6733C150.163 99.6733 147.816 100.713 147.034 101.492C146.252 102.272 142.863 103.571 142.863 103.571" stroke="black" stroke-width="2" stroke-miterlimit="10"/>
<path d="M124.615 74.726L123.051 74.2062C123.051 74.2062 117.315 80.1832 119.14 81.7424C120.965 83.3016 122.008 83.8213 122.529 84.3411C123.051 84.8608 125.658 85.1207 125.658 85.1207L124.615 74.726Z" fill="#F25A00"/>
<path d="M143.645 76.0253L145.992 76.5451C145.992 76.5451 147.816 80.4431 148.338 80.9628C148.859 81.4825 147.556 81.2227 146.774 82.2621C145.992 83.3016 145.209 85.1207 143.645 85.1207C142.081 85.1207 139.996 82.522 139.996 82.522L143.645 76.0253Z" fill="#F25A00"/>
<path d="M123.572 102.792C123.572 102.792 113.666 95.7753 110.277 100.973C106.888 106.17 124.875 113.186 127.482 114.226C130.089 115.265 132.436 116.305 132.436 116.305C132.436 116.305 134.782 110.588 134.782 109.548C134.782 108.509 132.957 108.509 132.436 108.509C131.914 108.509 129.568 107.989 129.047 107.209C128.525 106.43 123.572 102.792 123.572 102.792Z" fill="#00265C"/>
<path opacity="0.2" d="M118.098 100.973C118.098 100.973 120.705 103.052 123.051 103.571C125.397 104.091 126.179 105.39 126.179 105.39" stroke="black" stroke-width="2" stroke-miterlimit="10"/>
<path d="M121.774 91.2017L121.982 102.205C121.989 102.568 122.14 102.914 122.401 103.167C122.663 103.42 123.015 103.56 123.379 103.556L143.92 103.326C144.27 103.322 144.605 103.186 144.859 102.945C145.112 102.704 145.264 102.376 145.284 102.028L145.907 91.2551C145.918 91.0678 145.891 90.8803 145.826 90.7041C145.762 90.5279 145.662 90.3666 145.533 90.2302C145.404 90.0938 145.248 89.9852 145.075 89.9109C144.902 89.8366 144.716 89.7983 144.528 89.7983H123.155C122.972 89.7983 122.79 89.8348 122.621 89.9057C122.451 89.9765 122.298 90.0803 122.169 90.211C122.041 90.3417 121.939 90.4966 121.872 90.6667C121.804 90.8368 121.77 91.0187 121.774 91.2017Z" fill="#575A89"/>
<path d="M132.756 57.3428C132.756 57.3428 133.09 58.4529 131.197 59.452C129.304 60.4511 128.747 64.2255 130.974 65.3356C133.201 66.4457 133.87 67.8889 132.756 68.888C131.642 69.8871 129.638 72.5514 132.31 73.2174C134.983 73.8835 135.317 75.2156 134.538 75.7707C133.758 76.3258 136.32 74.7716 136.32 74.7716C136.32 74.7716 136.765 77.4359 139.104 76.7698C141.442 76.1037 143.776 63.9961 141.169 60.8777C138.745 57.9782 132.756 57.3428 132.756 57.3428Z" fill="#00265C"/>
<path d="M132.045 56.2002C132.045 54.5738 136.926 55.7424 139.019 58.0132C140.468 59.5857 142.67 61.9515 140.825 63.6191C138.98 65.2867 143.987 67.4728 145.329 68.1356C146.672 68.7984 149.323 70.8252 146.929 72.185C144.536 73.5447 144.574 74.9173 145.475 75.2423C146.376 75.5673 143.489 74.7591 143.489 74.7591C143.489 74.7591 143.781 77.4444 141.348 77.4316C138.916 77.4187 131.939 64.0944 133.605 60.3908C135.155 56.9471 132.045 56.2002 132.045 56.2002Z" fill="#00265C"/>
<path d="M133.102 55.8437C126.574 55.4519 125.919 60.3498 125.919 60.3498C125.964 63.1842 130.48 61.8032 131.734 62.2257C133.247 61.1407 136.163 59.0878 138.249 57.6227C136.735 56.5598 134.951 55.9433 133.102 55.8437Z" fill="#00265C"/>
<path d="M131.242 87.0981C131.242 87.0981 125.387 59.7436 88.7388 39.9001" stroke="#3F3D56" stroke-width="2" stroke-miterlimit="10"/>
<path d="M90.2487 39.3035L90.3221 39.6034L88.8397 39.9617L89.3067 41.4095L89.0118 41.5037L88.4434 39.7403L90.2487 39.3035Z" fill="#3F3D56"/>
<path d="M10.5918 115.048C10.5918 118.513 8.52578 119.723 5.97695 119.723C5.9179 119.723 5.85895 119.722 5.80009 119.721C5.682 119.718 5.56503 119.712 5.44947 119.705C3.1492 119.542 1.36206 118.27 1.36206 115.048C1.36206 111.714 5.63673 107.506 5.95783 107.195L5.95839 107.194C5.97076 107.182 5.97695 107.176 5.97695 107.176C5.97695 107.176 10.5918 111.584 10.5918 115.048Z" fill="#F25A00"/>
<path d="M5.80876 119.192L7.49663 116.841L5.80454 119.451L5.80004 119.721C5.68195 119.718 5.56498 119.712 5.44942 119.705L5.63134 116.238L5.62993 116.211L5.63302 116.206L5.65018 115.879L3.95386 113.263L5.65551 115.633L5.65946 115.703L5.79695 113.084L4.34469 110.381L5.81466 112.624L5.95778 107.195L5.95834 107.176V107.194L5.93444 111.476L7.38023 109.778L5.92853 111.845L5.8903 114.189L7.24021 111.939L5.88467 114.534L5.86331 115.838L7.82308 112.706L5.856 116.293L5.80876 119.192Z" fill="#3F3D56"/>
<path d="M32.6036 114.151L33.5908 113.42C33.5908 113.42 34.2443 117.058 33.5151 117.603C32.7859 118.148 30.0516 119.057 30.0516 120.147C30.0516 121.238 23.8536 122.691 23.6713 121.056C23.4891 119.42 24.2182 118.512 24.2182 118.512C24.2182 118.512 27.1349 115.604 27.4995 115.059C27.8641 114.514 28.7755 113.424 28.7755 113.424L32.6036 114.151Z" fill="#00265C"/>
<path d="M18.0203 68.9035C18.0203 68.9035 18.0476 69.0634 18.095 69.356C18.1388 69.6159 18.1989 69.9829 18.2718 70.4354C19.0375 75.0928 21.2705 88.8032 21.1192 89.2557C20.9369 89.8008 19.6609 91.7997 21.1192 92.3448C21.2596 92.3975 21.4109 92.5683 21.5731 92.8373C21.8863 93.4165 22.1444 94.0237 22.3442 94.6508C23.2137 97.1657 24.1435 101.191 24.6812 103.978C24.9164 105.203 25.0768 106.188 25.1242 106.704C25.1406 106.823 25.1425 106.944 25.1296 107.064C24.9473 107.791 26.2234 110.335 26.7703 111.062C27.3171 111.788 28.2286 112.515 28.0463 113.242C27.864 113.969 32.6036 115.968 33.1505 114.696C33.6973 113.424 33.6973 112.697 33.8796 112.334C34.0619 111.97 34.2442 109.426 33.3327 109.063C32.4213 108.699 32.9682 102.339 32.0567 101.067C31.7523 100.644 31.2874 99.21 30.8007 97.4855C30.6093 96.8096 30.4161 96.09 30.2265 95.3686C29.4572 92.4121 28.7755 89.4374 28.7755 89.4374L28.9577 68.1767L18.9317 66.9047L18.6747 67.4698L18.1625 68.591L18.0203 68.9035Z" fill="#00265C"/>
<path d="M17.4735 103.793C17.4735 103.793 16.0152 102.339 15.286 103.793C14.5569 105.247 13.8277 110.88 12.5517 112.152C11.2756 113.424 9.63501 119.784 11.4579 120.147C13.2808 120.511 15.286 119.602 15.4683 118.512C15.6506 117.421 19.4787 111.788 19.4787 111.243C19.4787 110.698 16.9267 108.699 16.9267 108.699L17.4735 103.793Z" fill="#00265C"/>
<path d="M39.8953 58.9093C39.8953 58.9093 37.5255 80.1699 36.9786 82.1688C36.4317 84.1677 33.5151 91.7997 32.6036 93.0717C31.6922 94.3437 25.8588 104.701 25.1297 105.247C24.4005 105.792 22.9422 107.245 22.9422 107.245C22.9422 107.245 20.2078 109.971 19.8432 110.516C19.4786 111.062 16.3797 109.426 16.1974 108.336C16.0151 107.246 16.3797 105.428 16.562 104.701C16.7443 103.975 16.1974 102.884 16.7443 102.339C17.2911 101.794 20.0255 99.0683 20.0255 97.7963C20.0255 96.5243 24.7651 89.074 26.588 87.4385C28.4109 85.8031 28.0463 83.0774 28.0463 83.0774V71.9928L18.0203 68.9036C18.0203 68.9036 18.5672 60.1813 19.8432 60.1813C21.1193 60.1813 37.8901 57.2738 39.8953 58.9093Z" fill="#00265C"/>
<path d="M25.1296 28.5627C28.452 28.5627 31.1453 25.878 31.1453 22.5661C31.1453 19.2543 28.452 16.5695 25.1296 16.5695C21.8073 16.5695 19.114 19.2543 19.114 22.5661C19.114 25.878 21.8073 28.5627 25.1296 28.5627Z" fill="#9F616A"/>
<path d="M27.1348 27.2908C27.1348 27.2908 27.864 30.0165 28.7755 30.7433C29.6869 31.4702 26.4057 34.5594 26.4057 34.5594L20.2078 34.9228L19.114 31.4702C19.114 31.4702 21.1192 27.4725 20.5723 24.9285C20.0255 22.3844 27.1348 27.2908 27.1348 27.2908Z" fill="#9F616A"/>
<path d="M29.6869 30.3799C29.6869 30.3799 28.0463 30.5617 27.6817 31.1068C27.3171 31.652 24.7651 33.2874 22.7598 32.924C20.7546 32.5605 19.4786 32.0154 19.114 32.1971C18.7494 32.3788 18.0203 36.1948 18.0203 36.1948L20.0255 42.0097L19.6609 58.0007L19.114 62.3618C19.114 62.3618 18.0203 60.9081 22.3953 61.8167C26.7703 62.7253 32.4213 61.0898 34.2442 60.9081C36.0671 60.7264 39.1661 60.1812 39.3484 59.091C39.5307 58.0007 38.8015 54.0029 38.8015 54.0029L35.8848 41.828L34.0619 35.2863L29.6869 30.3799Z" fill="#F25A00"/>
<path d="M27.9626 29.5597C27.9626 29.5597 29.5046 28.7444 30.0515 29.4713C30.5984 30.1982 37.5255 31.2884 37.5255 31.8336C37.5255 32.3787 38.9838 47.0977 38.6192 48.3697C38.2546 49.6417 39.3484 51.0954 39.3484 51.0954L40.6244 56.5469C40.6244 56.5469 44.088 66.9047 42.6296 67.2681C41.1713 67.6315 39.8953 67.2681 39.3484 67.2681C38.8015 67.2681 38.9838 60.3629 37.5255 58.5458C36.0671 56.7286 34.0619 52.1857 33.6973 51.2771C33.3328 50.3686 28.7755 37.8302 28.9578 36.3765C29.14 34.9228 27.9626 29.5597 27.9626 29.5597Z" fill="#D0CDE1"/>
<path d="M20.3901 30.3799C20.3901 30.3799 18.9318 30.3799 18.7495 30.7434C18.5672 31.1068 16.7443 33.4691 16.0151 34.0143C15.286 34.5594 12.7339 36.9217 12.7339 37.4668C12.7339 38.012 18.0203 42.0097 18.0203 42.0097C18.0203 42.0097 20.2078 52.7309 19.1141 56.3652C18.0203 59.9995 16.3797 68.7219 17.1089 69.267C17.838 69.8122 19.4787 69.9939 19.4787 69.267C19.4787 68.5402 20.5724 60.7264 21.4839 59.091C22.3953 57.4555 25.1297 47.0977 24.036 44.1903C22.9422 41.2829 20.3901 30.3799 20.3901 30.3799Z" fill="#D0CDE1"/>
<path d="M44.4527 48.3697C44.4527 48.3697 44.635 54.0029 42.6298 56.9103C40.6246 59.8177 39.3485 63.0886 39.3485 63.0886C39.3485 63.0886 36.0673 62.18 35.5204 61.0898C34.9735 59.9995 31.51 60.908 31.51 60.5446C31.51 60.1812 35.7027 58.364 36.0673 58.0006C36.4319 57.6372 37.7079 57.6372 38.4371 56.9103C39.1663 56.1834 39.3485 54.548 39.3485 54.548L40.0777 49.8234L44.4527 48.3697Z" fill="#9F616A"/>
<path d="M29.2731 18.8687C29.7358 18.8268 30.2131 18.7807 30.6221 18.5609C31.5386 18.0682 31.7816 16.6652 31.084 15.8947C30.8916 15.6986 30.6765 15.5262 30.4431 15.381L29.0574 14.4408C28.4446 14.025 27.8173 13.6024 27.1025 13.4064C26.456 13.2291 25.7732 13.2473 25.1039 13.2887C23.8048 13.3692 22.4976 13.5355 21.2757 13.9826C20.0537 14.4298 18.9139 15.1778 18.1738 16.2452C17.0006 17.9374 16.9845 20.2196 17.6307 22.1732C18.2768 24.1267 19.5043 25.8279 20.7137 27.4945L21.3413 24.4422C21.3972 24.1703 21.4694 23.8724 21.6963 23.7115C22.26 23.3116 22.9496 24.1327 23.6415 24.1273C24.0861 24.1239 24.4594 23.7594 24.6279 23.3493C24.7963 22.9391 24.8074 22.485 24.8464 22.0435C24.929 21.1084 25.2569 19.8073 26.1452 19.2916C26.973 18.8111 28.3426 18.953 29.2731 18.8687Z" fill="#00265C"/>
<path opacity="0.1" d="M28.9355 69.0502C28.9355 69.0502 28.3198 86.8025 27.9552 87.3476C27.5907 87.8928 27.9552 68.9944 27.9552 68.9944L28.9355 69.0502Z" fill="black"/>
<path d="M36.0671 31.8336H37.5255C37.5255 31.8336 43.7234 40.1925 42.9942 40.7377C42.265 41.2828 42.9942 42.7365 42.9942 42.7365L44.4525 45.4623C44.4525 45.4623 46.2755 47.0977 45.7286 47.4611C45.1817 47.8246 44.4525 49.2783 44.4525 49.2783C44.4525 49.2783 40.8067 48.7331 39.713 50.9137L37.3487 47.9384L36.0671 31.8336Z" fill="#D0CDE1"/>
<path d="M36.5828 34.5223L31.5786 36.5822L35.4295 45.8781L40.4336 43.8182L36.5828 34.5223Z" fill="#00265C"/>
<path d="M35.9962 39.9744C36.549 39.7468 36.8271 39.1521 36.6174 38.6459C36.4077 38.1397 35.7896 37.9138 35.2369 38.1414C34.6842 38.3689 34.4061 38.9637 34.6157 39.4698C34.8254 39.976 35.4435 40.2019 35.9962 39.9744Z" fill="#F25A00"/>
<path d="M32.4215 46.3708C32.4215 46.3708 19.2965 57.2738 17.109 53.8212C14.9215 50.3686 19.4788 47.4611 19.4788 47.4611C19.4788 47.4611 23.4892 47.6429 28.0465 44.7354L32.6038 42.7365C32.6038 42.7365 36.7642 36.8155 38.182 39.0702C39.5997 41.3249 35.7619 45.2489 32.4215 46.3708Z" fill="#9F616A"/>
<path d="M14.739 36.7399L12.7338 37.4668V42.9182L12.0046 44.0085C12.0046 44.0085 12.1869 46.1891 12.7338 46.7343C13.2807 47.2794 14.3744 47.0977 14.0098 48.3697C13.7907 49.199 13.7289 50.0618 13.8276 50.9137C13.8276 50.9137 17.1088 55.0932 17.2911 54.548C17.4734 54.0029 20.0255 47.2794 20.39 47.2794C20.7546 47.2794 16.7442 36.7399 16.7442 36.7399H14.739Z" fill="#D0CDE1"/>
<path d="M38.7104 64.2699C38.7104 64.2699 40.5952 62.4527 39.6528 62.3619C38.7104 62.271 35.4291 60.4539 34.8823 61.3624C34.3354 62.271 38.7104 64.2699 38.7104 64.2699Z" fill="#00265C"/>
<path d="M74.5586 29.6059C76.0109 29.6059 77.1883 28.9845 77.1883 28.2181C77.1883 27.4517 76.0109 26.8303 74.5586 26.8303C73.1063 26.8303 71.929 27.4517 71.929 28.2181C71.929 28.9845 73.1063 29.6059 74.5586 29.6059Z" fill="#57B894"/>
<path d="M84.6134 32.8441C78.6837 30.6116 72.7541 30.6116 66.8245 32.8441V25.5968C72.6249 23.852 78.8129 23.852 84.6134 25.5968V32.8441Z" stroke="#3F3D56" stroke-width="2" stroke-miterlimit="10"/>
<path d="M82.1382 31.3453C77.8586 29.734 73.579 29.734 69.2993 31.3453V26.1146C73.4857 24.8553 77.9518 24.8553 82.1382 26.1146V31.3453Z" stroke="#3F3D56" stroke-width="2" stroke-miterlimit="10"/>
<path d="M75.4868 28.9891C76.9392 28.9891 78.1165 28.3678 78.1165 27.6013C78.1165 26.8349 76.9392 26.2136 75.4868 26.2136C74.0345 26.2136 72.8572 26.8349 72.8572 27.6013C72.8572 28.3678 74.0345 28.9891 75.4868 28.9891Z" stroke="#3F3D56" stroke-width="2" stroke-miterlimit="10"/>
<path d="M76.4922 38.297C77.9152 38.0075 78.9441 37.164 78.7904 36.4131C78.6366 35.6621 77.3584 35.288 75.9354 35.5775C74.5124 35.8671 73.4835 36.7105 73.6373 37.4615C73.791 38.2125 75.0692 38.5865 76.4922 38.297Z" fill="#57B894"/>
<path d="M86.9933 39.4654C80.7356 38.4601 74.9258 39.6421 69.5637 43.0115L68.1099 35.9106C73.4432 33.0448 79.5061 31.8113 85.5395 32.3645L86.9933 39.4654Z" stroke="#3F3D56" stroke-width="2" stroke-miterlimit="10"/>
<path d="M84.2678 38.4903C79.7514 37.7647 75.5582 38.6178 71.6882 41.0496L70.6389 35.9247C74.4882 33.8563 78.864 32.966 83.2185 33.3653L84.2678 38.4903Z" stroke="#3F3D56" stroke-width="2" stroke-miterlimit="10"/>
<path d="M77.2779 37.5077C78.7009 37.2182 79.7298 36.3747 79.576 35.6237C79.4223 34.8727 78.1441 34.4987 76.7211 34.7882C75.2981 35.0777 74.2692 35.9212 74.4229 36.6721C74.5767 37.4231 75.8549 37.7972 77.2779 37.5077Z" stroke="#3F3D56" stroke-width="2" stroke-miterlimit="10"/>
<path d="M78.2918 45.7449C78.3451 44.9803 77.2139 44.279 75.7651 44.1785C74.3163 44.078 73.0985 44.6164 73.0451 45.381C72.9918 46.1456 74.123 46.8469 75.5718 46.9474C77.0206 47.0479 78.2384 46.5095 78.2918 45.7449Z" fill="#57B894"/>
<path d="M85.3766 50.8734C79.6167 48.2361 73.7014 47.8258 67.6306 49.6425L68.1353 42.4127C74.0433 41.0735 80.2163 41.5017 85.8813 43.6437L85.3766 50.8734Z" stroke="#3F3D56" stroke-width="2" stroke-miterlimit="10"/>
<path d="M83.0121 49.2071C78.855 47.3036 74.5856 47.0074 70.2041 48.3186L70.5684 43.1006C74.8324 42.134 79.2877 42.4431 83.3763 43.989L83.0121 49.2071Z" stroke="#3F3D56" stroke-width="2" stroke-miterlimit="10"/>
<path d="M79.2607 45.1939C79.3141 44.4293 78.1829 43.728 76.7341 43.6275C75.2853 43.527 74.0675 44.0653 74.0141 44.8299C73.9607 45.5945 75.092 46.2958 76.5408 46.3963C77.9896 46.4968 79.2074 45.9585 79.2607 45.1939Z" stroke="#3F3D56" stroke-width="2" stroke-miterlimit="10"/>
<path d="M64.1827 33.0123C64.1827 33.0123 52.8139 31.4619 44.6951 36.2048" stroke="#3F3D56" stroke-width="2" stroke-miterlimit="10"/>
<path d="M44.9684 34.611L45.2637 34.7041L44.8021 36.1534L46.2862 36.5063L46.2139 36.8066L44.4067 36.3762L44.9684 34.611Z" fill="#3F3D56"/>
</g>
<defs>
<clipPath id="clip0_870_417">
<rect width="170" height="123" fill="white"/>
</clipPath>
</defs>
</svg>
