<svg width="164" height="117" viewBox="0 0 164 117" fill="none" xmlns="http://www.w3.org/2000/svg">
<g clip-path="url(#clip0_870_333)">
<path d="M149.75 105.252C151.189 107.796 149.969 116.388 149.969 116.388C149.969 116.388 141.982 113.005 140.544 110.462C139.855 109.241 139.678 107.795 140.054 106.444C140.429 105.093 141.325 103.946 142.546 103.255C143.766 102.565 145.21 102.387 146.561 102.762C147.912 103.136 149.059 104.032 149.75 105.252V105.252Z" fill="#F1F1F1"/>
<path d="M150.085 116.377L149.915 116.413C148.281 108.644 142.574 103.375 142.516 103.323L142.633 103.195C142.691 103.247 148.438 108.552 150.085 116.377Z" fill="white"/>
<path d="M162.819 108.149C160.868 111.691 149.863 116.49 149.863 116.49C149.863 116.49 148.049 104.618 150 101.076C150.937 99.375 152.511 98.1163 154.376 97.5767C156.241 97.0371 158.244 97.2609 159.944 98.1988C161.644 99.1367 162.902 100.712 163.441 102.578C163.98 104.444 163.757 106.448 162.819 108.149Z" fill="#F1F1F1"/>
<path d="M149.96 116.619L149.795 116.445C157.758 108.878 159.819 98.3249 159.839 98.2192L160.075 98.2636C160.055 98.37 157.981 108.997 149.96 116.619Z" fill="white"/>
<path d="M38.5561 81.3228C37.2968 81.3186 36.0429 81.1563 34.824 80.8398L34.5837 80.7733L34.3609 80.6615C26.3033 76.6193 19.5056 71.2801 14.1565 64.7921C9.7286 59.39 6.27639 53.2564 3.95513 46.6671C1.17926 38.7782 -0.1562 30.4541 0.0124913 22.0922C0.0158952 21.9167 0.0187759 21.7812 0.0187759 21.6878C0.0187759 17.623 2.27373 14.0565 5.76353 12.6015C8.43445 11.488 32.6851 1.52156 34.4373 0.801452C37.7371 -0.85292 41.2574 0.527914 41.8208 0.769384C43.0844 1.28632 65.5027 10.461 70.3472 12.7691C75.3401 15.148 76.6722 19.4216 76.6722 21.5718C76.6722 31.306 74.9873 40.4035 71.6643 48.6115C68.9806 55.2552 65.1769 61.3887 60.4191 66.7446C51.2393 77.0811 42.0571 80.7454 41.9685 80.7777C40.8711 81.1555 39.7165 81.3399 38.5561 81.3228ZM36.3968 75.9709C37.1928 76.1495 39.0257 76.4174 40.2202 75.9813C41.7378 75.4276 49.4232 71.44 56.6049 63.3534C66.5276 52.1805 71.5623 38.1352 71.5697 21.6077C71.552 21.2728 71.3143 18.8846 68.1535 17.3787C63.4029 15.1152 40.101 5.58157 39.8662 5.48548L39.8018 5.45817C39.3135 5.25342 37.7594 4.82215 36.6881 5.38385L36.4736 5.4839C36.2139 5.59064 10.4715 16.1697 7.72606 17.3143C5.80555 18.1149 5.12127 20.0985 5.12127 21.6878C5.12127 21.8039 5.11827 21.9729 5.11403 22.1913C4.89461 33.5 7.51001 61.3274 36.3968 75.9709Z" fill="#F25A00"/>
<path d="M35.5051 3.12257C35.5051 3.12257 9.52876 13.7976 6.74557 14.9579C3.96239 16.1182 2.5708 18.903 2.5708 21.6878C2.5708 24.4726 0.483418 60.8103 35.5051 78.3795C35.5051 78.3795 38.6837 79.2595 41.0952 78.3795C43.5067 77.4995 74.1217 62.6473 74.1217 21.5718C74.1217 21.5718 74.1217 17.3946 69.2512 15.0739C64.3806 12.7533 40.8322 3.12257 40.8322 3.12257C40.8322 3.12257 37.9404 1.84621 35.5051 3.12257Z" fill="#00265C"/>
<path d="M38.6299 52.4058L30.2812 41.665L35.1364 37.8868L39.0894 42.9723L52.4436 28.8669L56.9092 33.1004L38.6299 52.4058Z" fill="white"/>
<path d="M163.8 117H87.5132C87.4601 117 87.4092 116.979 87.3716 116.941C87.3341 116.904 87.313 116.853 87.313 116.8C87.313 116.747 87.3341 116.696 87.3716 116.658C87.4092 116.62 87.4601 116.599 87.5132 116.599H163.8C163.853 116.599 163.904 116.62 163.941 116.658C163.979 116.696 164 116.747 164 116.8C164 116.853 163.979 116.904 163.941 116.941C163.904 116.979 163.853 117 163.8 117Z" fill="#CACACA"/>
<path d="M109.565 113.842L112.662 113.842L114.135 101.891L109.565 101.891L109.565 113.842Z" fill="#F37214"/>
<path d="M108.775 112.83L114.874 112.83H114.874C115.905 112.83 116.893 113.24 117.622 113.969C118.351 114.698 118.76 115.687 118.76 116.719V116.845L108.776 116.846L108.775 112.83Z" fill="#00265C"/>
<path d="M119.977 113.842L123.074 113.842L124.547 101.891L119.977 101.891L119.977 113.842Z" fill="#F37214"/>
<path d="M119.187 112.83L125.286 112.83H125.286C126.317 112.83 127.305 113.24 128.034 113.969C128.763 114.698 129.172 115.687 129.172 116.719V116.845L119.187 116.846L119.187 112.83Z" fill="#00265C"/>
<path d="M114.432 71.8729L115.175 109.788L109.166 109.415L104.998 85.2651L103.681 68.7992L114.432 71.8729Z" fill="#00265C"/>
<path d="M124.745 65.5062L125.587 110.389L118.579 110.188L117.066 83.5087L114.433 73.8488L103.681 68.7993L105.436 56.7244L121.234 56.5049L124.745 65.5062Z" fill="#00265C"/>
<path d="M112.663 25.3297C115.631 25.3297 118.037 22.9224 118.037 19.9529C118.037 16.9833 115.631 14.576 112.663 14.576C109.695 14.576 107.289 16.9833 107.289 19.9529C107.289 22.9224 109.695 25.3297 112.663 25.3297Z" fill="#F37214"/>
<path d="M117.12 27.5947L117.943 28.8425L120.137 34.9896L118.382 58.9197L108.069 59.1395L106.753 31.6963L109.511 28.2472L117.12 27.5947Z" fill="#CCCCCC"/>
<path d="M102.584 32.3552L100.829 32.1356C100.829 32.1356 100.39 32.3552 100.17 33.892C99.9509 35.4288 97.3179 49.0405 97.3179 49.0405L100.829 65.7257L104.778 60.4567L102.364 51.2359L104.778 42.0151L102.584 32.3552Z" fill="#00265C"/>
<path d="M124.965 32.1357H126.281L129.572 49.9185L126.5 63.7498L123.429 58.7003L124.306 53.2118L123.867 48.3819L122.332 45.5276L124.965 32.1357Z" fill="#00265C"/>
<path d="M115.838 19.9528L114.861 19.7084C114.861 19.7084 114.128 15.5536 112.419 16.0424C110.709 16.5312 106.312 17.02 106.312 15.0648C106.312 13.1096 110.464 11.3988 112.907 11.6432C115.35 11.8876 118.469 12.6984 119.258 16.2868C120.522 22.0392 116.65 23.4922 116.65 23.4922L116.714 23.2828C116.893 22.7012 116.906 22.0812 116.751 21.4927C116.596 20.9043 116.28 20.3709 115.838 19.9528Z" fill="#00265C"/>
<path d="M101.048 32.1355L108.069 29.2815L109.715 28.074L114.652 49.9185L116.956 27.4153L126.062 32.1355L122.99 47.0645L122.551 52.7726L123.867 57.383C123.867 57.383 128.475 60.6762 126.939 64.1889C125.403 67.7015 123.648 67.9211 123.648 67.9211C123.648 67.9211 116.188 60.8957 115.749 59.1394C115.31 57.383 114.652 54.3094 114.652 54.3094C114.652 54.3094 110.922 68.3602 106.534 68.1406C102.145 67.9211 102.145 63.3107 102.145 63.3107L103.242 58.4807L104.998 53.4312L104.12 45.0886L101.048 32.1355Z" fill="#00265C"/>
<path opacity="0.1" d="M38.2882 11.4769V68.4243C38.2882 68.4243 12.0799 55.8014 12.3118 22.6161L38.2882 11.4769Z" fill="#F25A00"/>
</g>
<defs>
<clipPath id="clip0_870_333">
<rect width="164" height="117" fill="white"/>
</clipPath>
</defs>
</svg>
