<svg width="150" height="121" viewBox="0 0 150 121" fill="none" xmlns="http://www.w3.org/2000/svg">
<g clip-path="url(#clip0_870_285)">
<path d="M85.4522 107.046C84.415 105.593 83.0109 104.529 81.2457 104.132C79.7064 103.785 78.1237 103.844 76.559 103.856L56.7745 104.008C55.0801 104.021 53.4555 105.49 53.5342 107.25C53.6124 108.996 54.9583 110.506 56.7745 110.492C62.57 110.448 68.3655 110.403 74.1609 110.358C75.5272 110.348 76.8943 110.323 78.2607 110.327C78.5676 110.328 78.8731 110.345 79.1797 110.348C79.2539 110.349 79.3075 110.348 79.3454 110.347C79.3549 110.35 79.3629 110.352 79.3753 110.356C79.5352 110.4 79.6992 110.43 79.8601 110.472C79.8037 110.473 79.9644 110.573 80.0451 110.607C80.0562 110.629 80.0798 110.668 80.1193 110.728C80.1743 110.831 80.3374 111.145 80.3441 111.135C80.5891 111.755 80.7912 112.391 80.949 113.038C81.3256 114.466 81.4083 114.765 81.4625 116.105C81.531 117.797 82.9039 119.427 84.7028 119.346C86.3997 119.27 88.0166 117.92 87.9431 116.105C87.8193 113.046 87.2827 109.611 85.4522 107.046Z" fill="#00265C"/>
<path d="M57.9376 114.362C57.566 112.108 57.2015 109.854 56.8227 107.602C56.4383 105.318 55.6533 103.226 53.8765 101.727C53.4017 101.326 52.9095 100.952 52.4152 100.579C52.2413 100.448 52.0678 100.317 51.896 100.183C51.8857 100.175 51.8792 100.17 51.8703 100.163C51.8514 100.147 51.8288 100.128 51.7983 100.102C51.0577 99.4747 50.3422 98.8197 49.6606 98.1236C49.0553 97.5052 48.4765 96.8606 47.9241 96.1895C47.786 96.0219 47.6497 95.8528 47.5153 95.6822C47.4921 95.6529 47.3675 95.4918 47.2854 95.3867C47.2091 95.2814 47.0696 95.0914 47.0461 95.0583C46.889 94.836 46.7347 94.6116 46.5832 94.3852C45.5511 92.8381 44.6575 91.203 43.9126 89.4989C43.8387 89.3299 43.7666 89.1599 43.6962 88.9889C43.6773 88.9367 43.6529 88.8697 43.6205 88.7804C43.4703 88.3674 43.3205 87.9549 43.1833 87.537C42.8917 86.6494 42.641 85.7487 42.4312 84.8348C42.3274 84.3836 42.234 83.9301 42.151 83.4742C42.1082 83.2398 42.0681 83.0049 42.0309 82.7696C42.0247 82.7305 41.9883 82.4765 41.9669 82.333C41.9511 82.1889 41.9216 81.9336 41.9176 81.8941C41.8939 81.6569 41.8729 81.4194 41.8545 81.1816C41.813 80.6467 41.785 80.1109 41.7704 79.5742C41.7455 78.6203 41.7626 77.6665 41.8216 76.7128C41.8553 76.1769 41.9031 75.6425 41.9621 75.109C41.9656 75.0762 41.9684 75.0502 41.971 75.0267C41.9745 75.0028 41.9787 74.9758 41.9836 74.9421C42.0272 74.6473 42.0731 74.3529 42.1244 74.0594C42.3188 72.9451 42.5716 71.8417 42.8817 70.754C43.0285 70.2395 43.188 69.7292 43.3602 69.2231C43.4369 68.9984 43.5161 68.7746 43.5977 68.5516C43.5924 68.566 43.8371 67.9406 43.8404 67.9196C44.8114 65.6241 46.3997 63.5314 46.4019 60.9238C46.4034 59.1583 44.9105 57.4671 43.1616 57.5487C42.2897 57.5815 41.4645 57.9518 40.8601 58.5814C40.2556 59.211 39.9191 60.0508 39.9214 60.9238C39.9214 60.9634 39.9211 60.9973 39.9211 61.0301C39.9047 61.0851 39.8911 61.1309 39.8788 61.1715C39.6895 61.5832 39.4575 61.9744 39.2496 62.3759C38.6804 63.4748 38.1946 64.6098 37.7331 65.7614C36.9776 67.6368 36.3993 69.5788 36.0058 71.5621C35.1504 75.9075 35.084 80.3716 35.8098 84.7406C37.0661 92.4022 41.2092 99.7363 46.9691 104.666C47.469 105.094 47.981 105.507 48.4979 105.912C48.7118 106.08 48.9275 106.245 49.1442 106.408C49.2467 106.485 49.6711 106.82 49.4844 106.658C49.8859 107.001 50.0549 107.173 50.158 107.426C50.1729 107.484 50.1933 107.563 50.2209 107.671C50.2936 107.956 50.3626 108.24 50.4199 108.529C50.9213 111.052 51.2698 113.617 51.6885 116.156C51.9764 117.901 54.1232 119.036 55.6745 118.513C57.4802 117.905 58.2461 116.231 57.9376 114.362Z" fill="#00265C"/>
<path d="M85.7799 120.905C84.419 120.909 83.1124 120.372 82.1465 119.413C81.1807 118.454 80.6345 117.151 80.6278 115.789V112.091C76.7579 112.524 63.5063 112.424 59.7078 111.813V115.641C59.6976 117.002 59.1503 118.303 58.1852 119.261C57.2201 120.22 55.9155 120.757 54.5557 120.757C53.1959 120.757 51.8913 120.22 50.9262 119.261C49.9611 118.303 49.4138 117.002 49.4036 115.641V108.126C44.2588 105.266 39.9698 101.085 36.9794 96.013C33.989 90.9414 32.4054 85.1632 32.3921 79.2748C32.3921 69.1782 36.9656 59.7596 44.9398 53.4339C50.1246 49.3071 56.4241 46.8252 63.0292 46.3071C63.9258 46.2367 64.8278 46.2011 65.7103 46.2011C68.8194 46.2011 82.8471 46.6816 86.3667 47.6947L94.3921 39.7273C94.5101 39.6086 94.6607 39.5277 94.8248 39.495C94.9889 39.4623 95.1591 39.4792 95.3135 39.5436C95.4692 39.6056 95.6024 39.7131 95.6958 39.8522C95.7893 39.9913 95.8384 40.1555 95.8369 40.323V41.5898L97.3996 40.0414C97.5174 39.9225 97.6679 39.8415 97.8319 39.8087C97.9959 39.776 98.166 39.7929 98.3204 39.8573C98.4761 39.9193 98.6095 40.0269 98.703 40.166C98.7966 40.3052 98.8458 40.4694 98.8443 40.6371V54.7931C102.871 58.4253 105.941 62.9954 107.78 68.0983C109.62 73.2011 110.173 78.6792 109.39 84.047C108.608 89.4148 106.514 94.5066 103.294 98.8712C100.074 103.236 95.8281 106.738 90.9319 109.068V115.789C90.9252 117.151 90.3791 118.454 89.4132 119.413C88.4474 120.372 87.1407 120.909 85.7799 120.905ZM81.0329 111.631V115.789C81.0431 117.042 81.5477 118.24 82.4368 119.122C83.326 120.005 84.5275 120.5 85.7799 120.5C87.0322 120.5 88.2338 120.005 89.1229 119.122C90.012 118.24 90.5167 117.042 90.5269 115.789V108.812L90.6425 108.757C96.1363 106.149 100.8 102.069 104.116 96.9686C108.342 90.4608 110.099 82.6544 109.07 74.9625C108.041 67.2706 104.294 60.2014 98.5066 55.0343L98.4393 54.9738V40.637C98.4407 40.5499 98.4155 40.4645 98.3669 40.3922C98.3183 40.3199 98.2487 40.2642 98.1676 40.2327C98.0869 40.1982 97.9977 40.1889 97.9116 40.206C97.8255 40.2231 97.7467 40.2658 97.6853 40.3286L95.4319 42.5615V40.323C95.4333 40.2359 95.4081 40.1505 95.3595 40.0782C95.3109 40.0059 95.2413 39.9502 95.1601 39.9187C95.0793 39.8842 94.9899 39.875 94.9037 39.8922C94.8175 39.9094 94.7385 39.9523 94.6771 40.0152L86.4799 48.1532L86.3634 48.1167C83.0915 47.0921 68.8431 46.6063 65.7103 46.6063C64.8383 46.6063 63.9469 46.6416 63.0611 46.7111C56.5362 47.2229 50.3133 49.6746 45.1915 53.7514C37.3147 59.9998 32.7971 69.3027 32.7971 79.2748C32.8106 85.1111 34.3857 90.8373 37.3588 95.8587C40.332 100.88 44.5947 105.013 49.7041 107.829L49.8086 107.887V115.641C49.8191 116.894 50.3238 118.092 51.2129 118.974C52.102 119.856 53.3035 120.351 54.5557 120.351C55.8079 120.351 57.0093 119.856 57.8984 118.974C58.7876 118.092 59.2923 116.894 59.3027 115.641V111.328L59.5427 111.373C62.9563 112.016 77.3302 112.117 80.804 111.661L81.0329 111.631Z" fill="#001A3E"/>
<path d="M58.3246 24.1357L35.8977 30.8789C35.1844 31.0943 34.5857 31.5841 34.2331 32.2408C33.8806 32.8975 33.803 33.6674 34.0174 34.3813C34.2318 35.0953 34.7207 35.6948 35.3767 36.0483C36.0327 36.4018 36.8021 36.4803 37.5159 36.2666L57.1418 30.3643L57.553 30.2407C57.6362 28.1209 58.211 26.0496 59.2319 24.1904C59.1038 24.1327 58.9668 24.0971 58.8268 24.085C58.6577 24.0687 58.4871 24.0859 58.3246 24.1357Z" fill="#F25A00"/>
<path d="M37.1282 37.7042C36.8305 37.7035 36.5406 37.6092 36.2994 37.4346C36.0581 37.26 35.8778 37.014 35.784 36.7314L34.3816 32.4974C34.323 32.3206 34.2998 32.134 34.3133 31.9482C34.3268 31.7624 34.3768 31.5811 34.4604 31.4147C34.5439 31.2482 34.6594 31.0999 34.8003 30.9781C34.9412 30.8563 35.1047 30.7635 35.2814 30.7049L53.5346 24.6526C53.7113 24.594 53.8978 24.5708 54.0835 24.5843C54.2691 24.5978 54.4503 24.6478 54.6167 24.7314C54.7831 24.8149 54.9314 24.9305 55.0531 25.0714C55.1748 25.2123 55.2676 25.3758 55.3262 25.5526L56.7286 29.7866C56.8453 30.1348 56.8219 30.5148 56.6634 30.8461C56.5049 31.1774 56.2237 31.4339 55.8794 31.5614C55.8626 31.5677 55.8455 31.5737 55.8283 31.5793L37.5756 37.6314C37.4313 37.6795 37.2803 37.7041 37.1282 37.7042Z" fill="#001634"/>
<path d="M71.3122 16.6164C67.6282 16.6178 64.0893 18.0534 61.4446 20.6193C58.7998 23.1852 57.2568 26.6801 57.142 30.3642C57.138 30.5081 57.136 30.6539 57.136 30.7998C57.136 33.6051 57.9674 36.3473 59.5251 38.6797C61.0828 41.0122 63.2968 42.8301 65.8872 43.9036C68.4776 44.9771 71.328 45.258 74.0779 44.7107C76.8278 44.1635 79.3538 42.8126 81.3364 40.829C83.3189 38.8455 84.6691 36.3182 85.2161 33.5669C85.7631 30.8156 85.4823 27.9638 84.4094 25.3721C83.3364 22.7804 81.5194 20.5652 79.1881 19.0067C76.8569 17.4482 74.116 16.6164 71.3122 16.6164ZM71.3122 44.578C67.661 44.5742 64.1605 43.1214 61.5787 40.5383C58.9969 37.9552 57.5448 34.4529 57.541 30.7998C57.541 30.6114 57.5451 30.425 57.5532 30.2406C57.6628 27.5417 58.563 24.9345 60.1418 22.7433C61.7206 20.5521 63.9083 18.8736 66.4329 17.9165C68.9576 16.9593 71.7077 16.7657 74.3414 17.3598C76.9751 17.9539 79.3761 19.3095 81.246 21.2579C83.1158 23.2064 84.372 25.6618 84.8582 28.3188C85.3445 30.9758 85.0394 33.7172 83.9809 36.2021C82.9224 38.687 81.1572 40.8058 78.9047 42.295C76.6523 43.7842 74.012 44.5781 71.3122 44.578Z" fill="#001A3E"/>
<path d="M83.2606 30.7999C83.2606 33.9705 82.0018 37.0112 79.761 39.2531C77.5202 41.495 74.481 42.7545 71.3121 42.7545C68.1431 42.7545 65.104 41.495 62.8632 39.2531C60.6224 37.0112 59.3635 33.9705 59.3635 30.7999C59.3635 30.421 59.3817 30.0482 59.4161 29.6794C59.7041 26.6195 61.1589 23.7881 63.4784 21.7731C65.798 19.7581 68.8042 18.7143 71.8727 18.8585C74.9412 19.0027 77.8363 20.3238 79.9569 22.5474C82.0775 24.7711 83.2606 27.7265 83.2606 30.7999Z" fill="#00265C"/>
<path d="M74.8702 31.5941C74.5806 31.2131 74.1996 30.9114 73.7625 30.7168C73.2234 30.4894 72.6666 30.3065 72.0978 30.1697V26.9156C72.9722 27.0475 73.7923 27.4216 74.4652 27.9956L75.1255 26.5874C74.7457 26.2489 74.3098 25.9794 73.8374 25.7911C73.3138 25.5789 72.7641 25.4379 72.2031 25.3716V23.7223H70.6741V25.3878C70.0837 25.4542 69.5142 25.6455 69.0034 25.9491C68.5419 26.2223 68.1535 26.6033 67.8712 27.0595C67.6019 27.5046 67.4623 28.0162 67.4683 28.5366C67.442 29.1004 67.6052 29.6569 67.932 30.117C68.2328 30.5154 68.6301 30.8306 69.0863 31.0329C69.6341 31.2669 70.2004 31.4546 70.7794 31.5941V34.7124C69.7476 34.6346 68.7644 34.2421 67.9624 33.5879L67.3022 34.9981C67.7507 35.3691 68.2606 35.6585 68.809 35.8532C69.4098 36.0683 70.0375 36.1992 70.6742 36.2422V37.8774H72.2031V36.2118C73.0524 36.119 73.8488 35.7536 74.4733 35.1704C74.7484 34.9065 74.9656 34.5883 75.1113 34.236C75.2571 33.8838 75.3281 33.5051 75.3199 33.1239C75.3453 32.578 75.187 32.0394 74.8702 31.5941ZM70.7795 29.8252C70.407 29.7122 70.0607 29.5263 69.7607 29.2782C69.6419 29.1724 69.5479 29.0415 69.4856 28.8951C69.4233 28.7487 69.3942 28.5902 69.4003 28.4312C69.3893 28.0703 69.5218 27.7198 69.7688 27.4566C70.0427 27.1805 70.3961 26.997 70.7795 26.9318V29.8252ZM73.0578 34.137C72.7994 34.4021 72.463 34.5775 72.0978 34.6375V31.9548C72.4469 32.0485 72.7734 32.2118 73.0578 32.435C73.1656 32.5271 73.2512 32.6423 73.3084 32.7721C73.3655 32.9019 73.3927 33.0429 73.3879 33.1847C73.4019 33.5324 73.284 33.8726 73.0578 34.137Z" fill="#F25A00"/>
<path d="M37.779 54.8641C37.4659 54.8635 37.1617 54.7597 36.9137 54.5686C36.6656 54.3775 36.4875 54.1099 36.4069 53.8072L35.6434 50.9158C35.5478 50.5524 35.6002 50.1659 35.7891 49.8411C35.978 49.5162 36.2879 49.2796 36.6509 49.1832L60.7386 42.8149C61.102 42.72 61.4883 42.773 61.8128 42.9623C62.1374 43.1516 62.3737 43.4618 62.4703 43.825L63.1171 46.2746L62.9959 46.284C56.8182 46.7646 50.9073 49.0056 45.9626 52.7418L45.9275 52.7588L38.1386 54.8174C38.0212 54.8483 37.9003 54.864 37.779 54.8641Z" fill="#001634"/>
<path d="M33.7897 69.146C30.9641 68.7283 28.2617 67.706 25.8668 66.1488C24.6803 65.3779 23.5818 64.4791 22.5913 63.4685C21.6135 62.4707 20.6782 61.3366 20.1939 60.0079C19.7279 58.7785 19.752 57.417 20.261 56.2048C20.763 55.0001 21.7221 54.0437 22.9279 53.5453C24.1409 53.0613 25.6064 53.0096 26.7869 53.5396C27.3495 53.7863 27.8363 54.1783 28.1973 54.6755C28.3652 54.9046 28.4895 55.1628 28.564 55.4369C28.6331 55.6854 28.6394 55.9471 28.5823 56.1986C28.513 56.4497 28.391 56.683 28.2242 56.883C28.0575 57.083 27.8499 57.245 27.6155 57.3582C27.0995 57.6231 26.5404 57.7937 25.9645 57.862C25.3853 57.941 24.5532 58.0129 24.0876 57.5477C23.9917 57.4557 23.9163 57.3445 23.8663 57.2213C23.8313 57.127 23.8193 57.0257 23.8314 56.9259C23.8246 56.9699 23.8595 56.8302 23.8575 56.8358C23.8501 56.8564 23.8182 56.9068 23.8636 56.8294C23.8777 56.8039 23.8935 56.7793 23.9108 56.7559C23.8954 56.7758 23.8616 56.809 23.922 56.752C23.9718 56.6974 24.036 56.6578 24.1071 56.6376C24.1351 56.6294 24.1636 56.6229 24.1917 56.6153C24.2631 56.5957 24.1205 56.6163 24.1936 56.614C24.2218 56.6131 24.2503 56.6138 24.2784 56.6125C24.3501 56.6093 24.2077 56.5929 24.2764 56.6102C24.3031 56.6169 24.3295 56.6235 24.3558 56.6318C24.4129 56.6498 24.3153 56.5899 24.3541 56.6347C24.3994 56.6873 24.3064 56.5836 24.358 56.6345C24.3836 56.6597 24.4078 56.6864 24.4304 56.7144C24.5198 56.8027 24.6404 56.8522 24.7661 56.8522C24.8917 56.8522 25.0123 56.8027 25.1018 56.7144C25.1881 56.6239 25.2363 56.5036 25.2363 56.3785C25.2363 56.2534 25.1881 56.1331 25.1018 56.0427C24.6337 55.4621 23.709 55.6056 23.2355 56.0962C22.6316 56.722 22.8707 57.7138 23.4582 58.2598C24.1232 58.878 25.065 58.9209 25.9205 58.8173C26.6434 58.748 27.3479 58.5488 28.0002 58.2293C28.6482 57.9106 29.1551 57.3628 29.4226 56.6917C29.5434 56.3336 29.5868 55.9539 29.5499 55.5777C29.513 55.2016 29.3967 54.8376 29.2087 54.5097C28.4534 53.0891 26.8896 52.3608 25.3438 52.2346C24.5479 52.1723 23.7476 52.2684 22.9891 52.5175C22.2307 52.7667 21.5291 53.1638 20.9251 53.686C19.7608 54.7347 19.0439 56.1909 18.9225 57.7536C18.7876 59.3737 19.4159 60.9471 20.3319 62.2547C21.2909 63.5831 22.4352 64.7672 23.73 65.7708C26.2614 67.7928 29.2307 69.1938 32.4002 69.8619C32.7772 69.9398 33.1563 70.0065 33.5373 70.062C33.6586 70.0914 33.7865 70.0734 33.8949 70.0118C34.0034 69.9502 34.0844 69.8495 34.1213 69.7302C34.1538 69.6088 34.1373 69.4794 34.0752 69.3701C34.0132 69.2608 33.9106 69.1803 33.7897 69.146L33.7897 69.146Z" fill="#001A3E"/>
<path d="M79.0292 48.5038C74.8893 48.4453 70.7624 48.5504 66.6486 48.8191C65.2425 48.911 64.0259 49.4082 64.0259 50.2439C64.0259 50.9427 65.2328 51.7613 66.6486 51.6688C70.7603 51.4001 74.8872 51.295 79.0292 51.3534C82.4059 51.4011 82.4039 48.5514 79.0292 48.5038Z" fill="#CCCCCC"/>
<path d="M72.9103 51.2122C72.4628 51.2122 61.9529 51.1955 61.9529 49.743C61.9529 48.2906 72.4628 48.2739 72.9103 48.2739C73.3577 48.2739 83.8676 48.2906 83.8676 49.743C83.8676 51.1955 73.3577 51.2122 72.9103 51.2122ZM62.3638 49.743C62.6515 50.1834 66.5147 50.807 72.9103 50.807C79.3058 50.807 83.169 50.1834 83.4567 49.743C83.1691 49.3028 79.3058 48.6792 72.9103 48.6792C66.5147 48.6792 62.6515 49.3028 62.3638 49.743V49.743Z" fill="#001A3E"/>
<path d="M106.256 89.3961C108.582 89.3315 111.478 89.2507 113.709 87.6204C114.373 87.115 114.919 86.4704 115.308 85.7317C115.697 84.9931 115.92 84.1783 115.961 83.3444C116.006 82.0568 115.541 80.9329 114.651 80.1806C113.486 79.1956 111.785 78.9646 109.952 79.5037L111.851 65.6144L110.457 65.4233L108.223 81.7518L109.388 81.2172C110.738 80.5977 112.591 80.2824 113.743 81.2561C114.026 81.5106 114.246 81.827 114.387 82.1806C114.527 82.5342 114.585 82.9155 114.554 83.2949C114.52 83.9155 114.353 84.5215 114.063 85.0717C113.774 85.6218 113.37 86.1032 112.878 86.483C111.142 87.7517 108.834 87.9153 106.217 87.9886L106.256 89.3961Z" fill="#001A3E"/>
<path d="M102.4 66.8124H94.8193V68.2206H102.4V66.8124Z" fill="#001A3E"/>
<path d="M41.2093 61.3409C40.8719 61.3398 40.5459 61.2186 40.2897 60.9989C40.0335 60.7792 39.8638 60.4754 39.8111 60.1419L39.3484 57.1874C39.2906 56.8158 39.3825 56.4364 39.604 56.1326C39.8254 55.8287 40.1583 55.6251 40.5295 55.5665L65.1419 51.7081C65.5132 51.6503 65.8924 51.7423 66.1961 51.9638C66.4998 52.1853 66.7032 52.5183 66.7618 52.8898L67.2245 55.8444C67.2823 56.216 67.1904 56.5953 66.969 56.8992C66.7476 57.2031 66.4147 57.4067 66.0434 57.4653L41.4311 61.3236C41.3577 61.3351 41.2836 61.3409 41.2093 61.3409Z" fill="#001634"/>
<path d="M31.0237 26.7165C36.7279 26.7165 41.3521 22.09 41.3521 16.3828C41.3521 10.6757 36.7279 6.04919 31.0237 6.04919C25.3195 6.04919 20.6953 10.6757 20.6953 16.3828C20.6953 22.09 25.3195 26.7165 31.0237 26.7165Z" fill="#F25A00"/>
<path d="M36.8714 19.0565C37.2015 18.941 37.503 18.7561 37.7557 18.5143C37.923 18.3418 38.0505 18.1349 38.1293 17.908C38.2082 17.6811 38.2366 17.4397 38.2124 17.2007C38.1983 17.0303 38.1451 16.8655 38.0568 16.7191C37.9686 16.5728 37.8477 16.4488 37.7036 16.3569C37.3298 16.127 36.8359 16.1356 36.3373 16.3669L36.2797 12.3332L35.8747 12.339L35.9424 17.081L36.2507 16.8787C36.6082 16.6445 37.1219 16.4747 37.4914 16.7021C37.5828 16.7624 37.6591 16.8428 37.7144 16.9374C37.7696 17.0319 37.8023 17.1379 37.81 17.2471C37.827 17.4252 37.8055 17.6048 37.7469 17.7738C37.6883 17.9428 37.5941 18.0972 37.4705 18.2265C37.0315 18.6624 36.3816 18.8084 35.6399 18.942L35.7117 19.3408C36.1059 19.2809 36.4941 19.1857 36.8714 19.0565Z" fill="#001634"/>
<path d="M40.4503 12.0502L38.2935 12.377L38.3541 12.7776L40.5109 12.4508L40.4503 12.0502Z" fill="#001634"/>
<path d="M33.6422 13.0815L31.4854 13.4083L31.546 13.8089L33.7029 13.4821L33.6422 13.0815Z" fill="#001634"/>
<path d="M37.849 61.1602C37.4775 61.1594 37.1151 61.0454 36.81 60.8335C36.5048 60.6216 36.2714 60.3217 36.1408 59.9738L29.0197 40.8932C28.1493 38.5531 28.2422 35.9631 29.2781 33.6915C30.314 31.4199 32.2082 29.6521 34.5452 28.7761L40.3355 26.6129C40.5594 26.5286 40.7978 26.4896 41.0368 26.4979C41.2759 26.5062 41.5109 26.5617 41.7285 26.6612C41.9455 26.7582 42.141 26.8975 42.3035 27.071C42.4661 27.2444 42.5925 27.4486 42.6753 27.6715L55.8666 52.5905C55.9523 52.8152 55.9927 53.0547 55.9855 53.295C55.9783 53.5354 55.9236 53.772 55.8247 53.9912C55.7257 54.2103 55.5844 54.4078 55.4089 54.5721C55.2334 54.7364 55.0272 54.8644 54.8021 54.9487L38.4859 61.0443C38.2823 61.1207 38.0665 61.16 37.849 61.1602Z" fill="#001634"/>
<path d="M38.5789 27.2691L51.6674 44.7808L42.811 27.4529C42.7378 27.2508 42.6256 27.065 42.4806 26.9062C42.3357 26.7474 42.161 26.6188 41.9663 26.5276C41.7717 26.4364 41.561 26.3845 41.3463 26.3748C41.1316 26.3651 40.9171 26.3978 40.7151 26.471L38.5789 27.2691Z" fill="#00265C"/>
<path d="M59.303 40.5682L35.9334 39.0621C35.565 39.0384 35.2049 38.9423 34.8737 38.7793C34.5425 38.6164 34.2465 38.3897 34.0029 38.1123C33.7592 37.8349 33.5725 37.5122 33.4534 37.1627C33.3344 36.8131 33.2853 36.4435 33.309 36.0749C33.3328 35.7064 33.4288 35.3461 33.5917 35.0147C33.7546 34.6833 33.9811 34.3872 34.2584 34.1434C34.5356 33.8996 34.8581 33.7128 35.2075 33.5937C35.5569 33.4746 35.9264 33.4255 36.2947 33.4492L59.6643 34.9552C59.8368 34.9663 60.0055 35.0113 60.1606 35.0876C60.3157 35.164 60.4543 35.2701 60.5685 35.4C60.6826 35.5299 60.77 35.681 60.8258 35.8447C60.8815 36.0084 60.9045 36.1815 60.8934 36.3541L60.7013 39.3386C60.6788 39.6872 60.5189 40.0125 60.2567 40.2431C59.9944 40.4737 59.6514 40.5907 59.303 40.5682Z" fill="#F25A00"/>
<path d="M53.0582 41.5337C53.0273 41.5337 52.9964 41.5327 52.9654 41.5307H52.9653L33.7755 40.294C33.5897 40.2821 33.4081 40.2336 33.241 40.1514C33.074 40.0693 32.9247 39.955 32.8018 39.8151C32.6789 39.6752 32.5847 39.5124 32.5247 39.3361C32.4647 39.1598 32.4399 38.9734 32.4519 38.7875L32.7801 33.69C32.792 33.5041 32.8405 33.3224 32.9226 33.1552C33.0048 32.9881 33.1191 32.8388 33.2589 32.7158C33.3987 32.5929 33.5614 32.4987 33.7376 32.4386C33.9139 32.3785 34.1002 32.3538 34.286 32.3658L53.4758 33.6024C53.8508 33.627 54.2008 33.7994 54.4489 34.0818C54.697 34.3642 54.823 34.7336 54.7993 35.1089L54.4712 40.2066C54.4531 40.4797 54.3566 40.7418 54.1933 40.9615C54.03 41.1811 53.8068 41.3489 53.5505 41.4447C53.3931 41.5037 53.2263 41.5338 53.0582 41.5337Z" fill="#001634"/>
<path d="M30.9053 9.51117C32.264 8.34199 34.1299 9.3879 35.6881 9.20481C37.1789 9.02963 38.356 7.69173 38.6567 6.27038C39.0075 4.61213 38.1473 2.95081 36.8793 1.91692C35.4905 0.784559 33.6487 0.459486 31.9033 0.668981C29.9029 0.909087 28.0735 1.84202 26.4319 2.97046C24.8474 4.02593 23.3903 5.26129 22.0896 6.6519C20.9249 7.93888 19.9381 9.47293 19.623 11.2047C19.3366 12.7786 19.5553 14.5227 20.4852 15.8559C20.9783 16.5393 21.6391 17.084 22.4039 17.4374C23.2013 17.8292 24.0519 18.1093 24.8244 18.5522C25.9925 19.2219 27.1278 20.6106 26.7619 22.0557C26.6834 22.3714 26.5286 22.6629 26.3111 22.9047C26.0497 23.195 25.5782 22.8114 25.8403 22.5203C26.3006 22.0091 26.2824 21.3273 26.0371 20.7169C25.7455 20.0291 25.2289 19.4609 24.5722 19.1052C23.7636 18.6426 22.8708 18.3571 22.042 17.9358C21.2487 17.5509 20.5601 16.9799 20.0347 16.2715C19.0428 14.8923 18.746 13.0973 18.971 11.4368C19.2145 9.63983 20.1372 8.00696 21.294 6.63861C22.5529 5.14946 24.0993 3.88894 25.679 2.75652C27.3741 1.54144 29.2469 0.514168 31.3192 0.142621C33.1155 -0.179453 35.0627 0.018836 36.6335 0.998274C38.0998 1.91252 39.2242 3.48519 39.336 5.24251C39.3761 6.04208 39.2026 6.83791 38.8333 7.54811C38.4639 8.2583 37.9121 8.8572 37.2346 9.28318C36.5394 9.6994 35.7312 9.88674 34.9239 9.81877C34.0608 9.7635 33.197 9.49908 32.3284 9.57249C31.9354 9.59636 31.5608 9.74777 31.2615 10.0038C30.9647 10.2592 30.6109 9.76454 30.9053 9.51118V9.51117Z" fill="#001634"/>
<path d="M149.759 121H0.24117C0.177338 121 0.116185 120.974 0.0711143 120.929C0.0260436 120.884 0.000732422 120.823 0.000732422 120.759C0.000732422 120.695 0.0260436 120.634 0.0711143 120.588C0.116185 120.543 0.177338 120.518 0.24117 120.517H149.759C149.823 120.517 149.884 120.543 149.929 120.588C149.975 120.633 150 120.695 150 120.759C150 120.823 149.975 120.884 149.929 120.929C149.884 120.974 149.823 121 149.759 121Z" fill="#001A3E"/>
</g>
<defs>
<clipPath id="clip0_870_285">
<rect width="150" height="121" fill="white"/>
</clipPath>
</defs>
</svg>
