<svg width="66" height="65" viewBox="0 0 66 65" fill="none" xmlns="http://www.w3.org/2000/svg">
<path fill-rule="evenodd" clip-rule="evenodd" d="M20.25 0.639047C19.563 0.929047 19 2.00305 19 3.02405C19 5.69205 17.185 6.43705 14.363 4.92705C12.104 3.71805 11.635 3.89805 8.267 7.26705C4.898 10.635 4.718 11.104 5.927 13.363C7.449 16.207 6.689 18 3.96 18C0.100003 18 -0.0599976 27.68 3.768 29.578C7.089 31.225 7.28 31.608 5.986 34.025C4.948 35.965 5.249 36.671 8.559 40.06C11.995 43.579 12.476 43.78 14.335 42.478C16.695 40.825 19 42.099 19 45.056C19 46.259 19.874 46.973 21.6 47.184C23.608 47.428 24.501 48.38 25.521 51.363C28.298 59.482 36.381 65 45.5 65C57.548 65 66 56.552 66 44.51C66 35.381 60.486 27.299 52.363 24.521C49.38 23.501 48.428 22.608 48.184 20.6C47.973 18.874 47.259 18 46.056 18C43.099 18 41.825 15.695 43.478 13.335C44.78 11.476 44.579 10.995 41.06 7.55905C37.671 4.24905 36.965 3.94805 35.025 4.98605C32.608 6.28005 32.225 6.08905 30.578 2.76805C29.723 1.04405 28.5 0.453047 25.477 0.305047C23.289 0.198047 20.938 0.348047 20.25 0.639047ZM28 5.46505C28 7.56205 31.751 9.27905 34.711 8.53605C37.858 7.74705 41.578 10.599 39.953 12.556C38.372 14.462 39.961 19.025 42.628 20.24C45.741 21.659 45.625 22.634 42.25 23.439C40.737 23.8 38.701 24.333 37.725 24.623C36.749 24.913 36.014 24.779 36.093 24.325C37.043 18.862 32.422 13.134 26.413 12.328C18.286 11.239 12.239 17.286 13.328 25.413C14.134 31.422 19.862 36.043 25.325 35.093C25.779 35.014 25.913 35.749 25.623 36.725C25.333 37.701 24.8 39.737 24.439 41.25C23.627 44.655 22.657 44.738 21.195 41.528C19.916 38.721 15.639 37.225 13.639 38.885C11.598 40.579 8.723 36.952 9.536 33.711C10.279 30.751 8.562 27 6.465 27C4.163 27 4.549 21.278 6.901 20.532C9.048 19.85 10.394 15.816 9.458 12.867C8.578 10.094 10.828 7.74005 13.676 8.45505C17.072 9.30705 20.839 8.08205 21.532 5.90105C22.278 3.54905 28 3.16305 28 5.46505ZM31.25 18.08C33.973 21.412 33.516 26.642 30.25 29.516C24.81 34.304 17.469 31.812 16.346 24.796C15.476 19.361 20.361 14.476 25.796 15.346C27.833 15.672 30.288 16.903 31.25 18.08ZM53.966 28.482C62.08 32.679 65.545 44.7 60.98 52.823C57.219 59.513 53.657 61.5 45.422 61.5C39.21 61.5 37.895 61.157 34.671 58.698C23.462 50.148 25.454 33.908 38.459 27.825C43.007 25.697 49.077 25.954 53.966 28.482ZM41 30.727C38.364 32.063 37.168 33.549 36.155 36.75C35.199 39.772 34.265 41 32.924 41C30.722 41 29.468 44.743 30.411 48.5C30.847 50.237 31.723 51 33.282 51C34.65 51 35.911 51.878 36.513 53.25C37.349 55.155 38.397 55.546 43.351 55.803C47.809 56.034 49.1 55.796 48.773 54.803C48.523 54.044 46.393 53.373 43.672 53.195L39 52.89V44.6C39 35.207 40.288 33 45.772 33C50.351 33 52 35.987 52 44.283V51.121L55.75 50.81C59.482 50.502 59.5 50.478 59.5 46C59.5 42.095 59.203 41.458 57.25 41.18C55.626 40.95 55 40.189 55 38.446C55 35.451 50.353 30.262 47 29.513C45.549 29.188 43.031 29.698 41 30.727ZM34.662 47.25C34.385 47.938 34.158 47.375 34.158 46C34.158 44.625 34.385 44.063 34.662 44.75C34.94 45.438 34.94 46.563 34.662 47.25ZM57 46C57 47.1 56.55 48 56 48C55.45 48 55 47.1 55 46C55 44.9 55.45 44 56 44C56.55 44 57 44.9 57 46Z" fill="black"/>
</svg>
