<svg width="222" height="222" viewBox="0 0 222 222" fill="none" xmlns="http://www.w3.org/2000/svg">
<path fill-rule="evenodd" clip-rule="evenodd" d="M162.564 18.6182C142.667 32.8318 136.436 37.503 136.219 38.3641C135.522 41.1381 135.636 41.2191 155.303 51.9604C165.507 57.5334 173.92 62.2869 173.999 62.5236C174.078 62.7602 170.409 71.1637 165.846 81.1986C161.282 91.2335 157.548 99.9264 157.548 100.516C157.548 102.024 159.449 103.785 161.075 103.785C162.165 103.785 167.641 99.5394 191.419 80.26C207.377 67.3218 220.786 56.3283 221.217 55.8304C222.168 54.7299 222.228 52.8649 221.352 51.6146C220.894 50.961 215.351 48.7502 202.442 44.0727C192.397 40.4331 184.026 37.3196 183.839 37.1536C183.651 36.9876 185.716 29.4717 188.427 20.4514C191.137 11.4311 193.355 3.63381 193.355 3.12383C193.355 1.77373 191.388 0 189.891 0C188.939 0 182.161 4.61797 162.564 18.6182ZM179.277 26.037C177.173 33.0353 175.452 39.1546 175.452 39.6355C175.452 41.7537 176.513 42.2695 193.789 48.5386C203.165 51.9407 210.78 54.8842 210.711 55.0802C210.546 55.5544 171.386 87.3456 171.201 87.1564C171.121 87.0754 173.656 81.2925 176.835 74.3054C180.012 67.3183 182.613 61.1502 182.613 60.5991C182.613 60.0475 182.26 59.1882 181.83 58.6889C181.399 58.1897 173.34 53.5945 163.921 48.4773C154.503 43.3601 146.849 39.0239 146.913 38.841C147.07 38.3968 182.756 12.9664 182.95 13.161C183.033 13.2442 181.38 19.0382 179.277 26.037ZM76.2924 33.3073C75.1116 34.4869 74.9478 35.6089 75.6165 37.9391C76.091 39.5916 76.2982 39.448 72.3626 40.1866C70.9286 40.4555 68.3102 41.3752 66.5441 42.2301L63.3327 43.7842L61.6462 42.1478L59.9592 40.5109L57.4009 43.0684L54.8421 45.6259L56.26 47.0431L57.6784 48.4603L55.6934 51.2406C53.2612 54.6471 51.7085 58.0752 50.9624 61.6835C50.5171 63.8392 50.2226 64.4181 49.5713 64.4181C49.1175 64.4181 48.2514 64.9124 47.6472 65.5163C46.6133 66.5493 46.5484 66.9063 46.5484 71.5439C46.5484 76.4679 46.547 76.4741 45.3175 77.1161C42.4235 78.6268 39.9143 82.7048 39.5182 86.5408C38.7672 93.8107 44.6865 100.206 52.1669 100.206H54.0418L54.3452 102.49C55.0054 107.465 58.202 113.851 62.245 118.273L64.4516 120.686V126.921V133.155L49.7933 136.379C41.7311 138.153 33.9266 140.028 32.4496 140.547C24.7655 143.247 18.682 149.65 16.3752 157.466C14.1364 165.053 0 217.953 0 218.745C0 219.264 0.494577 220.182 1.09881 220.786L2.19717 221.885H84.1452H166.093L167.192 220.786C167.796 220.182 168.29 219.29 168.29 218.803C168.29 216.972 155.746 157.917 154.848 155.515C152.629 149.59 148.163 144.777 142.107 141.785C139.049 140.274 136.253 139.511 122.973 136.564L107.419 133.112V126.899V120.686L109.661 118.234C113.683 113.836 116.847 107.415 117.562 102.2L117.835 100.206H119.707C125.223 100.206 130.374 96.493 131.838 91.463C133.442 85.9458 131.056 79.4664 126.553 77.1161C125.324 76.4741 125.323 76.4679 125.323 71.5439C125.323 66.9063 125.258 66.5493 124.224 65.5163C123.62 64.9124 122.759 64.4181 122.312 64.4181C121.674 64.4181 121.39 63.8455 120.994 61.7631C120.359 58.4236 117.84 53.1552 115.673 50.6331L114.014 48.7028L115.416 47.2569C116.187 46.4616 116.819 45.6112 116.819 45.3678C116.819 44.8117 112.682 40.7087 112.123 40.7087C111.895 40.7087 110.949 41.4508 110.02 42.3576L108.33 44.0065L106.355 43.0206C103.769 41.7295 100.012 40.4497 97.629 40.047C96.1273 39.7934 95.7796 39.572 95.9962 39.007C96.1479 38.6119 96.3883 37.4399 96.5306 36.4029C96.7531 34.7826 96.6264 34.3545 95.6346 33.3632L94.4802 32.2091H85.9355C77.4601 32.2091 77.3818 32.218 76.2924 33.3073ZM87.6193 42.9454C86.9228 45.7158 86.5429 46.5242 85.9355 46.5242C85.3281 46.5242 84.9481 45.7158 84.2517 42.9454L83.3525 39.3666H85.9355H88.5185L87.6193 42.9454ZM78.3893 49.0964C78.7142 50.5517 79.3995 52.1058 79.9674 52.6752C80.8881 53.5981 81.3836 53.6818 85.9355 53.6818C90.4874 53.6818 90.9828 53.5981 91.9035 52.6752C92.4639 52.1134 93.155 50.5606 93.4674 49.1609L94.0273 46.6526L96.3596 47.074C97.642 47.3057 99.6547 47.9083 100.831 48.4129C102.797 49.2557 102.915 49.3926 102.286 50.0873C101.909 50.5038 101.601 51.0232 101.601 51.241C101.601 51.7877 105.715 55.9185 106.259 55.9185C106.501 55.9185 107.228 55.4121 107.874 54.7934L109.049 53.6688L110.551 55.7592C112.132 57.9602 114.104 62.3093 114.122 63.6353C114.133 64.3725 112.493 64.4181 85.8795 64.4181H57.626L57.9111 62.9924C58.3059 61.021 60.2269 56.9313 61.6104 55.1186L62.7615 53.6102L63.9669 54.7643C64.6298 55.3991 65.3087 55.9185 65.4757 55.9185C66.0302 55.9185 70.2702 51.743 70.2702 51.1967C70.2702 50.9015 69.968 50.4094 69.5988 50.103C69.2295 49.7965 68.9274 49.3859 68.9274 49.1904C68.9274 48.5364 74.5383 46.6781 76.8397 46.5698C77.6718 46.5309 77.8992 46.9009 78.3893 49.0964ZM118.161 73.3651V75.1545H85.9355H53.7097V73.3651V71.5757H85.9355H118.161V73.3651ZM53.7097 87.7384V93.1647L51.641 92.9316C48.575 92.5863 46.7722 90.6519 46.7722 87.7075C46.7722 84.4687 48.8789 82.4064 52.255 82.3402L53.7097 82.312V87.7384ZM111 90.5056C111 100.284 110.595 102.858 108.312 107.615C103.917 116.768 94.043 122.381 83.8515 121.52C75.1676 120.787 67.3005 115.406 63.5784 107.654C61.2747 102.856 60.871 100.3 60.871 90.5056V82.312H85.9355H111V90.5056ZM123.699 84.0612C124.891 85.2529 125.099 85.7902 125.099 87.6802C125.099 90.6537 123.308 92.5849 120.23 92.9316L118.161 93.1647V87.6802V82.1957L120.23 82.4288C121.763 82.6015 122.661 83.0242 123.699 84.0612ZM182.613 119.889C182.613 127.661 182.522 128.836 181.921 128.836C181.541 128.836 180.735 129.331 180.131 129.934C179.036 131.028 179.032 131.067 179.032 140.129C179.032 149.997 179.405 152.451 181.542 156.667C184.021 161.556 190.493 166.647 195.4 167.567C196.888 167.846 196.935 167.92 196.935 169.936V172.017L194.586 172.567C186.233 174.522 179.479 180.918 176.52 189.676C175.367 193.089 175.367 200.577 176.52 203.991C178.554 210.009 182.664 215.383 187.32 218.11C190.335 219.876 194.574 221.328 197.771 221.69L200.516 222V218.415V214.83L198.049 214.522C194.69 214.103 189.868 211.612 187.551 209.099C186.516 207.977 185.032 205.714 184.253 204.071C182.972 201.369 182.837 200.676 182.837 196.833C182.837 192.99 182.972 192.297 184.253 189.595C187.113 183.562 192.546 179.67 198.932 179.08C203.591 178.65 204.097 177.985 204.097 172.299V167.855L205.632 167.567C210.831 166.592 217.291 161.319 219.768 156.027C221.657 151.995 222 149.485 222 139.715C222 131.093 221.992 131.025 220.901 129.934C220.297 129.331 219.491 128.836 219.111 128.836C218.51 128.836 218.419 127.661 218.419 119.889V110.942H214.839H211.258V119.889V128.836H207.677H204.097V119.889V110.942H200.516H196.935V119.889V128.836H193.355H189.774V119.889V110.942H186.194H182.613V119.889ZM74.2201 126.569C77.294 127.78 82.7254 128.836 85.8773 128.836C89.2279 128.836 94.3948 127.858 97.4772 126.64C98.7788 126.126 99.9555 125.705 100.092 125.705C100.229 125.705 100.265 128.674 100.173 132.303C100.024 138.197 99.8888 139.14 98.9117 141.138C97.5202 143.983 94.8124 146.696 91.9662 148.095C90.1338 148.997 89.0672 149.191 85.9355 149.191C82.8038 149.191 81.7372 148.997 79.9048 148.095C77.0653 146.699 74.3293 143.965 72.9324 141.127C71.9495 139.131 71.821 138.222 71.6836 132.303C71.5995 128.674 71.6424 125.705 71.779 125.705C71.9155 125.705 73.0143 126.094 74.2201 126.569ZM214.756 143.263C214.592 150.083 214.507 150.674 213.392 152.817C211.637 156.19 210.281 157.592 207.141 159.285C204.565 160.673 203.991 160.805 200.516 160.805C197.039 160.805 196.468 160.674 193.881 159.279C190.811 157.625 188.994 155.726 187.449 152.56C186.583 150.784 186.438 149.629 186.281 143.263L186.101 135.994H200.516H214.931L214.756 143.263ZM65.3468 141.078C65.3468 142.723 68.641 148.09 71.0745 150.41C79.6877 158.621 92.1833 158.621 100.797 150.41C103.23 148.09 106.524 142.723 106.524 141.078C106.524 140.312 106.456 140.31 110.888 141.228L114.581 141.993V158.677V175.36H85.9355H57.2903V158.671V141.981L60.5353 141.273C64.7134 140.362 65.3468 140.337 65.3468 141.078ZM50.129 161.96V180.322L51.2278 181.42L52.3262 182.518H85.9355H119.545L120.643 181.42L121.742 180.322V161.952V143.582L122.847 143.859C123.456 144.012 125.016 144.372 126.316 144.661L128.679 145.185L128.794 179.956L128.909 214.727H125.325H121.742V206.948C121.742 200.188 121.639 199.048 120.959 198.249C120.52 197.733 115.952 195.648 110.563 193.502L100.95 189.676H85.9355H70.9209L61.3083 193.502C55.9194 195.648 51.3514 197.733 50.9123 198.249C50.2315 199.048 50.129 200.188 50.129 206.948V214.727H46.5457H42.9624L43.077 179.955L43.1915 145.184L46.3246 144.441C48.0478 144.033 49.6089 143.676 49.7933 143.649C49.9777 143.621 50.129 151.861 50.129 161.96ZM35.8064 180.952V214.727H22.1552C13.055 214.727 8.50403 214.573 8.50403 214.264C8.50403 214.01 11.7266 201.932 15.6653 187.425C19.604 172.917 22.8266 160.772 22.8266 160.436C22.8266 159.082 26.0322 153.549 27.8391 151.782C29.7234 149.941 34.1379 147.202 35.247 147.186C35.6896 147.179 35.8064 154.226 35.8064 180.952ZM139.272 148.333C142.437 149.936 145.534 152.966 147.199 156.088C148.409 158.358 149.414 162.601 154.419 186.546C157.617 201.847 160.234 214.448 160.234 214.547C160.234 214.646 154.796 214.727 148.149 214.727H136.065V180.952C136.065 158.01 136.213 147.177 136.527 147.177C136.782 147.177 138.016 147.698 139.272 148.333ZM107.078 199.822L114.581 202.812V208.769V214.727H85.9355H57.2903V208.769V202.812L64.5635 199.865L71.8367 196.918L85.7063 196.876L99.576 196.833L107.078 199.822Z" fill="black"/>
</svg>
