<svg width="33" height="57" viewBox="0 0 33 57" fill="none" xmlns="http://www.w3.org/2000/svg">
<path fill-rule="evenodd" clip-rule="evenodd" d="M23.3639 0.203623C23.215 0.368278 23.1797 0.652499 23.1797 1.6893C23.1797 2.79 23.2085 2.9974 23.3833 3.1556C23.557 3.3128 23.9128 3.3423 25.8047 3.35655C27.0244 3.36568 27.8721 3.39496 27.6885 3.42145C27.0856 3.50873 26.9648 3.72093 26.9648 4.69304C26.9648 5.37571 26.9301 5.56641 26.8057 5.56641C26.4664 5.56641 26.2969 5.90296 26.2969 6.57627C26.2969 7.08793 26.2468 7.28643 26.0742 7.45899C25.928 7.60516 25.8515 7.83005 25.8515 8.11371C25.8515 8.47063 25.7885 8.59376 25.4897 8.82087C24.3281 9.70392 23.8886 9.68945 21.8848 8.7023C21.0356 8.28393 19.9776 7.8001 19.5337 7.6271C18.608 7.26628 18.5914 7.22431 19.013 6.30352C19.2402 5.80733 19.3527 5.67774 19.556 5.67774C19.9459 5.67774 20.0786 5.42881 20.0408 4.7683C20.0135 4.29093 19.9611 4.15477 19.7731 4.07217C19.5881 3.9909 19.5145 3.80832 19.4197 3.19557C19.2865 2.33534 18.9342 1.78237 18.2722 1.3945C17.6825 1.04916 15.9797 1.01576 15.1371 1.33316C13.9936 1.76378 13.3896 2.63236 13.3852 3.85207C13.3821 4.70306 13.5531 5.21484 13.8671 5.29444C14.1337 5.3619 14.5018 6.34393 14.4981 6.97794C14.4962 7.30914 14.4586 7.34243 13.9116 7.4974C13.5902 7.58835 13.0409 7.72028 12.691 7.79064C12.1627 7.89673 11.9675 8.00684 11.539 8.44013C10.9588 9.0266 10.1229 10.3807 9.47473 11.7836C8.89805 13.032 8.90228 13.0828 9.62525 13.6078C9.8076 13.7401 9.79636 13.8119 9.44612 14.751C9.09599 15.6897 8.07968 17.9828 7.05323 20.1504C6.62774 21.0489 6.57029 21.1164 5.91501 21.4863C5.04743 21.9762 4.68172 22.4413 4.61459 23.1406C4.54701 23.8429 4.88501 24.2743 5.57858 24.371L6.04905 24.4365L6.84616 25.9545L7.64327 27.4725L7.22457 29.4057C6.99423 30.469 6.72493 31.5268 6.62618 31.7564C6.44939 32.1673 6.43692 32.1738 5.82339 32.1755C5.0314 32.1775 4.65467 32.3611 4.60769 32.7677C4.55024 33.2642 4.75041 33.3985 5.54774 33.3985C6.14902 33.3985 6.25779 33.4282 6.25779 33.5927C6.25779 33.6996 5.18069 38.7022 3.86424 44.7098C2.54778 50.7173 1.47068 55.6648 1.47068 55.7041C1.47068 55.7432 1.27808 55.7754 1.04263 55.7754C0.344376 55.7754 -0.010983 56.3989 0.449693 56.8158C0.614347 56.9647 0.898568 57 1.93537 57C3.03607 57 3.24347 56.9712 3.40167 56.7964C3.77128 56.3881 3.48517 55.7754 2.92496 55.7754C2.70687 55.7754 2.68149 55.7344 2.74416 55.4845C2.78435 55.3245 3.8658 50.4024 5.14729 44.5465C6.4289 38.6907 7.50456 33.7868 7.53773 33.6489C7.5954 33.4094 7.64505 33.399 8.68129 33.4109C9.27712 33.4177 10.2337 33.4553 10.8068 33.4944L11.849 33.5654L12.6159 35.2856C13.0377 36.2316 13.3828 37.0207 13.3828 37.039C13.3828 37.0574 13.0399 37.0723 12.6208 37.0723C11.8017 37.0723 11.4902 37.2463 11.4902 37.704C11.4902 38.1457 11.8177 38.2858 12.9319 38.3203L13.9763 38.3526L14.2817 39.0371L14.5871 39.7218L13.7345 40.0282C11.9902 40.6552 11.7105 40.8992 11.9398 41.5939C12.1108 42.112 12.7507 42.5634 13.6649 42.8109C14.0657 42.9193 14.4195 43.0503 14.4513 43.1017C14.4832 43.1532 14.8727 43.1953 15.3169 43.1953H16.1245L16.7585 44.6359C17.1072 45.4282 17.4224 46.1547 17.4591 46.2502C17.5125 46.3894 17.4387 46.4238 17.0858 46.4238C16.535 46.4238 16.2171 46.7252 16.3229 47.1469C16.4111 47.4984 16.7703 47.6476 17.537 47.6511L18.1142 47.6538L18.8068 49.2376C19.1878 50.1086 19.5312 50.909 19.5702 51.0161C19.6312 51.1839 19.5691 51.211 19.1231 51.211C18.5209 51.211 18.005 51.5992 18.1326 51.9562C18.2864 52.3865 18.4085 52.4356 19.3246 52.436L20.2295 52.4363L20.9699 54.1059C21.5818 55.4857 21.6765 55.7754 21.516 55.7754C21.2623 55.7754 20.9531 56.1224 20.9531 56.4071C20.9531 56.8899 21.2684 57 22.6516 57C24.0465 57 24.2929 56.9094 24.2929 56.3971C24.2929 56.0282 23.9517 55.7759 23.4492 55.7727L23.0127 55.7701L22.3164 54.1863C21.9336 53.3153 21.6204 52.565 21.6206 52.5191C21.6209 52.4731 21.8387 52.4356 22.1048 52.4356C22.8706 52.4356 23.2046 51.9039 22.7344 51.4336C22.5558 51.255 22.3631 51.211 21.7602 51.2107L21.0088 51.2105L20.2572 49.513C19.8439 48.5794 19.5057 47.7779 19.5057 47.732C19.5058 47.686 19.7586 47.6485 20.0675 47.6485C20.5148 47.6485 20.6847 47.593 20.9013 47.3764C21.081 47.1967 21.1492 47.0358 21.1017 46.9032C20.9464 46.4687 20.8291 46.4238 19.8469 46.4238H18.8794L18.2454 44.9833C17.8967 44.1909 17.5814 43.4645 17.5448 43.369C17.4898 43.2258 17.5765 43.1953 18.0388 43.1953C18.7507 43.1953 18.9492 43.0097 18.9492 42.3439C18.9492 41.9358 19.011 41.7805 19.2806 41.5108C19.4642 41.3272 19.6891 40.9212 19.7845 40.6009C20.1785 39.279 20.2661 35.5224 20.0591 28.834L19.9471 25.2158L20.5893 24.6429L21.2314 24.07L21.1978 23.0335C21.1792 22.4634 21.065 21.4187 20.9438 20.7118L20.7235 19.4268L21.1996 16.3296L21.6757 13.2326L21.9545 13.2953C22.8098 13.4877 23.2521 13.4936 23.4306 13.3152C23.5426 13.2032 23.9661 13.0875 24.537 13.013C25.0456 12.9467 25.5689 12.8248 25.6996 12.7421C25.8304 12.6594 26.156 12.2411 26.4232 11.8125C26.8277 11.1639 26.9465 11.0457 27.1318 11.1073C27.7559 11.3148 28.2522 11.0814 28.6156 10.4094C28.8896 9.90298 28.9563 6.23483 28.6988 5.84173C28.5995 5.69032 28.4443 5.56641 28.3539 5.56641C28.2342 5.56641 28.1894 5.43527 28.1894 5.08414V4.60186L30.2212 4.40314C31.4475 4.28313 32.3522 4.1423 32.5034 4.0479C32.7383 3.90105 32.7539 3.81578 32.7539 2.67722C32.7539 1.38893 32.6544 1.11329 32.1893 1.11329C32.02 1.11329 31.9746 1.03447 31.9746 0.740893C31.9746 -0.00856793 32.0256 4.28744e-06 27.5578 4.28744e-06C23.8147 4.28744e-06 23.5359 0.0135863 23.3639 0.203623ZM30.75 1.66993V2.11524H27.5771H24.4043V1.66993V1.22461H27.5771H30.75V1.66993ZM17.7469 2.51635C18.1015 2.69982 18.2452 3.18744 18.2188 4.11915C18.1938 5.00242 18.0648 5.5594 17.7652 6.07719C17.5619 6.42843 17.5019 6.69751 17.5019 7.25671C17.5019 8.12429 17.5543 8.18251 18.7265 8.6207C19.1858 8.79237 20.3343 9.31327 21.279 9.77829C22.7443 10.4997 23.0982 10.6303 23.6893 10.6679C24.4523 10.7165 25.0132 10.5728 25.6672 10.1614C25.9026 10.0133 26.1141 9.91099 26.1371 9.93404C26.1743 9.97122 25.2792 11.384 25.074 11.612C24.9802 11.7162 22.972 12.0502 22.4004 12.0565C22.1861 12.059 21.7853 12.0234 21.5097 11.9778C20.6451 11.8344 20.6759 11.7548 20.0449 15.7562L19.4836 19.3154L19.6649 20.4287C19.7647 21.041 19.8942 21.9673 19.9526 22.4872L20.0588 23.4322L19.385 24.112L18.7114 24.7918L18.8302 28.5664C19.0247 34.7481 18.9584 39.3442 18.6639 40.1118C18.624 40.2157 18.488 40.3008 18.3616 40.3008C17.9212 40.3008 17.7246 40.6154 17.7246 41.32V41.9707L17.3071 41.9698C16.8913 41.9688 16.8882 41.9654 16.51 41.0774L16.1305 40.186L16.3569 39.9372C16.8666 39.3776 16.9787 38.7326 16.6528 38.2352C16.4831 37.976 16.4873 37.916 16.7202 37.277C17.0287 36.4313 17.0258 36.1598 16.6675 32.2259C16.2649 27.804 15.9536 25.1561 15.7987 24.834C15.7251 24.6812 15.4897 24.4365 15.2754 24.2903C14.9161 24.0451 14.8076 24.0289 13.8838 24.0817C12.7805 24.1447 11.2103 24.5216 10.9057 24.7962C10.7985 24.893 10.7117 25.052 10.7126 25.1496C10.7135 25.2472 11.159 26.8301 11.7027 28.667C12.2465 30.5039 12.6648 32.0504 12.6326 32.1037C12.6003 32.1569 11.8362 30.5313 10.9346 28.4911C9.9403 26.2412 9.20765 24.7235 9.0725 24.6338C8.73273 24.4081 8.27428 24.6239 8.18922 25.0493C8.15204 25.2353 8.08758 25.4085 8.04583 25.4343C8.0042 25.46 7.70628 24.9827 7.38376 24.3736C6.75821 23.1923 6.55315 22.9964 6.06531 23.1136L5.75682 23.1877L6.02022 22.9005C6.16517 22.7426 6.56094 22.4725 6.89982 22.3004L7.51602 21.9873L8.37781 20.2061C9.36485 18.1661 10.6053 15.2572 10.8668 14.3689C11.1314 13.4705 11.1015 13.1852 10.7119 12.8973L10.379 12.6511L10.994 11.4891C11.6585 10.2334 12.1232 9.51211 12.4514 9.22633C12.5656 9.1268 13.0349 8.96059 13.4941 8.85705C13.9533 8.7534 14.6297 8.55914 14.9971 8.42543L15.665 8.18229L15.6978 7.23734C15.7196 6.60822 15.6758 6.14309 15.5669 5.84585C15.477 5.60037 15.369 5.1801 15.3271 4.91203C15.2641 4.50891 15.1953 4.40359 14.9291 4.30317C14.6447 4.19574 14.6074 4.1275 14.6074 3.71358C14.6074 2.95154 15.1147 2.49131 16.166 2.2996C16.5778 2.22445 17.4005 2.33723 17.7469 2.51635ZM27.5787 9.6654C27.5452 9.69891 27.4585 9.66707 27.386 9.5946C27.3136 9.52224 27.1053 9.4629 26.9232 9.4629H26.592L26.8341 9.20528C26.9673 9.06356 27.0762 8.83812 27.0762 8.70431C27.0762 8.57038 27.1763 8.36075 27.2988 8.23829C27.462 8.07508 27.5279 7.84463 27.5456 7.37549C27.559 7.02336 27.5856 7.38095 27.6047 8.16993C27.624 8.95892 27.6122 9.63189 27.5787 9.6654ZM12.9347 13.5646C12.8111 13.666 12.4447 14.4504 12.1204 15.3076L11.5308 16.8662L9.73257 19.2041C7.80681 21.7078 7.67266 21.9821 8.20303 22.3295C8.44283 22.4866 8.59958 22.4939 9.41639 22.3852C10.6362 22.2229 11.3728 22.0007 12.3031 21.5145C13.1683 21.0623 13.5297 20.6702 14.0956 19.57C14.5292 18.7271 14.606 18.1302 14.3311 17.7379C14.1855 17.5298 14.1855 17.4864 14.3311 17.3655C14.5891 17.1513 14.5262 16.7965 14.164 16.4228C13.8409 16.0896 13.8347 16.0625 13.9367 15.4363C14.1628 14.0466 13.6085 13.0111 12.9347 13.5646ZM12.8465 17.1687C12.7667 17.2485 12.7148 17.2551 12.7148 17.1854C12.7148 17.1221 12.7482 17.0369 12.7891 16.9961C12.8298 16.9553 12.8892 16.9477 12.9208 16.9794C12.9524 17.0111 12.919 17.0962 12.8465 17.1687ZM13.0008 18.1061C13.1497 18.2036 13.2715 18.3453 13.2715 18.421C13.2715 18.6441 12.7205 19.623 12.3993 19.9707C12.0651 20.3324 10.9749 20.8701 10.3305 20.9909C9.80248 21.09 9.73835 21.2088 11.3789 19.0505C12.4705 17.6145 12.6644 17.4077 12.6947 17.6475C12.7142 17.8022 12.8519 18.0086 13.0008 18.1061ZM14.7589 25.6333C14.8669 26.2352 15.2715 30.1587 15.5422 33.2315C15.8443 36.6584 15.8095 36.9942 15.1481 37.0502L14.751 37.0837L13.9556 35.2965C13.5181 34.3136 13.1601 33.4843 13.1601 33.4539C13.1601 33.4234 13.382 33.3985 13.6532 33.3985C14.1612 33.3985 14.4961 33.1934 14.4961 32.8822C14.4961 32.6144 14.2791 32.2852 14.1025 32.2852C14.0128 32.2852 13.9394 32.2026 13.9394 32.1016C13.9394 31.9531 13.1204 29.0972 12.2305 26.143L12.0739 25.6229L12.7005 25.4582C13.0451 25.3677 13.6346 25.2886 14.0106 25.2825L14.6939 25.2715L14.7589 25.6333ZM9.47629 28.2217C9.47629 28.2829 9.3555 28.1076 9.20799 27.832C9.06048 27.5565 8.93969 27.281 8.93969 27.2197C8.93969 27.1585 9.06048 27.3339 9.20799 27.6094C9.3555 27.8849 9.47629 28.1605 9.47629 28.2217ZM8.70011 30.6639C8.46153 30.7826 8.24266 30.8559 8.21383 30.8271C8.18499 30.7983 8.24055 30.4279 8.33718 30.0041L8.51297 29.2334L8.82357 29.8409L9.13407 30.4483L8.70011 30.6639ZM10.8672 31.3433C11.0417 31.7438 11.1598 32.096 11.1296 32.1262C11.0996 32.1563 10.4544 32.1668 9.69616 32.1496L8.31736 32.1182L8.98533 31.8697C9.67334 31.6138 10.3769 31.0611 10.3769 30.7766C10.3769 30.4308 10.5637 30.6468 10.8672 31.3433ZM15.2731 41.2983C15.3968 41.5408 15.498 41.7699 15.498 41.8073C15.498 41.9069 14.2825 41.7394 13.8281 41.5772C13.56 41.4814 13.4906 41.4171 13.6054 41.3711C13.7328 41.3201 14.8784 40.9114 15.0227 40.8656C15.0367 40.8611 15.1493 41.0558 15.2731 41.2983Z" fill="black"/>
</svg>
